<svg xmlns="http://www.w3.org/2000/svg" viewBox="0 0 1885.45 571.64"><defs><style>.cls-1{fill:#fff}.cls-3{fill:#0065bd}</style></defs><path class="cls-1" d="M600.89 232.94v-36.16h-114.94c-11.86 0-21.47 9.61-21.47 21.47v192.81h21.47c11.79 0 21.35-9.5 21.47-21.26 0 .07 0 .14 0 .22v-66.77h72.23v-36.16h-50.75c-11.86 0-21.47 9.61-21.47 21.47v-75.63h93.47ZM815.58 196.78c-11.86 0-21.47 9.61-21.47 21.47v192.81h21.47c11.79 0 21.35-9.5 21.47-21.26 0 .07 0 .14 0 .22V196.78h-21.47ZM765.67 232.94v-36.16h-114.94c-11.86 0-21.47 9.61-21.47 21.47v192.81h21.47c11.79 0 21.35-9.5 21.47-21.26 0 .07 0 .14 0 .22v-66.77h72.23v-36.16h-50.75c-11.86 0-21.47 9.61-21.47 21.47v-75.63h93.47ZM956.73 207.56 956.73 198.45 904.36 198.45 904.36 282.98 915.5 282.98 915.5 245.65 950.98 245.65 950.98 236.53 915.5 236.53 915.5 207.56 956.73 207.56zM1016 268.73c2.34-4.86 3.51-10.34 3.51-16.46v-.75c0-9.83-2.64-17.71-7.92-23.63-5.28-5.92-12.2-8.88-20.76-8.88-5.54 0-10.46 1.34-14.78 4.01-4.32 2.67-7.68 6.47-10.1 11.38-2.42 4.92-3.63 10.45-3.63 16.61v.75c0 9.75 2.64 17.59 7.93 23.51 5.28 5.92 12.18 8.88 20.7 8.88 5.65 0 10.65-1.35 15.01-4.06 4.36-2.71 7.7-6.49 10.04-11.35Zm-12.05.23c-3.21 4.28-7.55 6.42-13.01 6.42s-9.75-2.11-12.98-6.33c-3.23-4.22-4.85-9.81-4.85-16.78 0-7.86 1.63-13.9 4.88-18.12 3.25-4.22 7.53-6.33 12.83-6.33s9.76 2.14 13.04 6.42c3.27 4.28 4.91 9.86 4.91 16.75 0 7.7-1.61 13.69-4.82 17.97ZM1063.33 229.8v-9.99c-1.08-.54-2.67-.81-4.76-.81-6.46 0-11.46 2.81-14.98 8.42l-.17-7.26h-10.45v62.82h10.74v-44.59c2.52-6 7.3-9 14.34-9 1.9 0 3.66.14 5.28.41ZM1107.08 272.91c-2.46 1.65-5.72 2.47-9.78 2.47-4.41 0-7.96-1.05-10.65-3.16-2.69-2.11-4.13-4.96-4.33-8.56h-10.74c0 3.72 1.09 7.17 3.28 10.36 2.19 3.19 5.22 5.68 9.09 7.46 3.87 1.78 8.32 2.67 13.36 2.67 7.16 0 12.99-1.69 17.48-5.08 4.49-3.39 6.73-7.89 6.73-13.5 0-3.37-.8-6.22-2.41-8.56-1.61-2.34-4.07-4.34-7.4-6.01-3.33-1.66-7.67-3.1-13.03-4.3-5.36-1.2-9.07-2.46-11.12-3.77-2.05-1.32-3.08-3.27-3.08-5.86 0-2.75 1.1-4.97 3.31-6.68 2.21-1.7 5.26-2.55 9.17-2.55s6.94 1.07 9.44 3.19c2.5 2.13 3.74 4.66 3.74 7.61h10.8c0-5.73-2.22-10.43-6.65-14.11-4.43-3.68-10.21-5.52-17.33-5.52s-12.34 1.78-16.69 5.34c-4.36 3.56-6.53 7.92-6.53 13.06 0 3.1.76 5.77 2.29 8.01 1.53 2.25 3.89 4.18 7.08 5.81 3.19 1.63 7.51 3.02 12.95 4.18 5.44 1.16 9.25 2.55 11.44 4.15 2.19 1.61 3.28 3.86 3.28 6.76 0 2.75-1.23 4.95-3.69 6.59ZM1161.23 282.98 1183.76 220.16 1172.78 220.16 1157.22 268.41 1141.26 220.16 1130.28 220.16 1153.04 282.98 1161.23 282.98zM1244.26 282.05c-1.47-3.41-2.21-7.99-2.21-13.76v-28.91c-.16-6.35-2.28-11.33-6.39-14.95-4.1-3.62-9.77-5.43-17.01-5.43-4.57 0-8.76.85-12.57 2.55-3.81 1.7-6.83 4.02-9.06 6.94-2.23 2.92-3.34 5.95-3.34 9.09h10.8c0-2.75 1.3-5.09 3.89-7.03 2.59-1.93 5.81-2.9 9.64-2.9 4.37 0 7.68 1.11 9.93 3.34 2.25 2.23 3.37 5.22 3.37 8.97v4.94h-10.45c-9.02 0-16.02 1.81-20.99 5.43-4.97 3.62-7.46 8.7-7.46 15.24 0 5.38 1.98 9.82 5.95 13.33 3.97 3.5 9.05 5.25 15.24 5.25 6.93 0 12.89-2.59 17.88-7.78.39 3.17.89 5.38 1.51 6.62h11.26v-.93Zm-12.95-16.66c-1.36 2.79-3.54 5.05-6.56 6.79-3.02 1.74-6.21 2.61-9.58 2.61s-6.41-.95-8.65-2.84c-2.24-1.9-3.37-4.53-3.37-7.9 0-7.7 6.58-11.55 19.74-11.55h8.42v12.89ZM1271.61 238.39c2.52-6 7.3-9 14.34-9 1.9 0 3.66.14 5.28.41v-9.99c-1.08-.54-2.67-.81-4.76-.81-6.46 0-11.46 2.81-14.98 8.42l-.17-7.26h-10.45v62.82h10.74v-44.59ZM1351.74 272.01l-6.56-5.11c-1.97 2.55-4.28 4.61-6.91 6.15-2.63 1.55-5.84 2.32-9.64 2.32-5.34 0-9.74-1.91-13.21-5.72-3.46-3.81-5.27-8.82-5.43-15.01h42.56v-4.47c0-10.02-2.26-17.73-6.79-23.11-4.53-5.38-10.88-8.07-19.04-8.07-4.99 0-9.63 1.38-13.91 4.15-4.28 2.77-7.61 6.6-9.99 11.5-2.38 4.9-3.57 10.46-3.57 16.69v1.97c0 9.37 2.67 16.85 8.01 22.44 5.34 5.59 12.27 8.39 20.79 8.39 10.53 0 18.42-4.04 23.69-12.13Zm-35.94-39.45c2.94-3.15 6.58-4.73 10.92-4.73s8.05 1.5 10.68 4.5c2.63 3 4.1 7.23 4.41 12.69v.81h-31.47c.7-5.69 2.51-10.11 5.46-13.27ZM1383.1 273.14c-1.04-1.26-1.57-3.15-1.57-5.67v-39.01h11.73v-8.3h-11.73v-15.21h-10.74v15.21h-11.44v8.3h11.44v38.96c0 5.34 1.22 9.46 3.66 12.37 2.44 2.9 6.06 4.35 10.86 4.35 2.67 0 5.42-.38 8.24-1.15v-8.66c-2.17.46-3.87.7-5.11.7-2.52 0-4.3-.63-5.34-1.89ZM1439.69 272.91c-2.46 1.65-5.72 2.47-9.78 2.47-4.41 0-7.96-1.05-10.65-3.16-2.69-2.11-4.13-4.96-4.33-8.56h-10.74c0 3.72 1.09 7.17 3.28 10.36 2.19 3.19 5.22 5.68 9.09 7.46 3.87 1.78 8.32 2.67 13.35 2.67 7.16 0 12.99-1.69 17.48-5.08 4.49-3.39 6.73-7.89 6.73-13.5 0-3.37-.8-6.22-2.41-8.56-1.61-2.34-4.07-4.34-7.4-6.01-3.33-1.66-7.67-3.1-13.03-4.3-5.36-1.2-9.07-2.46-11.12-3.77-2.05-1.32-3.08-3.27-3.08-5.86 0-2.75 1.1-4.97 3.31-6.68 2.21-1.7 5.26-2.55 9.17-2.55s6.94 1.07 9.44 3.19c2.5 2.13 3.74 4.66 3.74 7.61h10.8c0-5.73-2.22-10.43-6.65-14.11-4.43-3.68-10.21-5.52-17.33-5.52s-12.34 1.78-16.69 5.34c-4.36 3.56-6.53 7.92-6.53 13.06 0 3.1.76 5.77 2.29 8.01 1.53 2.25 3.89 4.18 7.08 5.81 3.19 1.63 7.51 3.02 12.95 4.18 5.44 1.16 9.25 2.55 11.44 4.15 2.19 1.61 3.28 3.86 3.28 6.76 0 2.75-1.23 4.95-3.69 6.59ZM911.36 324.2c-3.6 3.68-5.4 8.88-5.4 15.62v6.44h-9.93v8.3h9.93v54.52h10.74v-54.52h13.41v-8.3h-13.41v-6.64c0-3.81.95-6.73 2.84-8.77 1.9-2.04 4.59-3.06 8.07-3.06 2.05 0 3.99.17 5.81.52l.58-8.66c-2.44-.65-4.9-.98-7.37-.98-6.58 0-11.67 1.84-15.27 5.52ZM966.61 345.1c-5.54 0-10.46 1.34-14.78 4.01-4.32 2.67-7.68 6.46-10.1 11.38-2.42 4.92-3.63 10.45-3.63 16.61v.75c0 9.76 2.64 17.59 7.93 23.52 5.28 5.92 12.18 8.88 20.7 8.88 5.65 0 10.65-1.35 15.01-4.06 4.36-2.71 7.7-6.49 10.04-11.35 2.34-4.86 3.51-10.34 3.51-16.46v-.75c0-9.83-2.64-17.71-7.92-23.63-5.28-5.92-12.2-8.88-20.76-8.88Zm13.12 49.96c-3.21 4.28-7.55 6.42-13.01 6.42s-9.75-2.11-12.98-6.33c-3.23-4.22-4.85-9.81-4.85-16.78 0-7.86 1.63-13.9 4.88-18.12 3.25-4.22 7.53-6.33 12.83-6.33s9.76 2.14 13.04 6.41c3.27 4.28 4.91 9.86 4.91 16.75 0 7.7-1.61 13.69-4.82 17.97ZM1019.37 353.52l-.17-7.26h-10.45v62.82h10.74v-44.59c2.52-6 7.3-9 14.34-9 1.9 0 3.66.14 5.28.41v-9.99c-1.08-.54-2.67-.81-4.76-.81-6.46 0-11.46 2.81-14.98 8.42ZM1087.48 377.09c-3.33-1.66-7.67-3.1-13.03-4.3-5.36-1.2-9.07-2.46-11.12-3.77-2.05-1.32-3.08-3.27-3.08-5.86 0-2.75 1.1-4.97 3.31-6.68 2.21-1.7 5.26-2.55 9.17-2.55s6.94 1.06 9.44 3.19c2.5 2.13 3.74 4.66 3.74 7.61h10.8c0-5.73-2.22-10.43-6.65-14.11-4.43-3.68-10.21-5.52-17.33-5.52s-12.34 1.78-16.69 5.34c-4.36 3.56-6.53 7.92-6.53 13.06 0 3.1.76 5.77 2.29 8.01 1.53 2.25 3.89 4.18 7.08 5.81 3.19 1.63 7.51 3.02 12.95 4.18 5.44 1.16 9.25 2.55 11.44 4.15 2.19 1.61 3.28 3.86 3.28 6.76 0 2.75-1.23 4.94-3.69 6.59-2.46 1.65-5.72 2.47-9.78 2.47-4.41 0-7.96-1.05-10.65-3.16-2.69-2.11-4.13-4.96-4.33-8.56h-10.74c0 3.72 1.09 7.17 3.28 10.36 2.19 3.19 5.22 5.68 9.09 7.46 3.87 1.78 8.32 2.67 13.35 2.67 7.16 0 12.99-1.69 17.48-5.08 4.49-3.39 6.73-7.89 6.73-13.5 0-3.37-.8-6.22-2.41-8.56-1.61-2.34-4.07-4.34-7.4-6.01ZM1162.44 346.26 1149.38 346.26 1129.81 366.93 1124.06 373.84 1124.06 319.9 1113.32 319.9 1113.32 409.08 1124.06 409.08 1124.06 387.02 1130.8 380 1152.69 409.08 1165.29 409.08 1138 372.51 1162.44 346.26zM1204.83 345.1c-7.74 0-14.01 3.02-18.81 9.06l-.35-7.9h-10.16v62.82h10.74v-44.77c1.47-3.02 3.52-5.46 6.15-7.32 2.63-1.86 5.69-2.79 9.17-2.79 4.3 0 7.46 1.08 9.49 3.25 2.03 2.17 3.07 5.52 3.11 10.04v41.57h10.74v-41.51c-.12-14.98-6.81-22.47-20.09-22.47ZM1244.16 346.26H1254.9V409.08H1244.16zM1249.51 323.39c-2.09 0-3.67.6-4.73 1.8-1.06 1.2-1.6 2.67-1.6 4.41s.53 3.19 1.6 4.36c1.06 1.16 2.64 1.74 4.73 1.74s3.68-.58 4.76-1.74c1.08-1.16 1.63-2.61 1.63-4.36s-.54-3.21-1.63-4.41c-1.08-1.2-2.67-1.8-4.76-1.8ZM1303.26 345.1c-7.74 0-14.01 3.02-18.81 9.06l-.35-7.9h-10.16v62.82h10.74v-44.77c1.47-3.02 3.52-5.46 6.15-7.32 2.63-1.86 5.69-2.79 9.17-2.79 4.3 0 7.46 1.08 9.49 3.25 2.03 2.17 3.07 5.52 3.11 10.04v41.57h10.74v-41.51c-.12-14.98-6.81-22.47-20.09-22.47ZM1381.7 353.23c-4.3-5.42-10.28-8.13-17.94-8.13s-13.47 2.89-18 8.68c-4.53 5.79-6.79 13.58-6.79 23.37s2.27 18.29 6.82 24.21c4.55 5.92 10.5 8.88 17.85 8.88s13.3-2.48 17.59-7.43v5.4c0 5.34-1.46 9.48-4.38 12.43-2.92 2.94-7 4.41-12.22 4.41-6.66 0-12.29-2.84-16.9-8.53l-5.57 6.44c2.28 3.37 5.59 6.02 9.93 7.95 4.33 1.94 8.77 2.9 13.3 2.9 8.13 0 14.6-2.34 19.42-7.02 4.82-4.68 7.23-11.09 7.23-19.22v-61.31h-9.81l-.52 6.97Zm-.46 38.67c-3.17 6.15-8.15 9.23-14.92 9.23-5.23 0-9.29-2.02-12.19-6.07-2.9-4.04-4.35-9.61-4.35-16.69 0-7.97 1.47-13.99 4.41-18.06 2.94-4.06 7.03-6.1 12.25-6.1 6.58 0 11.51 3 14.81 9v28.68ZM1446.74 377.09c-3.33-1.66-7.67-3.1-13.03-4.3-5.36-1.2-9.07-2.46-11.12-3.77-2.05-1.32-3.08-3.27-3.08-5.86 0-2.75 1.1-4.97 3.31-6.68 2.21-1.7 5.26-2.55 9.17-2.55s6.94 1.06 9.44 3.19c2.5 2.13 3.74 4.66 3.74 7.61h10.8c0-5.73-2.22-10.43-6.65-14.11-4.43-3.68-10.21-5.52-17.33-5.52s-12.34 1.78-16.69 5.34c-4.36 3.56-6.53 7.92-6.53 13.06 0 3.1.76 5.77 2.29 8.01 1.53 2.25 3.89 4.18 7.08 5.81 3.19 1.63 7.51 3.02 12.95 4.18 5.44 1.16 9.25 2.55 11.44 4.15 2.19 1.61 3.28 3.86 3.28 6.76 0 2.75-1.23 4.94-3.69 6.59-2.46 1.65-5.72 2.47-9.78 2.47-4.41 0-7.96-1.05-10.65-3.16-2.69-2.11-4.13-4.96-4.33-8.56h-10.74c0 3.72 1.09 7.17 3.28 10.36 2.19 3.19 5.22 5.68 9.09 7.46 3.87 1.78 8.32 2.67 13.35 2.67 7.16 0 12.99-1.69 17.48-5.08 4.49-3.39 6.73-7.89 6.73-13.5 0-3.37-.8-6.22-2.41-8.56-1.61-2.34-4.07-4.34-7.4-6.01ZM1480.84 323.39c-2.09 0-3.67.6-4.73 1.8-1.06 1.2-1.6 2.67-1.6 4.41s.53 3.19 1.6 4.36c1.06 1.16 2.64 1.74 4.73 1.74s3.68-.58 4.76-1.74c1.08-1.16 1.63-2.61 1.63-4.36s-.54-3.21-1.63-4.41c-1.08-1.2-2.67-1.8-4.76-1.8ZM1473.52 346.26H1484.26V409.08H1473.52zM1532.68 345.1c-7.74 0-14.01 3.02-18.81 9.06l-.35-7.9h-10.16v62.82h10.74v-44.77c1.47-3.02 3.52-5.46 6.15-7.32 2.63-1.86 5.69-2.79 9.17-2.79 4.3 0 7.46 1.08 9.49 3.25 2.03 2.17 3.07 5.52 3.11 10.04v41.57h10.74v-41.51c-.12-14.98-6.81-22.47-20.09-22.47ZM1606.86 377.09c-3.33-1.66-7.67-3.1-13.03-4.3-5.36-1.2-9.07-2.46-11.12-3.77-2.05-1.32-3.08-3.27-3.08-5.86 0-2.75 1.1-4.97 3.31-6.68 2.21-1.7 5.26-2.55 9.17-2.55s6.94 1.06 9.44 3.19c2.5 2.13 3.74 4.66 3.74 7.61h10.8c0-5.73-2.22-10.43-6.65-14.11-4.43-3.68-10.21-5.52-17.33-5.52s-12.34 1.78-16.69 5.34c-4.36 3.56-6.53 7.92-6.53 13.06 0 3.1.76 5.77 2.29 8.01 1.53 2.25 3.89 4.18 7.08 5.81 3.19 1.63 7.51 3.02 12.95 4.18 5.44 1.16 9.25 2.55 11.44 4.15 2.19 1.61 3.28 3.86 3.28 6.76 0 2.75-1.23 4.94-3.69 6.59-2.46 1.65-5.72 2.47-9.78 2.47-4.41 0-7.96-1.05-10.65-3.16-2.69-2.11-4.13-4.96-4.33-8.56h-10.74c0 3.72 1.09 7.17 3.28 10.36 2.19 3.19 5.22 5.68 9.09 7.46 3.87 1.78 8.32 2.67 13.35 2.67 7.16 0 12.99-1.69 17.48-5.08 4.49-3.39 6.73-7.89 6.73-13.5 0-3.37-.8-6.22-2.41-8.56-1.61-2.34-4.07-4.34-7.4-6.01ZM1648.79 399.24c-1.04-1.26-1.57-3.15-1.57-5.67v-39.01h11.73v-8.3h-11.73v-15.21h-10.74v15.21h-11.44v8.3h11.44v38.96c0 5.34 1.22 9.46 3.66 12.37 2.44 2.9 6.06 4.36 10.86 4.36 2.67 0 5.42-.38 8.24-1.15v-8.66c-2.17.47-3.87.7-5.11.7-2.52 0-4.3-.63-5.34-1.89ZM1675.46 346.26H1686.2V409.08H1675.46zM1680.8 323.39c-2.09 0-3.67.6-4.73 1.8-1.06 1.2-1.6 2.67-1.6 4.41s.53 3.19 1.6 4.36c1.06 1.16 2.64 1.74 4.73 1.74s3.68-.58 4.76-1.74c1.08-1.16 1.63-2.61 1.63-4.36s-.54-3.21-1.63-4.41c-1.08-1.2-2.67-1.8-4.76-1.8ZM1722.43 399.24c-1.04-1.26-1.57-3.15-1.57-5.67v-39.01h11.73v-8.3h-11.73v-15.21h-10.74v15.21h-11.44v8.3h11.44v38.96c0 5.34 1.22 9.46 3.66 12.37 2.44 2.9 6.06 4.36 10.86 4.36 2.67 0 5.42-.38 8.24-1.15v-8.66c-2.17.47-3.87.7-5.11.7-2.52 0-4.3-.63-5.34-1.89ZM1785.61 391.96c-2.71 6.12-8.17 9.17-16.37 9.17-7.74 0-11.61-4.76-11.61-14.28v-40.58h-10.74v40.88c.04 7.63 1.81 13.38 5.31 17.27 3.5 3.89 8.6 5.84 15.3 5.84 8.09 0 14.23-2.46 18.41-7.37l.23 6.21h10.22v-62.82h-10.74v45.69ZM1831.77 399.24c-1.04-1.26-1.57-3.15-1.57-5.67v-39.01h11.73v-8.3h-11.73v-15.21h-10.74v15.21h-11.44v8.3h11.44v38.96c0 5.34 1.22 9.46 3.66 12.37 2.44 2.9 6.06 4.36 10.86 4.36 2.67 0 5.42-.38 8.24-1.15v-8.66c-2.17.47-3.87.7-5.11.7-2.52 0-4.3-.63-5.34-1.89ZM1878.93 401.13c-2.52 0-4.3-.63-5.34-1.89-1.04-1.26-1.57-3.15-1.57-5.67v-39.01h11.73v-8.3h-11.73v-15.21h-10.74v15.21h-11.44v8.3h11.44v38.96c0 5.34 1.22 9.46 3.66 12.37 2.44 2.9 6.06 4.36 10.86 4.36 2.67 0 5.42-.38 8.24-1.15v-8.66c-2.17.47-3.87.7-5.11.7Z" id="Navnetrekk"/><path d="M290.4,132.1s0,0,0,0c9.39-36.21,10.45-38.53-60.43-38.53,.02,.02,.03,.04,.05,.05-5.42-5.53-21.31-4.46-60.6,.78h0s0-.07,0-.07l-.23,.06c9.89-3.13,17.06-12.37,17.06-23.3,0-11.46-7.89-21.07-18.53-23.71V28.03h13.56v-11.46h-13.53V2.17h-11.84V15.28s0,1.29,0,1.29h-13.57v11.46h13.57v19.36c-10.64,2.64-18.52,12.25-18.52,23.71,0,10.82,7.04,20,16.79,23.2v.22c0-.11,0-.18,0-.18-38.95-5.03-55.18-6.54-60.84-.76,0,0-.02,0-.02,0-66.1,.95-70.59-.82-60.15,38.54,0,0,0,0,.01,0-1.9,.43-3.83,1.07-5.7,1.95,3.21,8.61,13.26,49.28,15.55,63.38h237.55c2.3-14.1,12.34-54.77,15.55-63.38-1.88-.88-3.82-1.53-5.73-1.96Zm-195.11,25.02c.17,.17,.84,.84,1.11,1.11-1,4.08-7.21,15.99-10.69,18.76-8.99,3.78-21.21,3.32-28.23,0-1.65-1.23-9.16-11.58-11.66-16.41,0,0,.83-.83,1.42-1.42,29.88,31.35,29.88-38.23,0-7.03l-1.42-1.42c6.97-9.26,5.1-15.3-.3-17.85,0,0,0,0,0,0-7.72-31.14-6.49-29.88,45.22-29.88,0,0,0,0,0,0,.21,5.89,2,14.01,3.8,24.87,0,0,0,0,0,0-6.12,2.69-8.85,9.37,1.85,20.06-.42,.41-1.11,1.11-1.11,1.11-27.67-27.67-27.67,35.77,0,8.1Zm61.05-1.53c.33,.32,1.03,1.02,1.29,1.29-1.13,3.77-7.47,16.76-11.95,20.11-8.68,3.1-17.75,3.49-26.83,0-3.49-2.77-11.05-14.68-12.04-18.76,.27-.27,.94-.94,1.11-1.11,27.66,27.67,27.66-35.77,0-8.1,0,0-.69-.7-1.11-1.11,11.86-12,6.87-18.96-.78-20.87,0,0,0,0,.01,0-4.22-31.11-8.43-31.19,48.67-24.7,0-.14-.01-.29-.02-.43l1.55,23.34c-7.69,2.32-12.04,9.68,1.39,22.06l-1.29,1.29c-29.08-32.46-29.08,39.45,0,6.99Zm59.49,1.53c.17,.17,.84,.84,1.1,1.11-.99,4.08-7.2,15.99-10.68,18.76-9.81,3.1-18.34,3.24-28.08,0-4.47-3.35-10.82-16.34-11.94-20.11,.27-.27,.97-.97,1.29-1.29,29.07,32.46,29.07-39.45,0-6.99l-1.29-1.29c13.54-12.48,9-19.85,1.19-22.11,.01,0,.02,0,.03,0l1.45-22.75h0c57.83-7.24,52.04-5.12,48.18,24.77,0,0,0,0,0,0-7.29,2.13-11.7,9.03-.16,20.7-.42,.41-1.1,1.11-1.1,1.11-27.67-27.67-27.67,35.77,0,8.1Zm60.54,2.04c.59,.59,1.42,1.42,1.42,1.42-2.5,4.83-10.01,15.19-11.66,16.41-8.1,3.32-18.75,3.78-28.09,0-3.49-2.77-9.7-14.68-10.69-18.76,0,0,.94-.94,1.11-1.11,27.67,27.67,27.67-35.77,0-8.1,0,0-.7-.7-1.11-1.11,11.12-11.12,7.72-17.91,1.09-20.37,0,0,0,0,0,0,1.58-10.62,3.56-18.68,3.94-24.56,52.74,0,53.32-.75,45.72,29.87-5.4,2.55-7.27,8.59-.3,17.85l-1.42,1.42c-29.88-31.2-29.88,38.38,0,7.03Z" style="fill:#fed523" id="Gul"/><path d="M296.45,133.39c-1.68-.79-3.41-1.39-5.13-1.83,4.01-15.44,6.42-24.77,1.99-30.5-5.78-7.47-22.78-8.23-63.05-8.23-5.59-5.17-20.03-4.51-56.09,.2,7.65-4.33,12.83-12.53,12.83-21.93,0-11.58-7.86-21.36-18.53-24.28V28.78h13.56V15.82h-13.53V1.42h-13.34V15.28h.02c0,.14-.01,.32-.01,.54h-13.57v12.96h13.57v18.04c-10.66,2.93-18.52,12.7-18.52,24.28,0,9.36,5.13,17.53,12.73,21.87-35.74-4.56-50.53-5.63-56.33-.14l-8.17,.11c-33.5,.44-48.78,.64-54.33,7.95-4.02,5.29-2.74,13.8,1.72,30.68-1.71,.43-3.42,1.03-5.09,1.82l-.62,.29,.24,.65c3.29,8.83,13.29,49.61,15.51,63.24l.1,.63h238.83s.1-.63,.1-.63c2.22-13.64,12.22-54.42,15.51-63.24l.24-.65-.62-.29Zm-4.33-31.41c3.99,5.15,1.64,14.22-2.26,29.24h0c-3.77-.74-7.43-.62-10.4,.32,0,0,0,0,0,0-.09,.03-.19,.05-.29,.08,3-12.12,4.68-19.54,1.3-23.86-4.16-5.32-15.11-5.53-41-5.53-1.11,0-2.25,0-3.41,0h-2.9c0-.22,.01-.45,.02-.67v-.18c0-.46,0-.92-.03-1.45-.02-.41-.06-.81-.11-1.2l-.02-.17c-.05-.4-.12-.78-.2-1.14l-.05-.22c-.09-.37-.19-.73-.33-1.09-.13-.35-.28-.68-.45-1.01l-.1-.19c-.11-.2-.23-.4-.35-.59,38,.02,55.29,.82,60.58,7.65Zm-17.81,32.82c-.53,.66-1.08,1.56-1.43,2.73-9.93-8.88-23.74-15.18-42.15-19.21,.17-.93,.33-1.83,.49-2.69,.84-4.58,1.56-8.57,1.84-11.89h3c27.01-.02,39.34-.01,43.23,4.96,3.03,3.87,1.21,11.34-1.85,23.67-1.25,.63-2.32,1.43-3.13,2.43Zm-228.14-2.43c-3.23-13.05-4.76-20.07-1.81-23.84,3.79-4.83,15.33-4.83,40.58-4.8h5.1c.22,3.95,1.06,8.79,2.12,14.75-17.06,4.02-30.64,10.26-41.45,19.03-.35-1.16-.9-2.07-1.43-2.72-.81-.99-1.87-1.8-3.12-2.43Zm60.21-30.09c4.08-4.2,16.36-2.81,46.03,.57l1.59,.18,.64,9.54c-20.18,.18-35.93,1.26-49.42,3.39-.93-6.93-1.1-11.34,1.17-13.68Zm52.66-6.15c.16,.02,.32,.03,.48,.05,.18,.02,.37,.03,.56,.04,.57,.04,1.15,.07,1.74,.07,1.85,0,3.66-.21,5.4-.59,.57-.12,1.05-.24,1.39-.34l-1.1,17.21h0l-.03,.48-.16,2.5c-.17,2.65-.44,6.87-.56,8.7-1.49-.35-3.12-.55-4.84-.55-1.78,0-3.46,.21-5,.59l-1.49-22.41c-.12-2.32-.32-5.1-.43-6.54,1.15,.32,2.33,.57,3.54,.72,.16,.02,.32,.04,.49,.06Zm58.88,19.87c-13.81-2.07-29.83-3.19-48.91-3.41l.6-9.45c30.95-3.87,43.07-4.92,47.16-.75,2.34,2.39,2.1,6.74,1.15,13.61Zm11.57-21.83c.2,.21,.39,.42,.55,.63l.07,.09c.17,.24,.33,.49,.47,.75l.08,.14c.14,.27,.27,.55,.38,.87,.11,.29,.19,.6,.27,.89l.05,.2c.07,.33,.14,.66,.18,1.02l.02,.16c.04,.35,.08,.71,.1,1.18,.02,.37,.02,.75,.02,1.14,0,.07,0,.14,0,.21v.07s0,.02,0,.02c0,.45-.02,.91-.06,1.39h0c-.22,3.38-.98,7.57-1.87,12.42-.16,.85-.32,1.74-.48,2.64h0s-.14,.76-.14,.76c-.24,1.32-.52,2.9-.8,4.63-.01,.07-.02,.14-.04,.21-.15,.88-.29,1.8-.44,2.75,0,.06-.02,.12-.03,.19-3.07-.95-6.64-1.07-9.85-.35,.02-.17,.05-.34,.07-.51,.11-.82,.22-1.62,.33-2.39,.05-.32,.09-.63,.14-.95,.11-.78,.23-1.55,.33-2.29,.02-.12,.04-.24,.05-.37,.14-.96,.28-1.88,.4-2.76l.11-.73h0c1.01-7.33,1.24-12.01-1.56-14.88-4.57-4.67-16.21-3.72-48.13,.27l.42-6.53c37.57-5,54.16-6.22,59.36-.91Zm-45.08-30.13h-15.95v-15.64c7.58,2.22,13.59,8.12,15.95,15.64Zm-41.33-36.74v-9.96h13.58v-.75s0-.41,0-.76V2.92h10.34v14.4h13.53v9.96h-13.56v19.17c-1.66-.35-3.39-.53-5.15-.53s-3.49,.19-5.16,.53V27.28h-13.57Zm12.07,21.1v15.64h-15.94c2.36-7.52,8.37-13.42,15.94-15.64Zm-16.33,17.14h17.83v-17.53c1.66-.37,3.39-.58,5.16-.58s3.49,.21,5.15,.58v17.53h17.84c.43,1.79,.69,3.65,.69,5.57,0,1.63-.17,3.23-.48,4.77h-46.4c-.32-1.54-.48-3.13-.48-4.77,0-1.92,.26-3.78,.69-5.57Zm.18,11.84h45.62c-2.13,7.76-8.1,13.94-15.75,16.34l-.1,.03s-.01,0-.03,0c-.64,.2-1.3,.36-1.97,.51-.2,.04-.41,.08-.63,.12-.32,.06-.64,.1-.96,.15-.97,.13-2.11,.22-3.38,.22-.26,.01-.53,0-.79,0-.53-.02-1.07-.03-1.59-.08-.04,0-.08-.01-.12-.02-.65-.07-1.29-.17-1.92-.29-.3-.06-.57-.12-.84-.18-.41-.09-.82-.2-1.23-.32-.18-.05-.33-.1-.45-.13,0,0-.35-.11-.4-.12-7.51-2.46-13.36-8.57-15.46-16.23Zm14.47,17.64l.43,6.49-1.32-.15c-31.07-3.53-42.69-4.85-47.28-.12-2.72,2.81-2.56,7.57-1.57,14.98h0s.1,.72,.1,.72c.01,.09,.03,.21,.05,.34,.09,.65,.18,1.31,.28,1.99,.19,1.31,.42,2.92,.62,4.36,.14,.94,.26,1.8,.35,2.44-3.32-.63-6.95-.39-10,.73,0,0,0,0,0,0-.47-2.84-.95-5.48-1.39-7.94-1.2-6.72-2.15-12.03-2.26-16.19,0-.33-.01-.65-.01-.97v-.32c0-.39,.03-.77,.05-1.13l.03-.35c.03-.36,.07-.71,.12-1.05l.02-.12c.05-.32,.12-.62,.19-.93l.06-.25c.08-.31,.18-.61,.29-.9l.06-.13c.1-.25,.21-.49,.32-.71l.1-.2c.14-.25,.29-.49,.45-.72l.12-.16c.14-.18,.29-.36,.47-.55,5.25-5.58,21.41-4.14,59.71,.8Zm-119.76,36.22c-4.34-16.43-5.63-24.63-1.98-29.44,5.1-6.72,21.16-6.93,53.15-7.35l6.87-.09c-.12,.18-.23,.37-.33,.55l-.12,.24c-.14,.27-.26,.55-.4,.88l-.05,.13c-.12,.33-.23,.67-.33,1.04l-.07,.28c-.08,.34-.16,.68-.22,1.04l-.02,.14c-.06,.37-.1,.75-.13,1.14l-.03,.38c-.03,.39-.05,.79-.06,1.21v.24s0,0,0,0v.1c0,.17,0,.35,0,.52h-5.04c-25.76-.03-37.53-.04-41.76,5.37-3.29,4.2-1.9,11.2,1.27,24.02-.09-.03-.19-.05-.28-.08-.02,0-.04-.01-.06-.02-1.66-.52-3.53-.79-5.52-.79-.16,0-.33,.02-.5,.03-.49,.01-.99,.03-1.5,.08-.29,.02-.58,.06-.87,.09-.54,.06-1.08,.14-1.62,.24-.13,.02-.26,.03-.39,.06Zm246.23,65.47H43.66c-2.36-13.93-11.77-52.31-15.24-62.23,1.44-.64,2.92-1.13,4.38-1.5l.26-.06c.12-.03,.24-.05,.36-.08,.52-.12,1.05-.22,1.56-.3,.01,0,.02,0,.03,0,3.85-.6,7.5-.25,10.19,1.02l.53,.25c.95,.52,1.76,1.17,2.39,1.95,.75,.93,1.2,2.01,1.38,3.21,.05,.34,.08,.69,.08,1.06,0,.02,0,.05,0,.07,0,.39-.03,.79-.09,1.2,0,.06-.02,.12-.03,.17-.06,.37-.13,.74-.23,1.12-.01,.05-.02,.11-.04,.16-.11,.43-.25,.86-.42,1.3-.02,.06-.05,.11-.07,.17-.15,.39-.32,.78-.51,1.18-.04,.09-.08,.18-.13,.27-.22,.45-.46,.91-.72,1.37-.04,.06-.08,.13-.11,.19-.23,.4-.49,.81-.75,1.21-.09,.13-.17,.27-.26,.4-.31,.45-.63,.91-.98,1.38-.01,.02-.03,.04-.04,.05l-.12,.16-.27,.36,1.22,1.22,1.2,1.2,.53-.55c.44-.46,.87-.88,1.29-1.3,.11-.11,.23-.22,.34-.33,.3-.29,.6-.56,.89-.82,.34-.31,.69-.61,1.02-.9,.06-.05,.12-.1,.18-.16,3.58-2.97,6.85-4.52,9.61-4.52,.3,0,.6,.02,.88,.06,.06,0,.12,.02,.18,.02,.26,.04,.5,.09,.75,.16,.03,0,.06,.01,.08,.02,.24,.07,.46,.16,.68,.25,.11,.05,.21,.1,.32,.15,.11,.06,.22,.12,.33,.18,.13,.07,.26,.15,.38,.23,.01,0,.03,.02,.04,.03,.53,.36,1.01,.81,1.45,1.33,.02,.02,.04,.04,.05,.07,.13,.16,.26,.33,.39,.51,.03,.05,.06,.09,.09,.14,.11,.16,.22,.33,.32,.5,.14,.23,.27,.46,.39,.7,0,.01,.01,.02,.02,.04,.82,1.67,1.27,3.65,1.39,5.62,0,.02,0,.05,0,.07,.01,.24,.02,.48,.02,.72,0,.1,0,.2,0,.3,0,1.98-.34,4.02-1.04,5.79,0,0,0,.02,0,.02-.1,.26-.22,.52-.34,.77-.02,.04-.03,.07-.05,.11-.12,.24-.25,.47-.38,.7-.11,.18-.23,.36-.35,.53-.02,.03-.05,.07-.07,.1-.13,.18-.26,.35-.4,.52-.02,.02-.03,.04-.05,.06-.55,.65-1.18,1.18-1.86,1.57-.11,.06-.22,.12-.33,.18-.1,.05-.21,.1-.31,.15-.13,.06-.27,.1-.41,.15-.13,.04-.26,.09-.39,.13-.15,.04-.31,.07-.46,.1-.13,.03-.26,.06-.4,.07-.13,.02-.27,.02-.4,.03-2.93,.19-6.5-1.45-10.43-4.79-.01-.01-.03-.02-.04-.04-.33-.28-.66-.57-.99-.87-.07-.07-.14-.13-.22-.2-.29-.27-.58-.55-.87-.83-.08-.08-.15-.15-.23-.22-.36-.36-.72-.72-1.09-1.11l-.51-.54-.02-.02-1.55,1.55-.8,.8,.12,.24,.13,.25c2.59,5,10.11,15.35,11.88,16.67l.07,.04,.06,.03c4.88,2.31,11.61,3.16,18.1,2.56,.23-.02,.46-.05,.7-.08,.37-.04,.74-.08,1.1-.12,2.49-.33,4.86-.88,7.06-1.64,.07-.03,.15-.05,.23-.07,.32-.11,.63-.24,.94-.36,.24-.09,.49-.18,.72-.28l.18-.1c3.8-3.01,9.99-15.2,10.96-19.17l.1-.41-.3-.3c-.27-.27-.93-.93-1.1-1.1l-.53-.54-.54,.54s-.05,.04-.07,.07c-.51,.5-1.01,.98-1.5,1.43-.1,.09-.19,.17-.29,.26-.48,.43-.96,.84-1.42,1.21-.02,.02-.04,.03-.06,.05-3.24,2.58-6.21,3.92-8.72,3.92h0c-.35,0-.68-.03-1-.08-.05,0-.1-.01-.14-.02-.3-.05-.58-.12-.85-.21-.04-.01-.08-.03-.12-.04-.16-.06-.3-.13-.45-.19-.27-.12-.53-.26-.78-.42-.06-.04-.13-.08-.19-.12-.31-.22-.61-.47-.88-.74-.04-.04-.07-.07-.1-.11-.27-.28-.53-.59-.77-.92,0-.01-.02-.03-.03-.04-.19-.27-.35-.57-.52-.87-.18-.34-.35-.69-.5-1.05-.06-.13-.11-.26-.17-.39-.16-.42-.29-.87-.41-1.32-.03-.11-.06-.21-.09-.32-.1-.44-.17-.9-.24-1.36-.02-.14-.05-.28-.07-.43-.03-.27-.03-.55-.05-.83-.02-.32-.05-.64-.05-.97,0-.31,.03-.61,.05-.92,.02-.29,.02-.59,.05-.88,.01-.12,.04-.24,.06-.36,.07-.48,.14-.96,.25-1.43,.02-.09,.05-.17,.07-.25,.12-.48,.26-.94,.43-1.39,.04-.12,.09-.22,.14-.34,.16-.39,.33-.76,.53-1.12,.16-.29,.31-.57,.49-.83,.02-.03,.05-.07,.08-.1,.22-.31,.46-.59,.7-.85,.05-.05,.09-.1,.14-.15,.27-.27,.56-.51,.86-.72,.07-.05,.16-.1,.23-.15,.23-.15,.48-.28,.73-.4,.16-.07,.32-.15,.5-.22,.03,0,.05-.02,.08-.03,.28-.09,.57-.17,.88-.22,.03,0,.07-.01,.11-.02,.32-.05,.66-.08,1.02-.08,2.52,0,5.49,1.34,8.73,3.92,.02,.01,.03,.03,.05,.04,.47,.38,.95,.79,1.43,1.22,.09,.08,.19,.16,.28,.25,.51,.46,1.02,.95,1.54,1.47,.01,.01,.03,.02,.04,.04l.16,.16,.38,.38,.84-.84,1.34-1.33-.53-.53c-.41-.41-.79-.81-1.16-1.21-.08-.09-.16-.18-.24-.27-.28-.31-.56-.62-.82-.92-.09-.1-.18-.21-.27-.31-.31-.37-.6-.73-.88-1.09-.09-.12-.17-.24-.26-.36-.17-.23-.34-.47-.51-.7-.13-.18-.25-.37-.37-.55-.1-.15-.2-.3-.29-.45-.13-.21-.26-.42-.38-.62,0,0,0,0,0,0-.32-.55-.59-1.08-.82-1.6-.02-.04-.04-.08-.06-.12-.11-.26-.21-.51-.31-.76,0-.03-.02-.05-.03-.08-.38-1.06-.59-2.07-.61-3.03,0-.01,0-.02,0-.03,0-.48,.03-.94,.11-1.39,.13-.71,.38-1.35,.7-1.91,.06-.1,.12-.19,.18-.28,.11-.17,.21-.33,.33-.49,.12-.16,.26-.31,.4-.46,.07-.08,.14-.17,.22-.24,.25-.25,.52-.49,.81-.71,.08-.06,.17-.12,.25-.18,.2-.14,.4-.27,.61-.4,.15-.09,.31-.18,.46-.26,.14-.07,.28-.14,.42-.21,.13-.07,.27-.13,.4-.19h.03c3.14-1.39,7.34-1.69,10.97-.78h.03c.93,.24,1.78,.54,2.56,.91,.02,0,.03,.02,.05,.03,.36,.17,.69,.35,1.01,.55,.06,.04,.12,.08,.18,.12,.27,.17,.54,.36,.78,.55,.07,.06,.14,.12,.21,.18,.23,.19,.45,.39,.65,.6,.03,.03,.05,.06,.07,.08,.22,.23,.41,.48,.59,.73,.03,.04,.06,.09,.09,.14,.16,.24,.3,.48,.43,.74,.03,.06,.06,.12,.08,.17,.12,.25,.21,.52,.29,.78,.02,.06,.04,.12,.05,.18,.05,.18,.09,.37,.12,.56,0,.06,.02,.12,.03,.17,.1,.67,.1,1.38,0,2.12,0,.02,0,.04,0,.06-.03,.23-.08,.46-.13,.7-.01,.07-.03,.13-.05,.2-.06,.23-.12,.46-.19,.69-.02,.05-.04,.11-.06,.16-.16,.47-.35,.96-.58,1.46-.02,.05-.04,.1-.07,.15-.1,.2-.21,.41-.32,.62-.07,.14-.15,.28-.23,.43-.11,.19-.22,.38-.33,.57-.11,.18-.22,.36-.34,.54-.11,.17-.22,.34-.33,.51-.23,.34-.47,.68-.73,1.02-.09,.12-.2,.25-.29,.38-.2,.26-.4,.51-.62,.77-.12,.14-.24,.28-.36,.43-.22,.26-.46,.53-.7,.8-.11,.12-.22,.25-.34,.37-.36,.39-.73,.79-1.13,1.19l-.53,.53,.45,.44,1.72,1.72h0s0,0,0,0l.53-.53c.07-.07,.14-.13,.21-.2,.45-.45,.9-.87,1.34-1.28,.12-.11,.23-.21,.35-.31,.46-.41,.92-.8,1.36-1.16,.03-.03,.06-.05,.1-.08,3.23-2.57,6.2-3.91,8.71-3.91,.3,0,.59,.02,.88,.06,.04,0,.08,.01,.12,.02,.24,.04,.47,.09,.69,.15,.04,.01,.08,.02,.12,.03,.22,.06,.43,.15,.63,.23,.35,.15,.68,.33,1,.55,.02,.02,.05,.03,.07,.05,.66,.47,1.26,1.07,1.77,1.8,.01,.02,.02,.04,.04,.05,.48,.68,.87,1.48,1.19,2.35,.05,.13,.1,.26,.14,.4,.12,.37,.23,.75,.32,1.14,.04,.17,.07,.34,.11,.51,.08,.41,.15,.83,.2,1.26,.01,.11,.02,.21,.03,.32,.05,.5,.08,1.01,.08,1.53,0,0,0,0,0,.01,0,0,0,0,0,.01,0,.52-.03,1.03-.08,1.53-.01,.11-.02,.22-.03,.32-.05,.43-.12,.84-.2,1.25-.03,.17-.07,.35-.11,.52-.09,.39-.2,.77-.32,1.13-.04,.14-.1,.27-.15,.41-.32,.87-.71,1.66-1.19,2.34-.01,.02-.02,.04-.04,.05-.51,.73-1.11,1.33-1.77,1.8-.02,.02-.04,.03-.07,.05-.32,.22-.66,.4-1.01,.55-.2,.09-.41,.17-.63,.23-.05,.01-.09,.02-.14,.04-.22,.06-.44,.11-.67,.14-.05,0-.09,.02-.14,.02-.28,.04-.57,.06-.87,.06-2.51,0-5.48-1.34-8.71-3.91-.03-.02-.05-.04-.08-.07-.45-.36-.92-.76-1.38-1.17-.11-.1-.23-.2-.34-.3-.44-.4-.88-.82-1.32-1.25-.08-.08-.15-.15-.23-.23l-.53-.53h0s0,0,0,0l-.45,.46-.08,.08c-.11,.12-.46,.46-.75,.75-.05,.05-.09,.09-.14,.14-.08,.08-.16,.16-.22,.21l-.3,.3,.1,.41c.13,.54,.37,1.2,.68,1.95,0,0,0,0,0,0,.11,.25,.23,.52,.36,.79,.06,.13,.11,.26,.18,.4,.35,.74,.77,1.54,1.22,2.37,.06,.1,.1,.2,.16,.3,.18,.32,.37,.66,.56,.99,.09,.15,.17,.29,.25,.44,2.83,4.83,6.67,10.18,8.88,11.94l.2,.11c3.83,1.47,7.74,2.3,11.72,2.48,.57,.03,1.14,.04,1.71,.04,.32,0,.64-.01,.96-.02,4.03-.1,8.12-.85,12.24-2.25,.24-.08,.48-.15,.72-.24l.2-.11c1.99-1.49,4.26-4.68,6.31-8.14,2.84-4.81,5.26-10.17,5.91-12.36l.13-.43-.31-.32c-.27-.27-.97-.97-1.3-1.3l-.56-.55h0s0,0,0,0l-.53,.59c-.05,.05-.09,.1-.14,.15-.35,.38-.69,.75-1.02,1.1-.16,.16-.31,.33-.47,.49-.22,.22-.43,.43-.64,.63-.44,.44-.89,.86-1.32,1.25,0,0,0,0,0,0-2.92,2.61-5.63,4.17-8.01,4.62,0,0,0,0,0,0-.22,.04-.43,.07-.64,.09-.05,0-.1,0-.14,.01-.17,.01-.34,.02-.51,.03-.06,0-.12,0-.19,0-.25,0-.5-.02-.74-.05-.05,0-.1,0-.14-.02-.25-.04-.5-.1-.73-.17-.08-.02-.16-.05-.24-.08-.13-.05-.26-.1-.39-.15-.14-.06-.28-.12-.42-.19-.07-.03-.13-.07-.19-.11-2.7-1.56-4.13-5.25-4.47-8.87,0-.05,0-.1-.01-.16-.02-.23-.04-.46-.05-.69,0-.18-.01-.36-.01-.54,0-.12,0-.23,0-.35,0-.07,0-.15,0-.22,0-.24,0-.47,.02-.71,.01-.22,.03-.44,.05-.66,0-.06,0-.11,.01-.17,.24-2.53,1.01-5.09,2.37-6.93,.03-.03,.05-.07,.08-.1,.12-.15,.24-.3,.36-.44,.1-.11,.2-.21,.3-.32,.07-.07,.14-.14,.21-.21,.58-.54,1.28-1,2.12-1.3,.02,0,.03-.01,.05-.02,.56-.19,1.18-.3,1.87-.3,.03,0,.06,0,.09,0,.2,0,.41,.01,.62,.03,0,0,.02,0,.03,0,2.9,.29,6.34,2.35,10.08,6.01,.19,.19,.39,.38,.58,.58,.16,.17,.33,.34,.49,.51,.33,.35,.67,.71,1.01,1.09,.05,.05,.1,.1,.14,.16l.53,.59,.53-.53,1.88-1.87h0s0,0,0,0l-.21-.19-.37-.34c-.52-.48-1.01-.95-1.48-1.41-.15-.15-.29-.3-.44-.45-.29-.29-.57-.58-.84-.87-.22-.24-.43-.47-.63-.71-.16-.18-.32-.36-.47-.53-.24-.28-.46-.56-.68-.83-.09-.11-.19-.23-.27-.34-.24-.3-.46-.6-.66-.89-.05-.07-.1-.14-.15-.21-.22-.32-.43-.63-.62-.93-.02-.04-.05-.07-.07-.11-.2-.33-.39-.65-.56-.96,0,0,0-.01-.01-.02-1.19-2.2-1.56-3.99-1.53-5.4,0-.08,0-.15,0-.23,0-.11,.02-.22,.03-.33,.01-.11,.02-.22,.04-.33,.01-.09,.03-.17,.05-.25,.02-.11,.05-.21,.07-.31,.03-.12,.06-.23,.1-.35,.03-.09,.06-.18,.09-.27,.03-.08,.06-.15,.09-.23,.07-.17,.15-.34,.24-.51,.03-.05,.05-.1,.08-.15,1.24-2.2,3.79-3.62,6.64-4.36,.12-.03,.24-.06,.36-.09,.15-.04,.3-.07,.45-.1,2.11-.42,4.38-.5,6.52-.24,.2,.03,.4,.06,.6,.09,.16,.03,.33,.05,.49,.08,2.99,.57,5.8,1.86,7.33,3.97,.02,.03,.04,.06,.06,.09,.11,.16,.22,.33,.32,.5,.04,.07,.08,.14,.11,.21,.07,.14,.14,.29,.2,.44,.04,.09,.08,.19,.12,.28,.02,.06,.04,.13,.06,.19,.05,.14,.09,.29,.13,.44,.02,.08,.04,.16,.06,.24,.02,.11,.04,.21,.06,.32,.01,.08,.02,.16,.03,.24,.02,.13,.03,.27,.04,.41,0,.03,0,.07,0,.11,.06,1.43-.3,3.25-1.52,5.5,0,0,0,0,0,0-.17,.32-.36,.64-.57,.97-.02,.03-.04,.06-.06,.09-.19,.31-.41,.63-.63,.96-.04,.06-.09,.12-.13,.19-.21,.3-.44,.61-.68,.92-.08,.1-.17,.21-.25,.32-.22,.28-.45,.57-.7,.86-.14,.16-.29,.33-.44,.5-.22,.25-.43,.49-.67,.75-.24,.26-.51,.53-.78,.8-.17,.17-.32,.34-.5,.51-.46,.46-.95,.93-1.47,1.41l-.57,.53h0s0,0,0,0l1,1,1.4,1.4h0s0,0,0,0l.53-.59s.06-.06,.09-.09c.37-.41,.73-.79,1.08-1.17,.15-.16,.31-.32,.46-.48,.21-.22,.42-.42,.62-.62,3.72-3.64,7.14-5.69,10.03-5.98,.03,0,.06,0,.09,0,.19-.02,.38-.03,.56-.03,.05,0,.1,0,.14,0,.27,0,.54,.02,.79,.06,.03,0,.06,0,.1,.01,.26,.04,.51,.1,.76,.17,.07,.02,.13,.04,.2,.07,.15,.05,.29,.11,.44,.17,.13,.06,.26,.11,.38,.17,.08,.04,.16,.09,.24,.14,2.47,1.45,3.87,4.69,4.34,8.03v.02c.04,.25,.07,.5,.09,.76,.01,.11,.02,.23,.03,.34,.01,.17,.03,.35,.04,.52,.01,.3,.02,.6,.02,.9,0,0,0,.01,0,.02,0,.3,0,.61-.02,.92,0,.17-.02,.35-.04,.52,0,.11-.02,.22-.03,.34-.02,.26-.05,.51-.09,.77,0,0,0,0,0,0-.47,3.34-1.87,6.6-4.36,8.04-.07,.04-.14,.08-.21,.12-.13,.07-.27,.13-.41,.19-.13,.06-.26,.11-.4,.16-.08,.03-.15,.05-.23,.08-.24,.07-.49,.13-.74,.17-.04,0-.09,0-.13,.01-.24,.03-.49,.05-.75,.05-.06,0-.12,0-.18,0-.17,0-.34-.01-.52-.03-.04,0-.09,0-.14-.01-2.53-.27-5.46-1.87-8.65-4.7-.03-.03-.07-.07-.11-.1-.38-.34-.77-.71-1.16-1.09-.25-.24-.5-.49-.76-.75-.13-.13-.25-.26-.38-.39-.4-.42-.8-.84-1.21-1.31l-.21-.23-.32-.36h0s0,0,0,0l-1.77,1.78-.39,.39h0s0,0,0,0l.13,.43c.11,.37,.29,.87,.51,1.42,.17,.43,.36,.9,.58,1.42,.02,.04,.03,.06,.04,.1,.27,.64,.6,1.34,.94,2.07,2.55,5.43,6.79,12.97,10.14,15.48l.21,.11c.61,.2,1.21,.39,1.81,.57,4.22,1.24,8.26,1.85,12.29,1.85s8.13-.61,12.54-1.85c.63-.18,1.26-.37,1.9-.57h0s.13-.04,.13-.04l.11-.08h0s0,0,0,0c.23-.18,.47-.4,.71-.64,0,0,.02-.02,.03-.02,.12-.12,.25-.27,.38-.41,2.16-2.35,4.75-6.7,6.75-10.69,1.35-2.69,2.42-5.2,2.91-6.82,.06-.21,.13-.41,.17-.59l.1-.4-.29-.3c-.15-.15-.43-.44-.68-.68l-.2-.21-.75-.76-.54,.54s-.03,.02-.04,.04c-.52,.52-1.03,1-1.54,1.46-.1,.09-.19,.17-.28,.25-.48,.43-.96,.84-1.43,1.22-.02,.01-.04,.03-.05,.04-3.24,2.58-6.21,3.92-8.72,3.92-.3,0-.59-.02-.87-.06-.05,0-.1-.02-.15-.02-.23-.03-.45-.08-.66-.14-.05-.01-.1-.02-.15-.04-.22-.06-.42-.14-.63-.23-.35-.15-.69-.33-1.01-.55-.02-.01-.04-.03-.06-.05-.67-.47-1.27-1.08-1.78-1.81,0-.01-.02-.03-.03-.04-.48-.69-.88-1.5-1.2-2.38-.04-.12-.09-.24-.13-.37-.12-.38-.23-.77-.33-1.17-.04-.15-.07-.31-.1-.47-.08-.42-.16-.85-.21-1.3,0-.09-.01-.18-.02-.27-.05-.52-.08-1.04-.08-1.58,0-.02,0-.04,0-.06,0-.64,.04-1.26,.11-1.87,.02-.16,.05-.31,.07-.47,.07-.47,.15-.94,.27-1.38,.04-.16,.09-.31,.13-.47,.12-.43,.26-.84,.42-1.24,.06-.15,.12-.29,.18-.43,.17-.38,.37-.74,.57-1.08,.09-.15,.17-.32,.27-.46,.03-.05,.07-.1,.11-.15,.23-.32,.48-.62,.74-.89,.05-.05,.1-.1,.15-.15,.25-.25,.52-.47,.79-.67,.04-.03,.08-.06,.12-.09,.28-.19,.59-.35,.9-.49,.45-.2,.94-.37,1.49-.46,.03,0,.06-.01,.1-.02,.31-.05,.63-.07,.97-.07,2.51,0,5.49,1.34,8.72,3.92,.02,.01,.04,.03,.05,.04,.47,.38,.95,.79,1.43,1.22,.09,.08,.19,.16,.28,.25,.52,.47,1.04,.97,1.57,1.5,0,0,0,0,0,0l.53,.53h0s0,0,0,0l.45-.45,.08-.08s.06-.06,.16-.16c.23-.23,.65-.65,.94-.94l.27-.27,.26-.26h0s-.52-.53-.52-.53c-.08-.08-.14-.15-.22-.23-.3-.3-.58-.61-.86-.9-.16-.17-.3-.34-.45-.5-.19-.21-.38-.43-.56-.64-.15-.18-.31-.36-.46-.54-.16-.2-.31-.39-.46-.58-.27-.35-.53-.69-.77-1.03-.11-.15-.22-.3-.32-.45-.15-.22-.29-.44-.43-.66-.08-.12-.15-.24-.23-.36-.14-.23-.28-.46-.41-.69-.04-.08-.08-.15-.12-.23-.44-.82-.8-1.63-1.06-2.4,0-.02-.01-.03-.02-.05-.09-.27-.16-.53-.23-.79,0-.01,0-.02,0-.03-.26-1.06-.32-2.06-.19-3,0-.02,0-.05,.01-.07,.03-.23,.08-.45,.13-.66,0,0,0,0,0,0,.11-.41,.25-.78,.42-1.14,.02-.05,.04-.09,.07-.14,.36-.7,.83-1.3,1.36-1.81,.13-.13,.28-.24,.42-.37,.17-.14,.33-.29,.5-.41,.09-.07,.2-.13,.3-.19,1.17-.78,2.43-1.27,3.38-1.55h.03c3.46-1.02,7.62-.9,10.87,.3h0c.36,.14,.71,.29,1.04,.44,.05,.02,.1,.05,.14,.07,.29,.14,.57,.29,.83,.45,.09,.05,.17,.12,.26,.17,.22,.14,.45,.29,.65,.45,.07,.06,.13,.12,.2,.18,1.24,1.02,2.06,2.28,2.37,3.7,.05,.22,.08,.45,.11,.67,0,.01,0,.02,0,.03,.02,.23,.04,.46,.04,.7,0,.01,0,.03,0,.04,0,.97-.19,1.99-.57,3.08,0,.02-.01,.03-.02,.05-.28,.79-.66,1.62-1.14,2.46-.02,.03-.03,.06-.05,.09-.14,.24-.29,.48-.44,.72-.07,.11-.14,.21-.21,.32-.15,.22-.3,.45-.46,.68-.09,.14-.2,.27-.3,.41-.25,.34-.51,.68-.78,1.03-.16,.2-.32,.4-.48,.6-.15,.18-.3,.35-.46,.53-.19,.21-.38,.43-.57,.64-.15,.17-.3,.33-.45,.5-.27,.29-.56,.59-.85,.89-.08,.08-.15,.16-.23,.24l-.44,.45-.08,.08h0s0,0,0,0l1.16,1.16,1.01,1.01h0s0,0,0,0l.05-.05,.48-.48c.05-.05,.1-.09,.15-.14,.47-.47,.95-.92,1.41-1.34,.11-.1,.22-.19,.33-.29,.47-.41,.93-.81,1.39-1.18,.03-.02,.06-.04,.08-.07,3.23-2.57,6.2-3.91,8.71-3.91,.3,0,.6,.02,.88,.06,.04,0,.08,.01,.11,.02,.24,.04,.48,.09,.7,.15,.04,.01,.08,.02,.12,.03,.22,.07,.43,.15,.64,.23,.35,.15,.68,.33,1,.54,.03,.02,.05,.04,.08,.06,.66,.46,1.25,1.07,1.76,1.79,.01,.02,.03,.04,.04,.06,.25,.37,.49,.76,.7,1.18,0,0,0,0,0,0,.18,.36,.34,.75,.48,1.15,.05,.14,.1,.27,.15,.41,.12,.36,.22,.74,.31,1.12,.04,.17,.08,.35,.11,.53,.08,.41,.15,.82,.2,1.24,.01,.11,.02,.22,.03,.34,.04,.49,.08,.99,.08,1.5,0,0,0,.02,0,.03,0,.01,0,.02,0,.03,0,.51-.03,1.01-.08,1.5-.01,.11-.02,.23-.03,.34-.05,.42-.12,.83-.2,1.24-.04,.18-.07,.36-.11,.53-.09,.38-.19,.76-.31,1.12-.05,.14-.1,.28-.15,.42-.15,.4-.3,.79-.48,1.15,0,0,0,0,0,0-.21,.42-.45,.81-.7,1.18-.01,.02-.03,.04-.04,.06-.51,.73-1.11,1.33-1.77,1.8-.02,.02-.04,.03-.07,.05-.32,.22-.66,.4-1.01,.55-.2,.09-.41,.16-.62,.23-.05,.01-.1,.03-.15,.04-.21,.06-.43,.1-.66,.14-.05,0-.1,.02-.15,.02-.28,.04-.57,.06-.87,.06-2.51,0-5.48-1.34-8.71-3.91-.03-.02-.06-.05-.09-.07-.45-.36-.92-.76-1.38-1.17-.11-.1-.22-.19-.33-.3-.45-.41-.91-.85-1.38-1.31-.06-.06-.12-.11-.18-.18l-.54-.54-.45,.47-.08,.08c-.17,.17-1.1,1.1-1.1,1.1l-.3,.3,.1,.41c.08,.33,.21,.73,.36,1.17,.5,1.46,1.35,3.43,2.39,5.56,2.39,4.88,5.78,10.53,8.21,12.45l.18,.11c.55,.22,1.11,.43,1.68,.63,8.66,3.01,18.61,2.8,26.97-.63l.16-.09c.21-.15,.49-.44,.84-.81,2.62-2.84,8.76-11.44,11.04-15.86l.25-.49-2.05-2.05-.3-.3h0s0,0,0,0l-.22,.23-.31,.33c-.37,.39-.73,.76-1.1,1.12-.06,.06-.13,.12-.19,.18-.31,.31-.62,.6-.93,.89-.05,.05-.1,.09-.15,.14-4.23,3.87-8.09,5.84-11.24,5.74-.26,0-.51-.03-.75-.06-.12-.02-.23-.04-.35-.06-.21-.04-.42-.09-.62-.16-.1-.03-.2-.06-.3-.1-.27-.1-.53-.21-.77-.33-.02,0-.03-.02-.05-.03-.22-.12-.43-.26-.64-.4-.08-.06-.16-.12-.24-.18-.14-.11-.27-.22-.39-.33-.08-.07-.15-.13-.23-.21-.15-.15-.3-.31-.43-.46-.03-.03-.06-.06-.09-.1-.17-.21-.33-.42-.48-.63-.02-.02-.03-.05-.05-.07-.13-.2-.26-.4-.37-.59-.59-1.02-1.04-2.19-1.33-3.44,0,0,0,0,0,0-.14-.58-.24-1.18-.31-1.79,0-.07-.02-.13-.03-.2-.06-.53-.08-1.07-.09-1.61,0-.09,0-.17,0-.26,0-.11,0-.22,0-.33,0-.53,.03-1.06,.09-1.59,0-.07,.02-.14,.03-.2,.23-1.9,.78-3.72,1.65-5.23,.36-.62,.84-1.29,1.45-1.89,.05-.05,.1-.09,.15-.14,.15-.14,.31-.28,.48-.4,.06-.05,.12-.09,.18-.14,.45-.33,.97-.6,1.54-.81,.04-.02,.09-.03,.13-.05,.29-.1,.59-.17,.91-.23,.04,0,.07,0,.11-.02,.34-.05,.69-.09,1.06-.09,2.77,0,6.06,1.56,9.65,4.55,0,0,.02,.01,.03,.02,.42,.35,.84,.72,1.27,1.11,.24,.22,.48,.44,.72,.67,.14,.14,.29,.28,.43,.42,.41,.4,.82,.81,1.24,1.25l.53,.55,.4-.4,2.02-2.02-.39-.52c-.37-.5-.72-.98-1.04-1.47-.06-.09-.12-.18-.17-.26-.3-.46-.59-.91-.84-1.35-.01-.02-.03-.04-.04-.06-.28-.49-.54-.97-.77-1.44-.02-.04-.04-.08-.06-.12-.2-.42-.38-.84-.54-1.25-.02-.06-.05-.12-.07-.18-.17-.44-.31-.88-.43-1.31,0-.03-.01-.05-.02-.07-.1-.38-.18-.74-.24-1.11-.02-.1-.03-.2-.05-.31-.05-.34-.08-.67-.09-.99,0-.05,0-.1,0-.15,0-.35,.02-.68,.05-1.01,.14-1.29,.61-2.45,1.41-3.44,.63-.77,1.44-1.42,2.38-1.94l.55-.26c3.06-1.45,7.38-1.7,11.83-.7l.61,.14c1.45,.36,2.91,.86,4.34,1.49-3.47,9.92-12.88,48.29-15.24,62.23Z" style="fill:#e00034" id="Rød"/><path class="cls-3" d="M1.42,196.69v.75c.17,81.83,4.69,148.64,26.23,208.69,23.68,66.05,66.19,118.11,133.78,163.81l.42,.29,.42-.29c67.29-45.73,109.69-97.83,133.45-163.95,21.71-60.41,26.28-127.06,26.47-208.54v-.75S1.42,196.69,1.42,196.69Z" id="Blått_skjold" data-name="Blått skjold"/><g id="Hvit"><path class="cls-1" d="M202.54,481.79l-.02-11.3-36.09,2.81s-2.07,.16-4.63,.16-4.63-.16-4.63-.16l-36.09-2.81-.02,11.3,36.11-2v51.27c-2.96,1.63-4.96,4.78-4.96,8.4,0,5.3,4.29,9.59,9.59,9.59s9.59-4.29,9.59-9.59c0-3.62-2-6.76-4.96-8.4v-51.27l36.1,2Z"/><path class="cls-1" d="M248.48,371.72c-4.88-9.58-11.03-19.5-18.27-29.45,7.22-9.95,13.34-19.85,18.19-29.42,13.77,5.33,23.72,11.77,28.99,18.5,2.4-1.92,5.44-3.08,8.75-3.08-5.88-8.94-17.44-16.98-33.95-23.42,7.11-16.19,9.58-30.02,7.44-40.49-2.28,2.26-5.2,3.64-8.36,3.98,1.02,8.48-1.49,20.02-7.5,33.52-17.48-5.71-38.34-9.44-60.72-10.89-1.53-1.34-3.06-2.65-4.59-3.94-.43-4.25-.95-8.51-1.55-12.79,22-14.39,41.5-21.65,54.94-21.65,1.36,0,2.65,.09,3.88,.24,.34-3.15,1.72-6.08,3.98-8.36-2.42-.5-5-.77-7.77-.77-9.43,0-20.79,2.87-33.61,8.6-7.43,3.32-15.12,7.49-22.92,12.4-2.88-16.98-7.11-34.44-12.82-52.94l-.81-2.62-.81,2.62c-5.71,18.5-9.94,35.96-12.82,52.94-7.8-4.9-15.49-9.08-22.92-12.4-12.82-5.73-24.18-8.6-33.61-8.6-2.77,0-5.36,.28-7.78,.77,2.26,2.28,3.64,5.2,3.98,8.35,1.22-.15,2.48-.24,3.82-.24,8.05,0,18.28,2.63,29.95,7.85,8.08,3.61,16.51,8.31,25.06,13.9-.6,4.26-1.11,8.49-1.54,12.71-1.53,1.29-3.05,2.59-4.57,3.93-22.42,1.44-43.33,5.16-60.85,10.86-5.94-13.46-8.39-24.99-7.37-33.46-3.16-.34-6.08-1.72-8.37-3.98-2.13,10.45,.33,24.24,7.4,40.39-16.56,6.42-28.16,14.46-34.09,23.39,.05,0,.1,0,.15,0,3.27,0,6.28,1.13,8.67,3.01,5.34-6.69,15.3-13.1,29.05-18.39,4.86,9.59,11,19.53,18.23,29.5-7.26,9.98-13.43,19.93-18.31,29.53-13.78-5.31-23.75-11.74-29.05-18.46-2.38,1.85-5.36,2.96-8.6,2.96-.09,0-.17-.01-.26-.01,5.89,8.98,17.5,17.06,34.11,23.51-7.13,16.2-9.62,30.03-7.51,40.52,.03-.03,.05-.06,.08-.09,2.26-2.26,5.16-3.65,8.28-4.01-.96-8.49,1.53-20.02,7.49-33.46,17.53,5.72,38.46,9.45,60.91,10.89,.99,.87,1.98,1.73,2.98,2.58v16.14c-7.52,4.75-14.93,8.79-22.07,11.99-11.67,5.21-21.89,7.85-29.95,7.85-1.31,0-2.54-.09-3.73-.23-.39,3.08-1.77,5.94-4,8.17-.05,.05-.11,.1-.17,.15,2.45,.51,5.07,.79,7.87,.79,9.43,0,20.79-2.87,33.61-8.6,6-2.68,12.17-5.92,18.44-9.65v48.57l13.6,1.06c.09,0,2.3,.17,4.69,.17s4.6-.16,4.7-.17l13.6-1.06v-48.57c6.26,3.73,12.43,6.97,18.44,9.65,12.82,5.73,24.18,8.6,33.61,8.6,2.76,0,5.34-.28,7.76-.77-.04-.04-.09-.08-.14-.12-2.24-2.24-3.62-5.11-4-8.21-1.16,.13-2.37,.22-3.64,.22-8.06,0-18.28-2.63-29.95-7.85-7.14-3.19-14.55-7.24-22.07-11.99v-16.14c1-.86,2-1.72,3-2.6,22.44-1.46,43.35-5.21,60.86-10.94,6,13.5,8.5,25.08,7.52,33.6,3.1,.38,5.97,1.76,8.21,4,.05,.05,.09,.1,.14,.15,2.16-10.52-.34-24.43-7.52-40.72,16.41-6.41,27.92-14.41,33.81-23.3-3.31-.02-6.34-1.18-8.74-3.11-5.27,6.7-15.18,13.11-28.88,18.42Zm-8.55-61.85c-4.19,8.12-9.36,16.5-15.35,24.95-7.71-9.88-16.4-19.73-25.9-29.22-1.64-1.64-3.3-3.26-4.96-4.85,17.69,1.78,33.27,4.99,46.21,9.13Zm-156.38-.04c12.98-4.13,28.61-7.34,46.36-9.12-1.67,1.6-3.34,3.23-4.99,4.88-9.51,9.51-18.22,19.38-25.95,29.28-6.22-8.73-11.36-17.15-15.43-25.05Zm-.07,64.92c4.08-7.91,9.25-16.34,15.49-25.09,7.77,9.99,16.54,19.93,26.13,29.52,1.59,1.59,3.19,3.16,4.8,4.7-17.78-1.78-33.43-4.99-46.42-9.14Zm47.92-1.87c-10.34-10.34-19.31-20.63-26.95-30.61,7.61-9.9,16.52-20.12,26.77-30.38,4.31-4.31,8.6-8.36,12.88-12.2-.4,6.49-.59,12.97-.59,19.46v64.81c-4.08-3.68-8.13-7.11-12.11-11.09Zm48.7,11.33v-65.05c0-6.49-.2-12.96-.59-19.45,4.34,3.89,8.64,7.96,12.88,12.19,10.25,10.25,19.15,20.45,26.75,30.34-7.9,10.34-16.95,20.67-26.92,30.64-3.98,3.98-8.03,7.65-12.11,11.33Zm13.64-.35c1.6-1.54,3.19-3.09,4.77-4.67,9.59-9.59,18.37-19.54,26.13-29.52,6.22,8.72,11.37,17.13,15.45,25.02-12.97,4.16-28.6,7.38-46.36,9.17Z"/><path class="cls-1" d="M289.34 330.37c-.35-.09-.71-.17-1.07-.23-.34-.06-.69-.11-1.04-.14-.35-.03-.69-.05-1.05-.05-2.95 0-5.65 1.03-7.77 2.75-.21.17-.41.36-.61.54-.22.21-.44.42-.65.64-2.07 2.21-3.35 5.18-3.35 8.45s1.26 6.21 3.32 8.42c.21.22.42.44.65.65.2.19.4.37.61.55 2.13 1.73 4.85 2.78 7.81 2.78.34 0 .67-.02 1-.05.35-.03.7-.07 1.04-.13.37-.06.72-.14 1.08-.23 5.33-1.38 9.27-6.21 9.27-11.98s-3.92-10.57-9.23-11.96ZM45.02 351.99c.23-.18.46-.37.68-.57.21-.19.41-.38.61-.58 2.17-2.23 3.51-5.27 3.51-8.62s-1.32-6.33-3.45-8.56c-.19-.2-.4-.39-.6-.58-.22-.2-.44-.39-.67-.58-2.11-1.66-4.77-2.67-7.66-2.67-.42 0-.83.02-1.23.06-.36.04-.71.09-1.06.16-.37.07-.73.16-1.09.26-5.2 1.47-9.01 6.24-9.01 11.91s3.77 10.38 8.92 11.88c.36.1.72.19 1.08.27.35.07.7.12 1.05.16.44.05.88.07 1.33.07 2.87 0 5.5-.98 7.59-2.62ZM63.8 261.56c.2.28.41.55.64.82.21.25.43.5.66.73 2.09 2.09 4.74 3.27 7.47 3.56.27.03.55.04.82.05.15 0 .31.02.46.02s.3-.02.46-.02c3.02-.11 6-1.3 8.3-3.61 2.31-2.31 3.51-5.32 3.61-8.35 0-.29 0-.57 0-.86 0-.28-.02-.56-.05-.85-.28-2.73-1.47-5.38-3.56-7.46-.24-.24-.49-.46-.75-.68-.27-.23-.54-.44-.83-.64-.3-.22-.61-.42-.93-.6-1.93-1.13-4.09-1.71-6.25-1.71-3.17 0-6.34 1.21-8.76 3.63-4.08 4.08-4.7 10.3-1.9 15.05.19.31.39.62.6.92ZM259.96 423.28c-.2-.29-.4-.58-.63-.85-.27-.33-.55-.65-.86-.95-2.03-2.03-4.59-3.2-7.24-3.52-.3-.04-.59-.06-.89-.07-.21-.01-.42-.03-.63-.03-.07 0-.14 0-.21 0-3.1.05-6.18 1.25-8.55 3.62-2.37 2.37-3.57 5.46-3.62 8.56 0 .29 0 .57.02.86.01.28.04.56.07.84.32 2.65 1.49 5.22 3.53 7.26.3.3.62.59.94.85.28.23.57.43.86.63.31.21.64.41.96.59 1.86 1.03 3.92 1.55 5.99 1.55 3.17 0 6.34-1.21 8.76-3.63 4-4 4.68-10.04 2.07-14.75-.18-.33-.38-.65-.59-.96ZM237.38 253.92c0 .29 0 .57 0 .86.1 3.02 1.3 6.02 3.61 8.33 2.32 2.32 5.33 3.51 8.37 3.61.13 0 .26.02.39.02.15 0 .31-.02.46-.02.28-.01.56-.02.84-.05 2.72-.29 5.37-1.47 7.46-3.55.24-.24.45-.49.67-.74.23-.27.44-.54.64-.82.22-.3.42-.61.6-.92 2.8-4.75 2.18-10.96-1.9-15.04-2.42-2.42-5.59-3.63-8.76-3.63-2.17 0-4.33.58-6.26 1.71-.32.19-.63.39-.93.6-.28.2-.56.41-.83.64-.25.22-.51.43-.74.67-2.09 2.09-3.28 4.75-3.56 7.49-.03.28-.04.56-.05.85ZM86.16 430.88c.02-.28.03-.57.03-.85-.04-3.12-1.24-6.22-3.62-8.6-2.35-2.35-5.4-3.55-8.48-3.61-.09 0-.19-.01-.28-.01-.19 0-.38.02-.56.03-.3.01-.59.03-.89.07-2.67.31-5.26 1.48-7.3 3.53-.29.29-.55.59-.81.89-.23.27-.43.56-.63.84-.21.31-.41.63-.59.95-2.66 4.72-1.99 10.81 2.03 14.83 2.42 2.42 5.59 3.63 8.76 3.63 2.06 0 4.11-.52 5.96-1.53.33-.18.65-.38.97-.59.29-.2.58-.41.86-.63.34-.27.66-.56.97-.87 2.03-2.03 3.19-4.58 3.52-7.22.03-.28.06-.56.07-.84Z"/></g><g id="Blått_symbol" data-name="Blått symbol"><path class="cls-3" d="M198.51 379.18c-1.58 1.58-3.17 3.14-4.77 4.67 17.76-1.79 33.39-5.02 46.36-9.17-4.08-7.89-9.23-16.3-15.45-25.02-7.77 9.99-16.54 19.93-26.13 29.52Zm-.07 2.46c.43-.42.85-.84 1.27-1.26 8.96-8.96 17.31-18.33 24.87-27.88 5.03 7.19 9.42 14.3 13.08 21.18-11.72 3.6-24.88 6.27-39.22 7.97ZM124.92 305.59c1.65-1.65 3.32-3.27 4.99-4.88-17.75 1.77-33.38 4.98-46.36 9.12 4.06 7.89 9.21 16.31 15.43 25.05 7.72-9.91 16.43-19.77 25.95-29.28Zm.28-2.67c-.5.5-1 .99-1.48 1.47-8.88 8.88-17.17 18.17-24.68 27.65-5.04-7.21-9.42-14.33-13.06-21.2 11.73-3.58 24.89-6.24 39.22-7.92ZM239.93 309.86c-12.94-4.13-28.52-7.34-46.21-9.13 1.66 1.59 3.32 3.21 4.96 4.85 9.5 9.49 18.19 19.34 25.9 29.22 5.99-8.44 11.16-16.82 15.35-24.95Zm-40.05-5.47c-.47-.47-.95-.95-1.45-1.44 14.27 1.68 27.38 4.34 39.06 7.92-3.64 6.84-7.99 13.93-12.99 21.1-7.49-9.45-15.76-18.72-24.63-27.58ZM98.96 349.65c-6.24 8.75-11.4 17.18-15.49 25.09 13 4.14 28.64 7.36 46.42 9.14-1.61-1.55-3.21-3.11-4.8-4.7-9.59-9.59-18.36-19.54-26.13-29.52Zm-13.05 24.08c3.67-6.9 8.07-14.03 13.12-21.24 7.55 9.56 15.91 18.93 24.87 27.89.43.43.86.86 1.3 1.29-14.35-1.68-27.54-4.34-39.29-7.94ZM155.04 394.26c2.25 1.83 4.5 3.62 6.76 5.35 2.26-1.73 4.51-3.52 6.77-5.36-2.29.05-4.58.08-6.89.08s-4.43-.02-6.64-.07Zm6.76 3.38-2.15-1.8h4.3s-2.15 1.8-2.15 1.8Z"/><path class="cls-3" d="M288.25,328.43c-5.69-9.38-17.2-17.8-33.8-24.51,6.97-16.45,9.16-30.51,6.57-41.16,1.81-2.42,2.81-5.33,2.81-8.41,0-3.76-1.46-7.3-4.12-9.95-2.66-2.66-6.19-4.12-9.95-4.12-3.06,0-5.97,.99-8.38,2.79-2.88-.7-6.01-1.07-9.39-1.07-9.78,0-21.32,2.94-34.3,8.75-7.06,3.16-14.34,7.06-21.77,11.65-.13-.75-.25-1.49-.39-2.24-.82-4.47-1.72-8.97-2.73-13.52-1.51-6.82-3.23-13.75-5.18-20.82-1.3-4.71-2.69-9.48-4.18-14.32l-1.62-5.25-1.62,5.25c-5.48,17.76-9.6,34.56-12.48,50.9-7.43-4.6-14.71-8.5-21.77-11.65-12.98-5.8-24.52-8.75-34.3-8.75-3.39,0-6.53,.37-9.41,1.07-2.41-1.8-5.32-2.78-8.38-2.78-3.76,0-7.3,1.46-9.96,4.12-5,5-5.43,12.86-1.31,18.37-2.58,10.62-.41,24.65,6.53,41.06-16.67,6.71-28.23,15.13-33.96,24.52-6.69,1.09-11.81,6.89-11.81,13.88s5.07,12.73,11.71,13.86c5.68,9.44,17.26,17.91,33.97,24.64-7.01,16.48-9.21,30.57-6.63,41.23-1.73,2.38-2.67,5.23-2.67,8.23,0,3.76,1.46,7.3,4.12,9.95,2.66,2.66,6.19,4.12,9.96,4.12,2.95,0,5.75-.91,8.11-2.58,2.92,.73,6.1,1.1,9.55,1.1,9.78,0,21.32-2.94,34.3-8.75,5.51-2.46,11.15-5.39,16.9-8.74v46.84l1.56,.18,12.82,.94c.1,0,2.34,.17,4.76,.17s4.66-.16,4.75-.17l12.82-1,1.56-.12v-46.84c5.74,3.35,11.39,6.27,16.9,8.74,12.98,5.8,24.52,8.75,34.3,8.75,3.4,0,6.54-.37,9.43-1.08,2.37,1.69,5.18,2.61,8.15,2.61,3.76,0,7.3-1.46,9.95-4.12,2.66-2.66,4.12-6.19,4.12-9.95,0-2.97-.93-5.79-2.62-8.16,2.63-10.7,.42-24.86-6.64-41.44,16.5-6.68,27.96-15.06,33.65-24.39,6.81-.98,12.07-6.84,12.07-13.92s-5.23-12.9-12.01-13.91Zm-46.52-83.51c.27-.23,.54-.44,.83-.64,.3-.22,.61-.42,.93-.6,1.93-1.13,4.09-1.71,6.26-1.71,3.17,0,6.34,1.21,8.76,3.63,4.08,4.08,4.7,10.29,1.9,15.04-.19,.31-.39,.62-.6,.92-.2,.28-.41,.55-.64,.82-.21,.25-.43,.5-.67,.74-2.09,2.09-4.73,3.27-7.46,3.55-.28,.03-.56,.04-.84,.05-.15,0-.31,.02-.46,.02-.13,0-.26-.01-.39-.02-3.04-.1-6.05-1.29-8.37-3.61-2.31-2.31-3.5-5.3-3.61-8.33,0-.29,0-.57,0-.86,0-.28,.02-.56,.05-.85,.28-2.73,1.46-5.39,3.56-7.49,.24-.24,.49-.46,.74-.67Zm1.12,54.86c-17.06-5.41-37.45-9.02-59.1-10.46-1.52-1.33-3.06-2.64-4.6-3.94-.19-1.78-.38-3.55-.6-5.34-.18-1.49-.39-2.98-.59-4.47,20.82-13.6,40.15-21.3,53.91-21.3,1.35,0,2.61,.09,3.8,.23,.04,3.7,1.49,7.18,4.12,9.8,2.63,2.63,6.12,4.09,9.84,4.12,.99,7.83-1.28,18.62-6.77,31.36Zm-44.5-47.5c12.82-5.73,24.18-8.6,33.61-8.6,2.77,0,5.35,.28,7.77,.77-2.26,2.29-3.64,5.21-3.98,8.36-1.23-.15-2.52-.24-3.88-.24-13.29,0-32.48,7.08-54.16,21.13-.45-3.16-.96-6.33-1.5-9.52,7.53-4.69,14.96-8.7,22.15-11.91Zm-49.41,12.9c.1-.6,.2-1.21,.3-1.82,1.2-6.92,2.58-13.7,4.12-20.33,1.49-6.41,3.11-12.69,4.84-18.86,1.15-4.11,2.35-8.17,3.59-12.18,1.24,4.01,2.44,8.07,3.59,12.18,1.73,6.17,3.36,12.45,4.84,18.86,1.54,6.64,2.92,13.41,4.12,20.34,.1,.6,.2,1.21,.3,1.82,.53,3.16,1.03,6.35,1.47,9.58,.09,.61,.18,1.22,.26,1.84,.32,2.39,.61,4.79,.88,7.21,.09,.8,.16,1.61,.25,2.41,.46,4.41,.83,8.87,1.11,13.4,.03,.56,.07,1.13,.1,1.7,.33,5.85,.52,11.79,.52,17.85v63.7c-.16,.14-.31,.29-.47,.44-5.64,.29-11.39,.44-17.1,.44s-11.28-.14-16.83-.43c-.16-.15-.32-.3-.49-.45v-63.7c0-6.06,.19-12.01,.52-17.86,.03-.57,.06-1.13,.1-1.7,.28-4.52,.65-8.98,1.11-13.38,.08-.8,.16-1.61,.25-2.41,.27-2.39,.55-4.76,.87-7.12,.08-.62,.17-1.23,.26-1.85,.45-3.25,.95-6.47,1.49-9.66Zm-9.07,24.12c-21.7,1.43-42.12,5.03-59.23,10.44-5.36-12.55-7.58-23.42-6.6-31.31,3.69-.05,7.15-1.5,9.76-4.11,2.63-2.63,4.08-6.11,4.12-9.82,1.18-.15,2.42-.23,3.74-.23,7.87,0,17.99,2.66,29.26,7.7,7.91,3.54,16.2,8.14,24.71,13.7-.44,3.25-.84,6.49-1.18,9.71-1.53,1.29-3.06,2.59-4.58,3.92Zm-48.24-45.61c9.43,0,20.79,2.87,33.61,8.6,7.18,3.21,14.61,7.22,22.14,11.91-.53,3.1-1.03,6.19-1.47,9.26-.02,.11-.03,.23-.05,.34-8.28-5.36-16.44-9.87-24.27-13.38-11.67-5.22-21.89-7.85-29.95-7.85-1.34,0-2.61,.09-3.82,.24-.34-3.15-1.72-6.07-3.98-8.35,2.42-.5,5.01-.77,7.78-.77Zm-26.54,1.92c2.42-2.42,5.59-3.63,8.76-3.63,2.17,0,4.33,.58,6.25,1.71,.32,.19,.63,.39,.93,.6,.28,.2,.56,.41,.83,.64,.25,.22,.51,.44,.75,.68,2.09,2.09,3.27,4.74,3.56,7.46,.03,.28,.04,.56,.05,.85,.01,.29,.01,.57,0,.86-.1,3.03-1.29,6.03-3.61,8.35-2.3,2.3-5.29,3.5-8.3,3.61-.15,0-.3,.02-.46,.02s-.31-.02-.46-.02c-.27-.01-.55-.02-.82-.05-2.73-.28-5.38-1.47-7.47-3.56-.24-.24-.45-.48-.66-.73-.23-.26-.44-.54-.64-.82-.22-.3-.42-.61-.6-.92-2.81-4.75-2.18-10.97,1.9-15.05Zm-30.05,108.78c-.37-.07-.73-.16-1.08-.27-5.15-1.5-8.92-6.25-8.92-11.88s3.81-10.43,9.01-11.91c.36-.1,.72-.19,1.09-.26,.35-.07,.7-.12,1.06-.16,.41-.04,.82-.06,1.23-.06,2.9,0,5.55,1,7.66,2.67,.23,.18,.46,.38,.67,.58,.21,.19,.41,.38,.6,.58,2.13,2.22,3.45,5.24,3.45,8.56s-1.34,6.39-3.51,8.62c-.19,.2-.4,.39-.61,.58-.22,.2-.45,.39-.68,.57-2.1,1.63-4.73,2.62-7.59,2.62-.45,0-.89-.03-1.33-.07-.36-.04-.71-.09-1.05-.16Zm12.34-22.09c4.96-6.24,14.28-12.33,26.96-17.38,4.62,8.94,10.32,18.13,16.95,27.36-6.67,9.25-12.39,18.46-17.03,27.4-12.7-5.07-22.02-11.18-26.96-17.44,2.58-2.55,4.19-6.09,4.19-10.01s-1.58-7.39-4.12-9.94Zm34.2,107.54c-.28,.23-.57,.43-.86,.63-.32,.21-.64,.41-.97,.59-1.85,1.02-3.9,1.53-5.96,1.53-3.17,0-6.34-1.21-8.76-3.63-4.02-4.02-4.69-10.11-2.03-14.83,.18-.32,.38-.64,.59-.95,.2-.29,.4-.57,.63-.84,.25-.31,.52-.61,.81-.89,2.05-2.05,4.64-3.22,7.3-3.53,.3-.03,.59-.05,.89-.07,.19,0,.38-.03,.56-.03,.09,0,.19,.01,.28,.01,3.08,.07,6.13,1.27,8.48,3.61,2.38,2.38,3.58,5.48,3.62,8.6,0,.29,0,.57-.03,.85-.02,.28-.04,.56-.07,.84-.33,2.64-1.49,5.2-3.52,7.22-.31,.31-.64,.6-.97,.87Zm2.17-19.59c-2.65-2.65-6.17-4.11-9.92-4.12-.91-7.91,1.35-18.76,6.72-31.28,17.12,5.42,37.56,9.03,59.29,10.46,.93,.82,1.87,1.63,2.81,2.43v13.18c-7.53,4.76-14.87,8.75-21.92,11.9-11.27,5.04-21.39,7.7-29.26,7.7-1.27,0-2.47-.08-3.61-.22,0-.03,0-.07,0-.1,0-3.76-1.46-7.3-4.12-9.95Zm95.49,50.39l-12.82,1s-2.24,.16-4.63,.16-4.63-.16-4.63-.16l-12.82-1v-46.32c5.73-3.41,11.56-7.24,17.45-11.48,5.89,4.24,11.71,8.07,17.45,11.48v46.32Zm79.23-31.62c-2.42,2.42-5.59,3.63-8.76,3.63-2.07,0-4.13-.52-5.99-1.55-.33-.18-.65-.38-.96-.59-.29-.2-.58-.4-.86-.63-.33-.27-.64-.55-.94-.85-2.04-2.04-3.2-4.61-3.53-7.26-.03-.28-.06-.56-.07-.84-.02-.29-.03-.57-.02-.86,.05-3.1,1.25-6.19,3.62-8.56,2.37-2.37,5.45-3.57,8.55-3.62,.07,0,.14,0,.21,0,.21,0,.42,.02,.63,.03,.3,.02,.59,.04,.89,.07,2.65,.33,5.21,1.49,7.24,3.52,.31,.31,.59,.62,.86,.95,.22,.28,.43,.56,.63,.85,.21,.31,.41,.63,.59,.96,2.61,4.71,1.93,10.76-2.07,14.75Zm-22.83-8.7c-1.12,.13-2.28,.21-3.53,.21-7.87,0-17.99-2.66-29.26-7.7-7.04-3.15-14.38-7.14-21.92-11.9v-13.18c.95-.81,1.89-1.63,2.83-2.45,21.71-1.45,42.14-5.08,59.24-10.51,5.41,12.57,7.67,23.47,6.75,31.4-.01,0-.03,0-.04,0-3.76,0-7.3,1.46-9.96,4.12s-4.12,6.19-4.12,9.95c0,.02,0,.04,0,.06Zm16.65-50.58c7.18,16.3,9.68,30.2,7.52,40.72-.05-.05-.09-.1-.14-.15-2.24-2.24-5.11-3.62-8.21-4,.98-8.51-1.52-20.09-7.52-33.6-17.51,5.74-38.42,9.48-60.86,10.94-.67,.59-1.34,1.17-2.02,1.75h0s-.07,.06-.07,.06c-.02,.02-.04,.03-.06,.05h0s-1.7,1.46-1.7,1.46h0s-.05,.04-.07,.06l-.13,.11h0c-3.25,2.76-6.52,5.43-9.79,7.98,3.33,2.37,6.65,4.59,9.96,6.7l1.82,1.15c7.2,4.49,14.3,8.34,21.14,11.4,11.67,5.22,21.89,7.85,29.95,7.85,1.27,0,2.48-.08,3.64-.22,.38,3.1,1.76,5.97,4,8.21,.04,.04,.09,.08,.14,.12-2.42,.49-4.99,.77-7.76,.77-9.43,0-20.79-2.87-33.61-8.6-5.68-2.54-11.51-5.58-17.42-9.06h0s-.1-.06-.1-.06c-.02-.01-.05-.03-.07-.04h0s-1.7-1.02-1.7-1.02h0s-.02-.01-.03-.02l-.14-.08h0c-5.71-3.44-11.48-7.27-17.27-11.48-5.75,4.18-11.48,7.98-17.15,11.4h0s-.22,.14-.22,.14c-.03,.02-.05,.03-.08,.05h0s-1.7,1.01-1.7,1.01h0c-.06,.04-.11,.07-.16,.1l-.24,.14h0c-5.83,3.41-11.59,6.41-17.19,8.92-12.81,5.73-24.18,8.6-33.61,8.6-2.81,0-5.42-.28-7.87-.79,.06-.05,.11-.1,.17-.15,2.23-2.23,3.61-5.09,4-8.17,1.19,.14,2.42,.23,3.73,.23,8.06,0,18.28-2.63,29.95-7.85,6.81-3.04,13.85-6.86,21.01-11.32l1.99-1.26c3.29-2.1,6.59-4.31,9.91-6.67-3.28-2.56-6.55-5.23-9.8-7.99h0s-.12-.1-.12-.1c-.02-.02-.05-.04-.07-.06h0s-1.7-1.46-1.7-1.46h0s-.08-.07-.12-.1l-.16-.14h0c-.62-.53-1.24-1.07-1.86-1.61-22.45-1.44-43.38-5.17-60.91-10.89-5.96,13.44-8.45,24.97-7.49,33.46-3.13,.37-6.02,1.75-8.28,4.01-.03,.03-.05,.06-.08,.09-2.11-10.49,.38-24.32,7.51-40.52-16.61-6.46-28.22-14.53-34.11-23.51,.09,0,.17,.01,.26,.01,3.24,0,6.22-1.11,8.6-2.96,5.31,6.72,15.27,13.14,29.05,18.46,4.88-9.61,11.05-19.55,18.31-29.53-7.24-9.97-13.38-19.9-18.23-29.5-13.75,5.29-23.71,11.7-29.05,18.39-2.39-1.88-5.4-3.01-8.67-3.01-.05,0-.1,0-.15,0,5.93-8.93,17.54-16.97,34.09-23.39-7.07-16.15-9.53-29.94-7.4-40.39,2.29,2.26,5.21,3.64,8.37,3.98-1.02,8.47,1.43,20,7.37,33.46,17.52-5.71,38.43-9.43,60.85-10.86,1.21-1.06,2.43-2.11,3.65-3.15-.42,4.25-.75,8.48-1,12.7-3.98,3.6-7.98,7.39-11.99,11.39-10.26,10.26-19.17,20.47-26.77,30.38,7.64,9.97,16.61,20.27,26.95,30.61,3.43,3.43,6.9,6.74,10.4,9.94,.55,.5,1.13,.97,1.73,1.41l1.03,.75c5.54,.29,11.25,.44,17.12,.44s11.89-.16,17.57-.46l1.19-.95c.34-.27,.67-.55,.99-.85,3.63-3.31,7.23-6.73,10.78-10.28,9.97-9.97,19.03-20.3,26.92-30.64-7.6-9.89-16.5-20.09-26.75-30.34-3.94-3.94-7.95-7.74-11.99-11.38-.14-2.46-.31-4.92-.51-7.38-.14-1.77-.31-3.55-.49-5.33,1.23,1.04,2.45,2.1,3.67,3.17,22.38,1.45,43.24,5.18,60.72,10.89,6-13.5,8.51-25.04,7.5-33.52,3.15-.34,6.07-1.72,8.36-3.98,2.14,10.47-.33,24.3-7.44,40.49,16.51,6.44,28.07,14.48,33.95,23.42-3.31,0-6.35,1.16-8.75,3.08-5.27-6.73-15.22-13.17-28.99-18.5-4.85,9.57-10.98,19.47-18.19,29.42,7.24,9.95,13.39,19.87,18.27,29.45,13.7-5.31,23.61-11.72,28.88-18.42,2.4,1.93,5.43,3.1,8.74,3.11-5.89,8.89-17.4,16.89-33.81,23.3Zm-73.04,19.45v10.66c-2.37-1.53-4.76-3.12-7.16-4.8,2.39-1.89,4.78-3.86,7.16-5.87Zm-34.89,10.66v-10.66c2.38,2.01,4.77,3.97,7.16,5.87-2.4,1.68-4.79,3.27-7.16,4.8Zm-1.27-106.93c-.05,1.08-.12,2.16-.16,3.24-.18,4.33-.26,8.67-.26,13.01v62.13c-3.42-3.14-6.8-6.34-10.06-9.6-9.55-9.55-18.29-19.43-26.01-29.41,7.68-9.9,16.36-19.71,25.83-29.18,3.45-3.45,7.03-6.86,10.67-10.19Zm37.79,9.75c-.07-3.24-.2-6.48-.36-9.71,3.62,3.3,7.2,6.69,10.67,10.16,9.46,9.46,18.14,19.26,25.81,29.15-7.74,10.04-16.48,19.94-25.98,29.44-3.26,3.26-6.64,6.46-10.06,9.6v-62.13c0-2.17-.02-4.34-.07-6.51Zm95.25,19.84c-2.49,2.54-4.04,6.02-4.04,9.85s1.53,7.27,4,9.81c-4.89,6.26-14.17,12.36-26.81,17.44-4.63-8.91-10.34-18.09-16.98-27.32,6.62-9.21,12.3-18.37,16.91-27.28,12.71,5.09,22.03,11.22,26.92,17.51Zm13.16,21.82c-.35,.09-.71,.17-1.08,.23-.34,.06-.69,.1-1.04,.13-.33,.03-.66,.05-1,.05-2.96,0-5.68-1.04-7.81-2.78-.21-.17-.41-.36-.61-.55-.22-.21-.44-.42-.65-.65-2.05-2.21-3.32-5.16-3.32-8.42s1.28-6.24,3.35-8.45c.21-.22,.42-.44,.65-.64,.2-.18,.4-.37,.61-.54,2.13-1.72,4.83-2.75,7.77-2.75,.35,0,.7,.02,1.05,.05,.35,.03,.7,.08,1.04,.14,.36,.06,.72,.14,1.07,.23,5.31,1.4,9.23,6.22,9.23,11.96s-3.94,10.59-9.27,11.98Z"/></g></svg>