<svg width="911" height="1154" viewBox="0 0 911 1154" fill="none" xmlns="http://www.w3.org/2000/svg">
<path d="M770.496 29.9724C774.333 29.7757 776.553 29.5295 778.232 33.3241C778.006 40.3604 764.924 48.4768 758.496 49.3094C753.893 54.1534 736.924 62.3093 730.541 66.026L651.988 111.654C642.99 116.838 633.818 121.69 624.793 126.684C623.407 127.449 618.184 131.222 618.466 131.947C618.95 133.209 621.457 144.247 621.829 146.022C624.629 158.708 626.472 171.756 629.305 184.437C631.272 193.236 632.962 200.16 634.1 209.173C635.463 209.693 756.057 158.483 768.665 153.883C771.465 152.862 772.243 151.912 776.451 151.655L780.987 147.443C793.933 145.748 800.914 138.703 813.635 136.098C816.531 135.505 818.266 135.414 820.706 136.99C821.827 138.658 821.799 138.55 821.906 140.55C821.275 142.787 819.568 144.035 817.832 145.714C806.587 148.447 796.863 153.571 785.871 157.238C781.128 158.822 769.06 168.385 763.984 166.339C749.409 173.311 734.563 179.694 719.476 185.475C713.256 187.921 691.425 195.972 686.754 199.022L682.923 201.482C685.633 214.491 683.825 227.828 684.129 240.931C684.698 265.614 684.709 290.302 684.94 314.995L685.351 376.407C685.549 402.835 684.411 439.852 687.295 465.269C692.281 470.125 713.881 480.585 721.228 485.335C723.797 486.997 726.146 489.66 728.141 490.826L820.013 544.954C822.43 546.346 824.92 547.756 825.641 550.464C825.478 552.633 823.968 554.153 822.604 555.986C810.982 554.398 799.888 542.913 789.792 538.007C775.86 531.238 764.541 523.15 751.538 515.228C723.808 498.117 695.904 481.301 667.819 464.784C663.678 462.355 646.506 451.142 643.565 450.42C640.23 453.409 633.058 465.478 629.903 469.625C629.367 470.324 628.889 473.076 628.72 474.095C628.596 474.211 628.466 474.325 628.342 474.444C628.134 474.642 627.931 474.847 627.722 475.045C621.919 480.592 593.384 526.041 588.409 535.796C596.939 542.879 616.128 552.856 626.286 559.092L727.532 621.706C739.803 629.268 752.772 636.019 764.823 644.082C771.139 648.308 771.668 652.438 763.995 655.002C761.555 653.092 686.467 608.69 687.425 608.82C685.932 613.643 687.244 650.027 682.196 651.109C672.782 653.12 654.754 651.176 643.971 652.771C644.883 656.236 644.878 659.403 645.379 662.88C647.559 672.825 646.754 683.548 648.066 693.352C650.726 713.282 650.63 733.415 654.523 753.148C655.402 757.6 652.545 762.209 655.762 766.041C655.768 766.052 655.841 773.794 655.948 774.397C656.619 780.905 657.289 787.363 657.458 793.905C659.013 810.403 661.171 827.161 662.32 843.665C662.9 854.76 663.841 866.233 664.889 877.237C665.633 885.086 663.622 888.163 667.56 894.761C667.712 895.015 668.038 909.654 668.146 911.361C668.619 918.951 670.027 927.387 669.965 935.061C670.506 948.207 672.844 962.418 674.546 975.496C675.064 979.491 674.456 985.971 674.895 990.558L682.681 1072.87C683.363 1080.87 689.306 1124.06 684.253 1128.65C677.447 1130.21 666.41 1128.27 659.199 1128.28C656.095 1128.28 644.72 1131.15 644.686 1126.82C644.596 1114.07 642.9 1101.67 641.447 1089.03C640.855 1083.88 642.213 1078.78 640.055 1073.81C638.506 1070.26 640.489 1067.15 640.066 1063.53C637.351 1048.33 637.001 1032.71 635.255 1017.34C634.675 1012.28 634.832 1005.61 634.353 1000.17L617.609 823.245C617.153 818.506 617.35 812.99 617.012 808.082L613.857 766.61L610.821 730.283C610.618 728.068 609.474 726.874 609.255 724.428C608.477 715.598 605.063 656.631 602.933 651.937C599.677 650.506 565.023 651.638 559.575 651.757C542.583 652.123 524.325 651.013 507.453 651.114L466.999 651.109C460.282 651.086 449.233 651.424 442.936 650.438C444.446 657.746 443.032 661.279 442.859 668.559C442.701 675.231 442.79 681.609 442.268 688.36C441.899 693.133 443.139 699.094 443.289 703.991C441.589 711.254 442.751 715.215 442.783 722.377L442.676 756.591C442.658 761.606 441.522 772.34 442.618 776.099C444.261 781.734 441.614 782.027 441.923 788.749C442.882 805.507 441.287 822.428 441.177 839.169C441.109 849.542 442.215 860.294 441.361 870.825C441.289 871.704 440.663 879.593 440.763 879.824C442.728 884.371 441.051 887.684 440.961 892.62L440.535 930.542C440.337 947.21 440.491 964.153 440.265 980.838C440.209 982.404 439.143 991.324 438.072 992.158C434.322 995.077 420.992 993.094 417.13 993.263C408.274 993.657 400.957 994.266 392.318 993.15C386.921 992.451 386.35 987.183 386.057 982.776C385.292 971.71 386.834 960.677 387.057 949.734L387.856 882.123L388.268 826.102C388.259 820.484 387.814 795.68 388.772 791.239C388.396 794.615 388.311 768.576 389.481 773.062C387.374 764.987 389.204 754.23 389.275 745.474L389.993 650.139L296.334 650.303C281.226 650.196 259.316 649.21 243.841 650.179C242.815 650.246 245.761 653.391 245.736 653.909C245.004 669.004 241.699 683.768 241.586 698.914C241.568 705.18 240.067 710.037 239.456 715.903L234.773 758.316L221.366 894.48C220.785 899.85 218.729 906.391 218.463 911.406C216.913 940.634 212.423 969.783 209.831 998.858C207.869 1020.87 206.021 1042.86 202.25 1064.62C204.772 1068.87 199.899 1086.92 199.975 1093.14C200.063 1100.22 198.673 1110.05 197.369 1117.06C195.451 1118.92 193.134 1120.54 190.982 1122.15C183.957 1122.05 176.342 1121.43 169.45 1121.18C150.037 1120.67 157.661 1111.87 158.619 1098.9C161.572 1058.92 166.543 1019.18 170.99 979.362C171.449 975.237 170.936 970.786 171.369 966.638C171.91 961.454 173.205 956.31 173.678 951.126L185.501 833.162C186.121 827.499 186.618 821.605 187.249 815.92C187.684 813.756 186.71 807.231 187.301 805.563C190.628 796.209 189.771 787.926 190.739 778.279L198.235 704.351C199.54 690.304 201.885 678.082 202.739 663.432C200.126 666.3 198.394 669.703 195.406 672.701C183.687 684.449 172.007 696.767 160.228 708.38C158.646 709.941 154.333 709.186 153.493 706.639C151.587 701.427 156.619 699.917 158.446 697.257C163.329 690.146 169.512 684.917 175.213 678.871L235.125 614.95C247.723 601.523 259.818 587.255 272.573 573.923C273.92 572.515 275.155 572.053 276.939 571.422C280.22 564.953 285.883 559.909 290.651 554.362C290.655 546.428 237.744 491.849 229.459 483.353L228.846 484.419C225.242 490.639 221.771 492.587 217.413 497.953C201.858 517.126 185.9 535.969 169.551 554.47C155.451 570.723 141.973 587.577 127.476 603.5C125.343 605.839 123.15 608.25 121.124 610.685L97.5525 638.611C94.9237 641.704 89.5405 650.122 85.5236 650.353C73.502 651.041 85.1934 637.855 87.7906 634.317C92.7626 627.549 98.5102 621.954 104.101 615.762C122.787 592.766 142.743 570.751 161.818 548.12C165.615 543.615 162.337 523.71 162.759 517.327C165.285 479.123 162.152 440.509 164.198 402.372C164.259 401.226 162.798 398.388 163.073 396.991C163.474 383.725 164.655 370.301 163.439 357.046C163.283 355.361 163.457 352.414 163.224 351.405C131.123 354.717 99.0708 360.024 66.7864 362.247C60.9823 362.647 56.3162 358.72 60.1727 353.34C67.072 350.75 82.1303 350.953 89.7434 350.17C96.1705 349.51 102.506 347.927 108.927 347.275C113.305 346.831 117.816 346.832 122.219 346.409L180.554 340.346C193.381 339.126 204.092 336.726 217.162 336.973L221.961 332.279C222.077 304.582 218.585 265.959 210.916 239.092C200 239.549 189.515 241.504 178.731 242.406C163.905 243.645 149.218 245.155 134.421 246.474C110.531 248.801 86.6937 251.649 62.7942 253.856C58.7322 254.231 53.4541 253.758 51.8163 249.539C52.0645 246.723 54.0306 244.775 56.7845 244.443C73.3921 242.442 91.3541 241.468 107.878 238.894C122.378 236.635 149.766 237.889 162.596 233.381C164.822 230.553 163.319 220.616 164.107 216.901C164.547 214.823 164.173 214.151 163.391 212.19L163.118 211.52C165.045 205.614 163.739 202.073 163.936 196.159C164.981 164.731 163.775 133.425 163.969 101.99C164.003 96.6475 163.113 91.3965 163.609 86.0395C169.726 82.4474 236.862 84.7221 249.873 84.7396C260.707 84.7548 274.106 83.4785 285.324 83.2768C288.772 83.2154 291.962 84.6782 297.084 84.5548C303.032 84.4116 312.015 82.8497 317.776 83.3134C317.851 83.3196 319.378 84.1507 320.246 84.1316C324.717 84.033 329.355 83.7095 333.802 83.6684C346.418 83.5518 359.161 83.1551 371.753 83.1151C431.762 83.3343 491.773 83.0666 551.778 82.3121L636.354 81.4832C643.875 81.4004 651.278 80.9541 658.855 81.1356C667.571 81.3446 669.774 78.0911 677.813 83.367C687.205 81.5007 689.436 78.0325 697.526 73.1314C709.464 65.9014 721.031 58.743 733.414 52.2998C741.814 47.9297 748.907 41.4243 758.339 38.1168C761.172 37.1234 768.434 32.2699 770.496 29.9724ZM202.221 118.162C200.697 140.014 202.148 165.317 201.677 187.589C201.518 195.081 200.515 223.679 202.081 229.8C214.079 233.001 211.083 224.006 219.831 238.347C234.96 238.708 243.002 230.007 248.612 250.822C252.185 250.898 258.678 252.098 260.638 254.714C264.737 260.185 260.277 264.493 269.685 265.1C278.231 265.651 282.255 272.546 283.346 280.666C289.335 281.183 291.146 281.918 296.782 283.81C301.832 293.188 301.151 298.023 301.176 308.41C301.184 311.85 301.668 315.272 301.811 318.707C301.887 320.509 301.136 323.092 301.584 324.743C302.044 326.434 308.109 325.326 309.792 334.058C309.774 334.098 309.753 334.143 309.73 334.194C308.957 335.895 305.671 343.13 305.558 344.205C305.015 349.372 295.351 355.082 294.554 356.98C288.999 370.208 279.014 382.157 267.788 365.346C267.786 365.345 267.784 365.344 267.782 365.343C263.592 363.518 261.795 362.736 257.348 361.799C252.855 353.66 253.002 352.04 256.894 343.546C250.745 340.062 239.68 332.839 233.168 333.07L232.301 333.597C232.305 336.314 233.013 340.031 231.081 341.696C223.047 348.621 212.079 345.414 202.667 347.535C201.882 347.712 201.634 350.96 201.551 352.068C200.048 372.221 200.806 391.812 200.744 411.756L200.03 470.677C199.916 478.698 200.642 486.481 200.276 494.496C200.161 497.012 200.758 498.269 200.295 500.895C201.629 501.858 200.938 501.752 202.326 501.626C206.638 496.939 211.822 490 216.047 484.954C227.818 470.898 230.83 469.755 242.389 485.173L242.964 485.091C244.452 479.759 247.891 475.476 250.413 471.392C256.155 462.098 261.04 459.479 271.415 463.397C272.672 463.872 279.687 458.95 281.017 458.403C282.176 457.95 285.055 457.548 286.409 457.341C290.974 458.794 292.42 459.161 296.445 461.881C304.924 453.71 307.537 453.255 318.353 458.006C321.002 455.182 322.28 455.023 325.31 453.04C328.578 453.049 331.947 453.011 335.205 453.079C347.843 463.82 355.314 457.701 367.598 476.194C376.461 479.835 389.628 484.798 397.733 489.769C399.605 490.918 402.143 494.883 403.127 496.985C400.898 504.322 395.346 523.116 388.961 526.613C388.102 527.074 387.225 527.502 386.333 527.895C379.09 525.829 372.102 522.574 365.506 521.259C360.179 528.035 354.199 534.269 347.652 539.873C341.938 540.803 336.696 542.953 330.947 544.477C325.653 545.88 320.048 547.264 314.88 548.914C311.353 550.039 308.464 552.012 304.801 553.127C299.876 566.198 287.57 573.445 279.362 583.102C273.672 589.797 262.171 600.379 257.916 606.977L319.582 606.971C319.75 606.938 331.211 607.495 332.729 607.529C349.27 607.879 365.71 607.174 382.251 607.315C384.727 606.887 394.444 608.746 395.813 608.324C404.57 605.613 414.232 608.91 422.908 608.403C436.695 607.602 449.794 608.532 463.488 608.662L509.997 608.927C515.677 609.011 521.126 609.518 526.737 609.67C530.935 609.783 535.527 608.769 540.029 608.82L608.178 609.868C613.671 609.941 619.204 610.392 624.612 610.442C630.584 610.499 636.945 609.935 642.939 609.896C642.838 599.539 642.399 594.389 644.292 584.128C637.103 575.389 591.508 549.735 578.629 541.187L576.116 534.217L575.665 533.985C561.766 526.944 553.837 528.273 540.086 524.862C531.538 522.741 520.198 510.724 517.756 502.589C516.567 499.287 516.191 495.954 514.16 493.008C509.071 492.435 504.837 492.592 501.763 488.579C498.6 484.446 497.198 476.137 491.135 475.966C481.282 475.688 479.605 479.222 471.1 470.86C471.078 467.118 471.412 464.49 468.46 461.758C461.323 455.157 459.885 457.78 454.692 448.822C457.623 434.704 467.907 429.881 479.323 422.951C484.915 419.555 486.776 419.016 493.124 417.772L500.143 420.742C500.791 422.933 502.426 428.153 502.739 430.286C503.075 432.576 501.127 433.963 502.262 437.651C505.608 438.057 508.35 437.262 511.678 438.436C517.718 440.566 520.416 445.003 522.241 450.757C528.178 441.722 537.91 432.978 548.083 429.043C551.803 429.905 554.327 430.141 557.37 432.427C561.321 430.155 566.02 426.837 570.747 428.682C575.508 430.542 576.955 428.714 580.623 426.047C580.725 426.044 580.827 426.041 580.927 426.038C585.914 425.888 588.745 425.803 593.113 428.998C596.973 426.511 598.077 425.853 602.77 424.948C615.503 429.746 618.855 437.266 628.263 446.168C630.725 448.494 635.508 439.855 637.463 438.746C639.627 437.491 641.244 438.846 643.097 437.127C643.965 432.465 641.599 425.967 642.049 421.465C643.413 407.697 643.024 394.157 642.709 380.358C643.249 359.752 642.618 339.2 643.441 318.645C643.475 317.909 642.517 316.123 642.145 315.523C642.956 312.425 643.633 312.483 643.542 308.969C643.063 289.896 642.123 271.098 642.934 252.017C643.345 242.288 640.838 238.965 644.179 228.859L643.993 228.144C643.12 224.78 643.12 218.566 642.37 217.322C635.446 215.871 627.734 233.638 624.348 208.3C612.066 219.54 616.731 225.765 609.277 239.839C606.037 245.966 603.283 245.741 601.26 249.773C601.468 253.804 609.48 260.855 602.832 267.833C599.823 270.988 592.206 273.326 588.032 273.316C586.308 273.303 584.584 273.258 582.86 273.18C574.291 283.007 563.358 286.108 550.511 288.084C542.584 289.302 534.641 274.084 531.425 268.374C520.045 248.173 522.308 232.218 546.697 226.24C549.641 225.519 550.963 227.155 552.761 224.159C552.296 222.843 552.051 223.146 551.563 222.672C547.202 217.559 546.927 206.526 545.908 200.218C545.256 196.182 545.585 187.684 548.718 185.548C557.187 179.773 553.988 177.051 557.985 169.344C559.07 167.253 563.428 166.68 564.617 164.845C565.851 161.115 564.679 157.431 567.203 153.713C569.372 150.53 574.95 152.827 576.939 150.018C579.558 146.315 578.719 144.024 581.75 139.409C594.55 136.165 598.387 136.797 610.105 134.84C609.26 131.678 608.381 129.272 609.931 126.072C612.133 121.511 621.063 117.296 625.734 115.687C620.438 113.666 599.316 110.265 595.266 111.829C583.812 112.606 572.753 111.682 561.414 112.685C552.53 113.692 543.755 113.495 534.879 114.796C532.472 115.149 527.59 113.433 524.609 113.676C522.782 113.826 515.014 116.006 514.044 115.639C506.883 112.927 500.825 115.843 493.549 115.677C490.578 115.779 485.599 113.978 482.897 114.167C467.609 115.239 452.746 114.696 437.476 114.416C399.399 113.715 360.784 111.033 322.449 113.191C303.887 114.236 285.73 114.442 267.205 114.883L230.925 115.68C220.805 115.969 211.885 115.371 202.221 118.162ZM607.559 481.383C609.322 479.905 611.407 478.24 613.102 476.727C614.483 471.803 614.426 471.346 618.663 468.411C620.736 462.697 622.5 460.276 625.705 455.17C620.438 450.608 605.159 434.085 600.071 433.955C599.35 439.117 613.384 450.904 613.519 454.506C612.809 456.342 612.815 456.46 611.283 457.578C604.426 458.985 591.739 438.387 584.747 433.767L581.26 437.306C583.474 440.586 584.792 442.397 587.248 445.451C590.944 450.058 600.15 456.634 599.575 462.722C591.243 471.13 572.629 434.516 565.372 438.701C565.259 445.844 591.395 466.75 586.184 471.807C570.076 474.08 556.734 426.799 542.42 443.832C536.648 450.7 519.366 462.81 517.406 470.75C521.62 471.305 533.03 462.583 536.565 460.134C541.755 456.539 537.658 457.138 540.702 451.781C542.698 450.716 541.91 451.001 544.356 451.091C546.285 452.05 546.654 452.889 547.562 454.841C548.8 457.503 551.7 459.51 553.786 461.622C564.848 472.822 563.194 484.063 555.67 496.572C549.427 504.477 547.068 505.368 537.224 507.894C532.306 504.517 528.04 497.895 537.255 497.647C535.635 492.588 534.976 493.745 534.412 487.656C531.186 488.969 526.46 491.056 523.224 491.951C525.25 500.666 529.773 508.233 537.384 513.225C546.03 518.895 555.555 517.566 565.321 519.724C572.544 521.322 576.099 522.983 582.358 526.493C585.727 514.803 606.038 490.378 607.559 481.383ZM249.722 640.014C258.661 639.326 268.673 640.667 277.844 640.419C281.299 640.324 289.233 639.298 291.909 639.619C300.341 640.622 307.648 639.771 315.774 639.901C330.15 640.121 344.458 641.101 358.849 639.918C365.065 639.546 372.333 641.05 378.679 640.633C387.929 640.391 397.228 640.205 406.465 639.619C408.145 639.512 413.945 640.633 416.439 640.617C430.63 640.521 444.985 640.481 459.181 640.464L526.557 641.022C530.148 641.045 533.933 640.521 537.513 640.543L641.368 640.667C645.903 640.667 672.996 642.008 675.746 640.081C677.323 633.59 675.368 620.343 676.106 613.091C676.348 610.724 678.974 604.334 677.52 603.151C673.244 599.669 658.089 590.681 653.537 588.134C650.044 597.651 653.542 602.903 652.951 612.071C652.904 612.126 652.857 612.181 652.81 612.236C650.54 614.909 648.483 617.329 646.027 619.847C639.897 620.281 611.3 621.949 607.08 620.05C605.547 619.357 563.301 619.65 556.668 619.886C555.006 619.943 551.176 618.066 550.121 618.483C549.511 618.731 549.154 619.097 548.686 619.543C540.173 619.159 531.9 619.266 523.399 619.458C519.683 619.543 515.851 618.906 512.133 618.9C509.812 618.923 507.145 619.565 504.459 619.531L314.543 616.319C302.432 616.015 289.653 616.691 277.392 616.167C269.423 615.829 257.644 616.601 250.025 615.249C244.898 620.461 239.807 625.701 234.754 630.981C232.276 633.607 228.74 637.895 226.201 640.025L249.722 640.014ZM231.382 661.831C226.205 661.978 216.168 661.55 212.269 664.254C210.02 667.139 202.199 768.492 199.255 780.128C198.764 782.072 199.159 792.626 198.818 795.888L180.652 980.956L172.01 1060.84C170.417 1074.66 168.567 1088.32 167.663 1102.26C167.494 1104.86 167.011 1107.18 167.006 1109.84L167.688 1110.8L169.453 1110.84C174.102 1111.59 184.647 1113.01 188.966 1111.65C189.173 1111.37 193.811 1064.72 194.182 1059.62C195.316 1044.03 197.624 1028.4 199.181 1012.83C199.67 1007.95 199.573 1003.02 200.115 998.131C200.835 991.634 202.049 985.182 202.7 978.68L211.457 887.357L216.047 841.558C216.53 836.56 217.696 831.353 218.12 826.333C218.374 823.329 217.983 819.712 217.981 816.647C220.411 812.888 219.057 815.052 219.37 811.829C223.442 769.884 228.572 727.781 231.73 685.751C232.155 680.099 235.646 664.728 232.913 661.583C231.767 661.555 232.125 661.347 231.382 661.831ZM538.246 471.448C532.358 476.823 517.389 484.149 510.475 477.003C506.704 473.105 508.659 467.284 509.708 462.739C511.776 460.869 514.09 458.672 516.203 456.909C514.043 455.299 512.041 454.115 510.948 451.707C510.179 450.014 509.611 449.036 508.094 448.09C505.949 447.831 504.012 448.845 501.913 449.639C484.675 440.123 495.556 434.225 492.407 428.321L491.856 428.212C482.887 432.184 469.849 438.798 464.524 446.999C473.967 457.211 476.303 449.263 480.236 466.881C484.61 467.193 490.631 467.275 494.927 466.399C496.522 467.441 500.756 470.163 501.592 471.259C510.517 482.957 504.035 486.8 521.977 483.205C525.769 482.445 528.473 481.263 532.222 480.153C533.847 479.968 541.914 478.127 543.274 477.289L543.937 476.053C542.96 473.406 540.851 472.797 538.246 471.448ZM298.871 544.127C314.947 534.97 338.086 537.753 350.972 525.035C352.884 523.147 355.469 518.73 356.943 516.29C352.9 514.166 349.352 512.197 345.042 510.613C341.581 511.508 340.774 512.488 337.741 513.816C334.221 515.357 330.135 516.707 326.495 517.953C325.043 521.121 324.309 523.539 321.17 525.139C317.038 525.212 315.056 519.809 314.952 516.309C314.635 505.578 321.139 491.627 327.912 483.479C325.77 482.049 324.229 481.342 323.029 479.1C322.722 477.049 322.7 477.162 323.467 475.242C329.543 469.073 349.588 483.257 355.677 481.612C355.979 474.71 335.935 467.6 330.667 464.444C330.234 464.185 327.123 464.211 326.437 464.244C323.377 467.412 320.849 469.347 318.177 472.768C312.454 480.093 303.542 500.836 294.971 503.603C288.828 502.227 293.946 494.575 295.897 491.827C301.486 483.953 305.382 475.149 310.622 466.917C308.04 464.906 303.379 468.512 301.81 470.612C295.125 479.557 288.893 487.238 284.239 497.593C283.554 499.116 279.554 499.055 277.572 497.398C274.408 489.955 289.845 475.831 289.155 469.635C273.906 460.253 268.874 501.477 258.118 494.385C254.219 488.351 266.404 476.574 265.518 471.397C258.65 470.986 253.199 485.384 249.296 490.69C250.384 492.109 256.039 499.054 257.243 499.885C270.428 510.993 287.911 530.726 298.871 544.127ZM399.018 666.012L397.191 878.939L396.496 946.922C396.346 958.124 394.878 973.073 396.586 983.588C401.955 983.734 406.579 983.441 411.904 983.075C417.423 982.686 423.102 983.058 428.711 982.957L430.429 982.878C432.481 979.706 430.004 967.968 430.216 964.086C431.128 947.931 430.811 931.731 430.188 915.571C430.008 910.922 430.965 905.867 430.747 901.281C430.114 887.949 431.286 874.719 430.155 861.404C430.183 857.69 432.546 853.425 431.287 849.734C429.705 845.102 430.563 840.78 430.715 835.996C430.941 828.897 431.504 821.6 431.546 814.505L431.268 692.62C431.242 684.314 432.081 676.341 432.009 667.483C428.436 666.469 405.841 666.581 399.018 666.012ZM171.714 441.166C172.788 444.214 173.004 444.631 172.965 447.893C172.768 464.214 172.418 481.184 172.909 497.456C173.091 503.482 170.889 531.416 172.911 535.257L173.965 533.993C178.413 528.906 192.827 514.394 191.726 507.769C190.102 497.993 191.428 489.858 191.316 480.109C190.815 436.508 191.76 392.68 192.069 349.127C190.455 349.185 186.326 349.223 184.961 349.579C182.31 349.824 176.497 350.036 174.596 351.635C173.745 355.799 173.927 360.72 173.58 364.993C171.996 384.495 173.455 404.043 173.032 423.512C172.89 430.034 173.515 434.851 171.714 441.166ZM556.739 190.581C554.375 195.697 555.133 207.378 556.317 212.799C560.065 218.196 565.412 225.237 566.245 231.657C566.533 233.917 566.409 235.377 568.471 235.998C569.502 234.939 571.164 228.486 571.964 226.334C569.896 220.41 570.144 210.057 566.037 207.257C565.316 206.764 563.468 207.164 561.707 205.472C559.919 195.85 572.105 200.998 577.908 200.179C587.581 198.814 616.494 210.505 595.373 220.097C592.206 221.572 590.589 227.112 588.826 230.335C590.505 233.899 592.544 239.538 595.835 241.352C602.984 240.195 606.657 216.684 610.466 210.744C613.457 206.089 618.534 203.461 621.638 198.988C621.908 198.544 621.018 192.991 620.832 192.109C617.446 176.522 615.643 159.879 611.193 144.695C609.756 143.893 609.249 144.008 607.626 143.976C601.992 144.138 593.147 145.183 588.251 148.186L587.953 149.083C593.739 152.542 607.243 145.658 610.404 153.825C607.491 163.156 578.922 154.185 574.195 163.105L574.178 164.44C577.705 167.287 585.609 162.161 590.792 163.443C594.24 164.295 604.826 162.974 606.708 167.674C602.73 176.613 570.454 170.417 564.966 176.938C564.893 178.614 564.961 178.976 565.243 180.647C575.04 184.089 597.964 178.228 603.147 182.372C604.883 189.667 593.435 188.953 590.122 189.529C579.288 191.413 567.096 188.882 556.739 190.581ZM569.857 91.5143C548.961 94.1767 525.352 90.9598 504.097 92.4919C497.936 92.9359 489.335 91.8574 482.678 91.9014L284.975 93.4616L218.501 93.6104C215.268 93.616 207.123 93.2515 204.49 93.3247C201.984 93.394 174.399 93.3596 174.1 93.5484C175.279 97.9869 174.374 153.868 174.319 161.798L174.053 210.457C173.992 214.583 172.995 230.011 173.932 233.128C175.869 232.834 191.107 230.806 191.598 230.47C193.653 223.015 192.826 201.584 192.618 193.303C192.52 189.439 192.995 167.319 192.526 165.765L192.629 165.167C193.906 157.249 191.953 116.858 194.202 112.232C205.323 104.697 254.55 107.61 269.291 105.789C277.461 104.779 289.851 105.36 298.689 104.766C369.761 99.9856 441.067 105.374 512.26 104.673C514.69 104.811 516.986 103.598 519.375 103.581C559.835 103.289 599.485 97.9221 639.779 105.461C643.621 106.179 660.348 94.0296 663.858 91.1756C642.066 92.1194 619.553 91.0466 597.694 91.7937C592.127 91.9842 574.054 90.5975 569.857 91.5143ZM677.036 460.289L675.132 329.292C675.07 322.428 674.439 315.074 674.439 308.488L674.129 250.496C674.117 243.709 675.008 210.169 672.867 205.752C671.943 205.149 672.162 205.111 671.182 204.957C651.869 215.463 652.692 206.617 652.72 229.248L652.782 255.387C652.737 274.056 652.714 292.545 653.204 311.235C653.357 317.09 652.297 323.786 652.371 330.103L652.703 383.264C652.838 395.55 653.509 403.222 652.01 415.382C650.889 424.493 654.123 432.764 652.106 443.261C658.923 450.625 661.943 449.198 665.143 451.891C670.839 455.724 671.779 454.925 677.036 460.289ZM221.511 247.317C224.692 266.129 229.446 284.304 231.068 303.409C231.766 311.628 234.858 314.866 231.498 323.032C236.722 324.461 243.692 325.962 248.326 328.605C251.873 330.63 261.116 340.092 263.806 331.481C262.326 324.963 239.133 318.91 257.569 314.406C259.68 294.836 269.932 300.709 284.99 299.304C287.67 299.054 289.499 302.542 288.666 305.181C285.239 307.619 285.057 306.87 284.849 311.697C284.766 313.644 284.492 315.357 283.919 317.223C285.24 321.39 285.795 324.955 289.541 327.302C291.175 327.544 290.388 327.666 291.937 326.715C293.35 324.333 294.169 319.94 293.949 317.194C292.844 312.489 292.011 301.133 291.755 295.949C289.826 294.253 289.171 293.318 287.779 291.223C278.769 287.056 244.873 296.588 241.925 288.61C241.627 287.804 241.907 287.36 242.109 286.564C247.102 281.402 273.184 284.126 273.083 278.906C273.06 277.752 272.816 276.871 271.985 276.033C269.761 273.788 265.32 273.706 262.347 273.881C255.501 274.282 241.98 276.844 235.802 274.396C234.6 273.143 234.926 273.877 234.846 272.098C238.323 263.701 251.107 268.534 254.726 263.962C254.785 262.255 254.61 262.247 253.673 260.852C242.125 256.392 233.634 264.085 228.33 259.979C227.853 257.964 227.875 258.075 228.395 256.054C232.475 251.03 239.155 254.051 239.381 249.603C236.946 245.477 234.036 245.122 229.426 245.231L221.511 247.317ZM579.333 232.864C579.006 239.332 573.761 246.349 566.662 246.829C563.828 247.02 560.875 242.37 559.089 240.563C557.444 238.862 558.276 236.317 557.541 234.249C557.523 234.201 557.505 234.153 557.486 234.105C557.605 234.132 557.616 234.182 557.541 234.249C556.831 234.876 548.466 237.042 547.783 237.154C542.238 238.063 537.556 241.763 533.165 245.103C536.671 258.051 537.915 261.136 544.723 272.666C544.821 272.826 544.918 272.985 545.015 273.143C546.411 275.423 547.729 277.576 549.283 279.784C554.186 278.738 559.611 277.787 564.319 276.127C570.809 273.77 574.555 267.343 580.786 264.664C584.725 262.971 592.218 266.087 595.091 262.353C598.33 258.144 588.747 249.596 586.24 246.48C583.626 243.223 581.31 237.436 580.488 233.559L579.333 232.864ZM279.627 364.401L282.38 359.326C288.039 345.615 288.172 350.405 296.13 342.412C296.877 339.916 297.66 337.04 298.476 334.603C286.394 339.375 283.58 336.847 276.525 326.5C271.637 335.089 264.442 345.265 261.872 354.336C269.428 355.421 275.628 357.761 279.627 364.401ZM590.64 212.529C586.071 209.203 584.927 208.863 579.389 208.136C578.916 211.227 579.677 218.14 582.736 219.918L583.919 219.907L585.71 217.611L590.64 212.529ZM626.066 663.482C621.936 664.249 620.303 664.26 616.055 664.26C615.801 671.833 616.815 680.635 617.142 688.36L618.68 690.552C618.449 697.483 618.798 704.391 619.193 711.31C619.362 714.229 621.153 718.078 621.131 720.495C621.007 736.154 623.75 751.717 624.5 767.354C624.855 774.814 625.841 782.224 625.666 789.712C625.711 791.803 627.356 795.077 627.322 797.009C627.131 808.882 628.906 820.568 629.998 832.345C630.669 839.569 630.286 847.26 631.024 854.529C631.21 856.383 631.801 857.273 632.872 858.733C632.939 859.854 632.849 860.384 632.5 861.443C632.1 862.643 637.627 927.071 638.201 933.331C638.618 937.867 639.559 942.358 639.903 946.9C640.686 957.285 640.99 967.833 641.604 978.24C641.83 982.089 643.897 985.335 643.734 989.324C642.878 1010.27 646.9 1033.28 648.635 1054.26C650.162 1072.67 651.176 1091.04 653.385 1109.39C653.813 1112.95 653.582 1117.12 654.624 1120.51C659.131 1120.4 662.247 1119.54 667.503 1120.77C669.971 1120.73 674.225 1120.2 676.298 1118.79C676.315 1117.27 676.027 1117.22 675.222 1115.76C675.385 1114.28 675.667 1114.09 676.495 1112.85C676.281 1106.63 674.146 1096.64 673.34 1089.85C672.095 1079.4 673.075 1066.28 670.467 1056.54C669.109 1051.46 670.748 1049.98 670.298 1047.21C669.272 1040.93 668.996 1035.42 668.41 1029.17L653.779 871.991C653.193 866.289 655.841 866.819 652.421 860.682C652.433 860.705 652.331 845.294 651.706 843.429C651.362 842.386 651.334 834.114 651.171 832.407L641.17 722.123L637.756 683.627C636.855 674.081 635.925 673.619 636.055 663.133C633.041 663.189 628.86 663.494 626.066 663.482ZM541.423 485.49C542.819 488.241 544.015 490.52 545.599 493.163L545.748 493.902C548.255 492.384 552.134 486.743 551.841 483.961L551.447 483.759C547.955 484.266 544.75 484.976 541.423 485.49ZM269.496 322.093C270.864 318.466 274.357 312.22 274.564 309.793C273.21 307.587 271.357 308.134 268.867 308.142C267.228 312.126 264.558 317.319 265.993 321.567C267.427 323.18 266.711 322.784 268.693 323.393C269.52 322.557 269.389 323.015 269.496 322.093ZM366.586 486.818C355.482 500.963 345.604 485.099 338.819 493.092C337.709 494.412 336.833 495.912 336.229 497.528C337.881 498.782 338.641 497.527 340.013 498.252C348.117 502.535 356.801 506.778 365.438 509.922C370.573 512.109 380.33 515.16 384.316 517.45C387.061 512.069 388.886 502.955 390.674 496.762C386.134 496.126 368.794 489.544 366.586 486.818Z" fill="#232C3C"/>
<path d="M249.722 640.014C258.661 639.326 268.673 640.667 277.844 640.419C281.299 640.324 289.233 639.298 291.909 639.619C300.341 640.622 307.648 639.771 315.774 639.901C330.15 640.121 344.458 641.101 358.849 639.918C365.065 639.546 372.333 641.05 378.679 640.633C387.929 640.391 397.228 640.205 406.465 639.619C408.145 639.512 413.945 640.633 416.439 640.617C430.63 640.521 444.985 640.481 459.181 640.464L526.557 641.022C530.148 641.045 533.933 640.521 537.513 640.543L641.368 640.667C645.903 640.667 672.996 642.008 675.746 640.081C677.323 633.59 675.368 620.343 676.106 613.091C676.348 610.724 678.974 604.334 677.52 603.151C673.244 599.669 658.089 590.681 653.537 588.134C650.044 597.651 653.542 602.903 652.951 612.071L652.81 612.236C650.54 614.909 648.483 617.329 646.027 619.847C639.897 620.281 611.3 621.949 607.08 620.05C605.547 619.357 563.301 619.65 556.668 619.886C555.006 619.943 551.176 618.066 550.121 618.483C549.511 618.731 549.154 619.097 548.686 619.543C540.173 619.159 531.9 619.266 523.399 619.458C519.683 619.543 515.851 618.906 512.133 618.9C509.812 618.923 507.145 619.565 504.459 619.531L314.543 616.319C302.432 616.015 289.653 616.691 277.392 616.167C269.423 615.829 257.644 616.601 250.025 615.249C244.898 620.461 239.807 625.701 234.754 630.981C232.276 633.607 228.74 637.895 226.201 640.025L249.722 640.014Z" fill="#93B9FF"/>
<path d="M677.036 460.289L675.132 329.292C675.07 322.428 674.439 315.074 674.439 308.488L674.129 250.496C674.117 243.709 675.008 210.169 672.867 205.752C671.943 205.149 672.162 205.111 671.182 204.957C651.869 215.463 652.692 206.617 652.72 229.248L652.782 255.387C652.737 274.056 652.714 292.545 653.204 311.235C653.357 317.09 652.297 323.786 652.371 330.103L652.703 383.264C652.838 395.55 653.509 403.222 652.01 415.382C650.889 424.493 654.123 432.764 652.106 443.261C658.923 450.625 661.943 449.198 665.143 451.891C670.839 455.724 671.779 454.925 677.036 460.289Z" fill="#93B9FF"/>
<path d="M569.857 91.5143C548.961 94.1767 525.352 90.9598 504.097 92.4919C497.936 92.9359 489.335 91.8574 482.678 91.9014L284.975 93.4616L218.501 93.6104C215.268 93.616 207.123 93.2515 204.49 93.3247C201.984 93.394 174.399 93.3596 174.1 93.5484C175.279 97.9869 174.374 153.868 174.319 161.798L174.053 210.457C173.992 214.583 172.995 230.011 173.932 233.128C175.869 232.834 191.107 230.806 191.598 230.47C193.653 223.015 192.826 201.584 192.618 193.303C192.52 189.439 192.995 167.319 192.526 165.765L192.629 165.167C193.906 157.249 191.953 116.858 194.202 112.232C205.323 104.697 254.55 107.61 269.291 105.789C277.461 104.779 289.851 105.36 298.689 104.766C369.761 99.9856 441.067 105.374 512.26 104.673C514.69 104.811 516.986 103.598 519.375 103.581C559.835 103.289 599.485 97.9221 639.779 105.461C643.621 106.179 660.348 94.0296 663.858 91.1756C642.066 92.1194 619.553 91.0466 597.694 91.7937C592.127 91.9842 574.054 90.5975 569.857 91.5143Z" fill="#93B9FF"/>
<path d="M171.714 441.166C172.788 444.214 173.004 444.631 172.965 447.893C172.768 464.214 172.418 481.184 172.909 497.456C173.091 503.482 170.889 531.416 172.911 535.257L173.965 533.993C178.413 528.906 192.827 514.394 191.726 507.769C190.102 497.993 191.428 489.858 191.316 480.109C190.815 436.508 191.76 392.68 192.069 349.127C190.455 349.185 186.326 349.223 184.961 349.579C182.31 349.824 176.497 350.036 174.596 351.635C173.745 355.799 173.927 360.72 173.58 364.993C171.996 384.495 173.455 404.043 173.032 423.512C172.89 430.034 173.515 434.851 171.714 441.166Z" fill="#93B9FF"/>
<path d="M202.221 118.162C200.697 140.014 202.148 165.317 201.677 187.589C201.518 195.081 200.515 223.679 202.081 229.8C214.079 233.001 211.083 224.006 219.831 238.347C234.96 238.708 243.002 230.007 248.612 250.822C252.185 250.898 258.678 252.098 260.638 254.714C264.737 260.185 260.277 264.493 269.685 265.1C278.231 265.651 282.255 272.546 283.346 280.666C289.335 281.183 291.146 281.918 296.782 283.81C301.832 293.188 301.151 298.023 301.176 308.41C301.184 311.85 301.668 315.272 301.811 318.707C301.887 320.509 301.136 323.092 301.584 324.743C302.044 326.434 308.109 325.326 309.792 334.058L309.73 334.194C308.957 335.895 305.671 343.13 305.558 344.205C305.015 349.372 295.351 355.082 294.554 356.98C288.999 370.208 279.014 382.157 267.788 365.346L267.782 365.343C263.592 363.518 261.795 362.736 257.348 361.799C252.855 353.66 253.002 352.04 256.894 343.546C250.745 340.062 239.68 332.839 233.168 333.07L232.301 333.597C232.305 336.314 233.013 340.031 231.081 341.696C223.047 348.621 212.079 345.414 202.667 347.535C201.882 347.712 201.634 350.96 201.551 352.068C200.048 372.221 200.806 391.812 200.744 411.756L200.03 470.677C199.916 478.698 200.642 486.481 200.276 494.496C200.161 497.012 200.758 498.269 200.295 500.895C201.629 501.858 200.938 501.752 202.326 501.626C206.638 496.939 211.822 490 216.047 484.954C227.818 470.898 230.83 469.755 242.389 485.173L242.964 485.091C244.452 479.759 247.891 475.476 250.413 471.392C256.155 462.098 261.04 459.479 271.415 463.397C272.672 463.872 279.687 458.95 281.017 458.403C282.176 457.95 285.055 457.548 286.409 457.341C290.974 458.794 292.42 459.161 296.445 461.881C304.924 453.71 307.537 453.255 318.353 458.006C321.002 455.182 322.28 455.023 325.31 453.04C328.578 453.049 331.947 453.011 335.205 453.079C347.843 463.82 355.314 457.701 367.598 476.194C376.461 479.835 389.628 484.798 397.733 489.769C399.605 490.918 402.143 494.883 403.127 496.985C400.898 504.322 395.346 523.116 388.961 526.613C388.102 527.074 387.225 527.502 386.333 527.895C379.09 525.829 372.102 522.574 365.506 521.259C360.179 528.035 354.199 534.269 347.652 539.873C341.938 540.803 336.696 542.953 330.947 544.477C325.653 545.88 320.048 547.264 314.88 548.914C311.353 550.039 308.464 552.012 304.801 553.127C299.876 566.198 287.57 573.445 279.362 583.102C273.672 589.797 262.171 600.379 257.916 606.977L319.582 606.971C319.75 606.938 331.211 607.495 332.729 607.529C349.27 607.879 365.71 607.174 382.251 607.315C384.727 606.887 394.444 608.746 395.813 608.324C404.57 605.613 414.232 608.91 422.908 608.403C436.695 607.602 449.794 608.532 463.488 608.662L509.997 608.927C515.677 609.011 521.126 609.518 526.737 609.67C530.935 609.783 535.527 608.769 540.029 608.82L608.178 609.868C613.671 609.941 619.204 610.392 624.612 610.442C630.584 610.499 636.945 609.935 642.939 609.896C642.838 599.539 642.399 594.389 644.292 584.128C637.103 575.389 591.508 549.735 578.629 541.187L576.116 534.217L575.665 533.985C561.766 526.944 553.837 528.273 540.086 524.862C531.538 522.741 520.198 510.724 517.756 502.589C516.567 499.287 516.191 495.954 514.16 493.008C509.071 492.435 504.837 492.592 501.763 488.579C498.6 484.446 497.198 476.137 491.135 475.966C481.282 475.688 479.605 479.222 471.1 470.86C471.078 467.118 471.412 464.49 468.46 461.758C461.323 455.157 459.885 457.78 454.692 448.822C457.623 434.704 467.907 429.881 479.323 422.951C484.915 419.555 486.776 419.016 493.124 417.772L500.143 420.742C500.791 422.933 502.426 428.153 502.739 430.286C503.075 432.576 501.127 433.963 502.262 437.651C505.608 438.057 508.35 437.262 511.678 438.436C517.718 440.566 520.416 445.003 522.241 450.757C528.178 441.722 537.91 432.978 548.083 429.043C551.803 429.905 554.327 430.141 557.37 432.427C561.321 430.155 566.02 426.837 570.747 428.682C575.508 430.542 576.955 428.714 580.623 426.047L580.927 426.038C585.914 425.888 588.745 425.803 593.113 428.998C596.973 426.511 598.077 425.853 602.77 424.948C615.503 429.746 618.855 437.266 628.263 446.168C630.725 448.494 635.508 439.855 637.463 438.746C639.627 437.491 641.244 438.846 643.097 437.127C643.965 432.465 641.599 425.967 642.049 421.465C643.413 407.697 643.024 394.157 642.709 380.358C643.249 359.752 642.618 339.2 643.441 318.645C643.475 317.909 642.517 316.123 642.145 315.523C642.956 312.425 643.633 312.483 643.542 308.969C643.063 289.896 642.123 271.098 642.934 252.017C643.345 242.288 640.838 238.965 644.179 228.859L643.993 228.144C643.12 224.78 643.12 218.566 642.37 217.322C635.446 215.871 627.734 233.638 624.348 208.3C612.066 219.54 616.731 225.765 609.277 239.839C606.037 245.966 603.283 245.741 601.26 249.773C601.468 253.804 609.48 260.855 602.832 267.833C599.823 270.988 592.206 273.326 588.032 273.316C586.308 273.303 584.584 273.258 582.86 273.18C574.291 283.007 563.358 286.108 550.511 288.084C542.584 289.302 534.641 274.084 531.425 268.374C520.045 248.173 522.308 232.218 546.697 226.24C549.641 225.519 550.963 227.155 552.761 224.159C552.296 222.843 552.051 223.146 551.563 222.672C547.202 217.559 546.927 206.526 545.908 200.218C545.256 196.182 545.585 187.684 548.718 185.548C557.187 179.773 553.988 177.051 557.985 169.344C559.07 167.253 563.428 166.68 564.617 164.845C565.851 161.115 564.679 157.431 567.203 153.713C569.372 150.53 574.95 152.827 576.939 150.018C579.558 146.315 578.719 144.024 581.75 139.409C594.55 136.165 598.387 136.797 610.105 134.84C609.26 131.678 608.381 129.272 609.931 126.072C612.133 121.511 621.063 117.296 625.734 115.687C620.438 113.666 599.316 110.265 595.266 111.829C583.812 112.606 572.753 111.682 561.414 112.685C552.53 113.692 543.755 113.495 534.879 114.796C532.472 115.149 527.59 113.433 524.609 113.676C522.782 113.826 515.014 116.006 514.044 115.639C506.883 112.927 500.825 115.843 493.549 115.677C490.578 115.779 485.599 113.978 482.897 114.167C467.609 115.239 452.746 114.696 437.476 114.416C399.399 113.715 360.784 111.033 322.449 113.191C303.887 114.236 285.73 114.442 267.205 114.883L230.925 115.68C220.805 115.969 211.885 115.371 202.221 118.162Z" fill="#DDE9FF"/>
<path d="M366.586 486.818C355.482 500.963 345.604 485.099 338.819 493.092C337.709 494.412 336.833 495.912 336.229 497.528C337.881 498.782 338.641 497.527 340.013 498.252C348.117 502.535 356.801 506.778 365.438 509.922C370.573 512.109 380.33 515.16 384.316 517.45C387.061 512.069 388.886 502.955 390.674 496.762C386.134 496.126 368.794 489.544 366.586 486.818Z" fill="#FAE6C6"/>
<path d="M538.246 471.448C532.358 476.823 517.389 484.149 510.475 477.003C506.704 473.105 508.659 467.284 509.708 462.739C511.776 460.869 514.09 458.672 516.203 456.909C514.043 455.299 512.041 454.115 510.948 451.707C510.179 450.014 509.611 449.036 508.094 448.09C505.949 447.831 504.012 448.845 501.913 449.639C484.675 440.123 495.556 434.225 492.407 428.321L491.856 428.212C482.887 432.184 469.849 438.798 464.524 446.999C473.967 457.211 476.303 449.263 480.236 466.881C484.61 467.193 490.631 467.275 494.927 466.399C496.522 467.441 500.756 470.163 501.592 471.259C510.517 482.957 504.035 486.8 521.977 483.205C525.769 482.445 528.473 481.263 532.222 480.153C533.847 479.968 541.914 478.127 543.274 477.289L543.937 476.053C542.96 473.406 540.851 472.797 538.246 471.448Z" fill="#FAE6C6"/>
<path d="M579.333 232.864C579.006 239.332 573.761 246.349 566.662 246.829C563.828 247.02 560.875 242.37 559.089 240.563C557.444 238.862 558.276 236.317 557.541 234.249C556.831 234.876 548.466 237.042 547.783 237.154C542.238 238.063 537.556 241.763 533.165 245.103C536.671 258.051 537.915 261.136 544.723 272.666L545.015 273.143C546.411 275.423 547.729 277.576 549.283 279.784C554.186 278.738 559.611 277.787 564.319 276.127C570.809 273.77 574.555 267.343 580.786 264.664C584.725 262.971 592.218 266.087 595.091 262.353C598.33 258.144 588.747 249.596 586.24 246.48C583.626 243.223 581.31 237.436 580.488 233.559L579.333 232.864Z" fill="#FAE6C6"/>
<path d="M279.627 364.401L282.38 359.326C288.039 345.615 288.172 350.405 296.13 342.412C296.877 339.916 297.66 337.04 298.476 334.603C286.394 339.375 283.58 336.847 276.525 326.5C271.637 335.089 264.442 345.265 261.872 354.336C269.428 355.421 275.628 357.761 279.627 364.401Z" fill="#FAE6C6"/>
<path d="M399.018 666.012L397.191 878.939L396.496 946.922C396.346 958.124 394.878 973.073 396.586 983.588C401.955 983.734 406.579 983.441 411.904 983.075C417.423 982.686 423.102 983.058 428.711 982.957L430.429 982.878C432.481 979.706 430.004 967.968 430.216 964.086C431.128 947.931 430.811 931.731 430.188 915.571C430.008 910.922 430.965 905.867 430.747 901.281C430.114 887.949 431.286 874.719 430.155 861.404C430.183 857.69 432.546 853.425 431.287 849.734C429.705 845.102 430.563 840.78 430.715 835.996C430.941 828.897 431.504 821.6 431.546 814.505L431.268 692.62C431.242 684.314 432.081 676.341 432.009 667.483C428.436 666.469 405.841 666.581 399.018 666.012Z" fill="#232C3C"/>
<path d="M626.066 663.482C621.936 664.249 620.303 664.26 616.055 664.26C615.801 671.833 616.815 680.635 617.142 688.36L618.68 690.552C618.449 697.483 618.798 704.391 619.193 711.31C619.362 714.229 621.153 718.078 621.131 720.495C621.007 736.154 623.75 751.717 624.5 767.354C624.855 774.814 625.841 782.224 625.666 789.712C625.711 791.803 627.356 795.077 627.322 797.009C627.131 808.882 628.906 820.568 629.998 832.345C630.669 839.569 630.286 847.26 631.024 854.529C631.21 856.383 631.801 857.273 632.872 858.733C632.939 859.854 632.849 860.384 632.5 861.443C632.1 862.643 637.627 927.071 638.201 933.331C638.618 937.867 639.559 942.358 639.903 946.9C640.686 957.285 640.99 967.833 641.604 978.24C641.83 982.089 643.897 985.335 643.734 989.324C642.878 1010.27 646.9 1033.28 648.635 1054.26C650.162 1072.67 651.176 1091.04 653.385 1109.39C653.813 1112.95 653.582 1117.12 654.624 1120.51C659.131 1120.4 662.247 1119.54 667.503 1120.77C669.971 1120.73 674.225 1120.2 676.298 1118.79C676.315 1117.27 676.027 1117.22 675.222 1115.76C675.385 1114.28 675.667 1114.09 676.495 1112.85C676.281 1106.63 674.146 1096.64 673.34 1089.85C672.095 1079.4 673.075 1066.28 670.467 1056.54C669.109 1051.46 670.748 1049.98 670.298 1047.21C669.272 1040.93 668.996 1035.42 668.41 1029.17L653.779 871.991C653.193 866.289 655.841 866.819 652.421 860.682C652.433 860.705 652.331 845.294 651.706 843.429C651.362 842.386 651.334 834.114 651.171 832.407L641.17 722.123L637.756 683.627C636.855 674.081 635.925 673.619 636.055 663.133C633.041 663.189 628.86 663.494 626.066 663.482Z" fill="#232C3C"/>
<path d="M231.382 661.831C226.205 661.978 216.168 661.55 212.269 664.254C210.02 667.139 202.199 768.492 199.255 780.128C198.764 782.072 199.159 792.626 198.818 795.888L180.652 980.956L172.01 1060.84C170.417 1074.66 168.567 1088.32 167.663 1102.26C167.494 1104.86 167.011 1107.18 167.006 1109.84L167.688 1110.8L169.453 1110.84C174.102 1111.59 184.647 1113.01 188.966 1111.65C189.173 1111.37 193.811 1064.72 194.182 1059.62C195.316 1044.03 197.624 1028.4 199.181 1012.83C199.67 1007.95 199.573 1003.02 200.115 998.131C200.835 991.634 202.049 985.182 202.7 978.68L211.457 887.357L216.047 841.558C216.53 836.56 217.696 831.353 218.12 826.333C218.374 823.329 217.983 819.712 217.981 816.647C220.411 812.888 219.057 815.052 219.37 811.829C223.442 769.884 228.572 727.781 231.73 685.751C232.155 680.099 235.646 664.728 232.913 661.583C231.767 661.555 232.125 661.347 231.382 661.831Z" fill="#232C3C"/>
<path d="M302.131 210.28C312.561 209.443 317.352 212.095 326.569 215.667C338.795 232.314 341.567 236.266 340.765 258.745C338.647 261.431 338.564 263.075 337.245 266.169C333.166 275.741 326.479 277.395 317.524 280.814C311.333 281.941 299.701 281.723 294.465 277.599C279.663 265.945 272.1 237.345 284.414 221.622C285.389 220.378 285.773 219.693 286.486 218.259L286.728 217.763C292.269 214.357 295.687 211.854 302.131 210.28ZM288.926 229.566C285.722 240.792 285.125 245.287 289.299 256.659C290.362 259.555 291.546 261.697 292.243 264.733C297.166 269.491 299.041 271.986 305.383 274.642C308.511 272.682 309.321 272.142 312.781 270.982C320.306 269.011 322.646 268.965 328.786 264.063L328.796 263.235C328.887 258.409 330.342 256.863 331.125 252.702C331.761 249.319 330.146 241.627 329.135 238.567C326.301 229.991 323.37 222.73 313.223 222.036C309.69 221.794 308.018 219.304 303.338 219.766C296.048 221.581 294.07 224.135 288.926 229.566Z" fill="#232C3C"/>
<path d="M396.589 320.254C405.717 318.638 428.849 336.227 429.345 348.065C429.967 362.882 428.451 365.283 416.389 371.869C404.391 378.42 392.074 369.352 388.586 370.045C389.814 372.829 388.96 374.244 387.836 376.828C386.274 382.48 385.982 401.447 380.858 403.103C379.325 402.555 378.406 401.993 377.74 400.433C375.387 394.922 387.608 330.747 391.347 322.079C392.771 320.578 394.441 320.613 396.589 320.254ZM409.767 362.287C417.112 359.818 417.756 357.573 419.277 350.294C414.927 341.685 412.091 338.61 403.689 334.01C401.407 332.761 400.024 331.485 397.397 330.447C395.679 339.351 392.901 350.296 390.719 359.287C392.876 361.51 400.776 362.766 403.857 363.362C404.807 363.545 408.6 362.579 409.767 362.287Z" fill="#232C3C"/>
<path d="M475.789 207.37C476.868 207.46 479.874 207.635 480.509 208.508C486.929 218.333 486.773 233.323 489.076 244.708C489.56 247.101 492.359 259.262 493.091 260.042C495.232 257.625 496.432 247.855 497.752 243.985C501.425 233.217 505.882 222.445 510.644 212.104C511.673 209.869 513.351 209.066 515.663 209.022C519.172 210.567 520.718 216.498 519.145 219.456C514.523 228.143 510.747 236.916 507.39 246.184C503.578 256.706 502.409 269.482 498.364 279.691C496.235 283.42 496.085 288.592 491.239 289.173C481.374 286.418 481.58 242.076 476.871 236.413C472.346 243.22 471.336 283.13 468.418 286.867C464.577 287.985 463.317 283.93 461.895 281.016C465.576 265.474 464.928 248.463 468.625 232.75C470.346 225.431 469.442 211.561 475.789 207.37Z" fill="#232C3C"/>
<path d="M362.582 214.079C375.179 213.287 389.287 222.153 391.709 234.956C392.276 237.951 393.836 240.547 394.358 243.688C395.553 250.878 390.494 253.843 386.919 259.305C381.575 260.709 379.574 261.87 374.736 264.26C370.769 263.537 366.097 262.374 362.194 262.96C360.673 263.931 361.152 263.379 360.652 265.613C360.568 270.588 360.559 286.754 355.959 289.119C353.748 288.876 353.904 288.418 352.017 286.667C350.558 281.738 356.487 238.256 355.918 230.457C355.489 224.588 356.153 216.484 362.582 214.079ZM372.171 254.046C373.278 253.529 375.76 252.463 376.644 251.827C379.178 250.344 382.517 248.652 383.168 245.509C384.805 237.62 377.427 228.873 370.985 225.225C369.968 224.65 367.601 224.441 366.203 223.843L366.183 224.459C365.963 229.811 360.79 248.106 362.742 251.201C364.322 252.177 369.185 252.936 372.171 254.046Z" fill="#232C3C"/>
<path d="M346.355 312.008C350.27 311.262 356.372 310.784 356.331 317.804C356.323 319.051 355.044 319.883 354.097 320.542C351.716 320.615 351.812 320.227 349.55 319.022C344.257 323.261 337.679 329.067 337.734 336.601C337.76 340.2 339.568 341.482 341.995 343.804C350.44 345.214 361.33 347.668 365.824 355.845C372.717 368.387 368.467 386.414 356.913 394.734C354.249 396.653 349.367 398.87 346.286 400.672C333.436 401.11 330.205 400.502 320.91 392.375C319.107 391.031 315.11 385.237 313.354 383.018C313.738 379.868 313.454 378.944 315.625 377.042C321.796 375.51 327.605 385.01 332.236 388.279C334.026 389.544 336.394 390.29 338.479 390.986C339.977 390.692 342.184 390.137 343.618 389.673C349.339 387.807 354.051 383.687 356.663 378.265C360.039 371.274 359.575 366.008 357.182 358.95C351.075 354.479 347.141 354.523 340.369 352.026C339.054 351.541 332.8 346.557 331.294 345.411C327.85 332.953 334.82 317.605 346.355 312.008Z" fill="#232C3C"/>
<path d="M448.444 338.009L454.221 339.191C455.378 341.573 456.976 343.811 458.493 345.982C457.64 348.834 459.568 352.187 460.332 355.24C462.563 364.153 464.506 373.178 466.849 382.055C468.266 387.424 472.875 393.157 472.477 399.064C471.23 401.726 468.247 404.717 465.141 404.3C460.926 401.276 457.844 386.081 455.457 379.572C452.917 379.01 450.622 378.964 448.032 378.81C446.99 379.051 440.184 382.901 438.592 383.725C435.841 389.759 434.713 404.732 429.795 407.627C427.593 407.76 428.613 407.963 426.621 406.973C425.838 405.068 425.737 401.975 426.35 400.129C429.745 389.895 441.521 342.747 448.444 338.009ZM445.625 371.566C448.477 370.919 450.342 370.989 453.118 370.663C452.526 366.296 451.161 357.848 449.928 353.666C447.305 358.027 443.341 366.963 442.367 371.856L442.605 372.605C443.691 372.273 444.572 372.021 445.625 371.566Z" fill="#232C3C"/>
<path d="M438.803 209.102C442.476 208.948 446.219 210.066 447.386 213.645C450.451 223.052 422.376 226.406 416.54 227.86C418.571 235.42 419.205 250.059 420.493 254.09C424.844 254.024 433.211 244.805 438.637 248.67C439.659 250.646 439.901 250.989 439.943 253.191C437.596 258.337 430.52 256.416 426.124 260.596C425.516 261.174 424.771 261.303 423.941 261.328C421.025 259.729 423.302 260.704 421.25 258.32C419.404 262.311 421.844 269.877 421.652 274.414C421.547 276.868 421.457 279.366 423.401 280.96C425.538 281.069 425.799 280.74 427.76 279.636C433.34 278.48 434.479 278.564 438.672 274.765C441.517 275.851 445.285 277.378 446.102 280.602C443.545 287.432 432.363 284.21 427.862 288.59C425.682 290.713 423.665 287.132 422.863 287.136C419.609 287.153 419.4 288.425 416.2 286.968C413.153 274.196 413.573 261.601 411.767 248.289C410.733 240.665 407.72 231.076 407.563 223.217C407.427 216.35 434.999 216.122 438.51 209.481C438.607 209.355 438.705 209.228 438.803 209.102Z" fill="#232C3C"/>
<path d="M538.183 320.073C541.192 319.816 542.378 319.908 544.692 321.835C545.603 323.4 545.83 324.081 545.449 325.909C543.425 335.612 524.294 329.888 522.374 340.162C521.775 343.369 523.318 349.285 524.974 352.06C525.537 353.002 526.196 351.915 526.975 351.903C532.035 349.847 546.078 345.32 550.211 349.837C550.783 352.971 548.944 356.8 546.325 358.516C544.797 358.624 543.473 358.364 542.383 357.448C538.744 354.387 532.679 358.271 528.235 358.664C527.801 358.702 526.894 357.417 525.665 357.695C525.645 360.318 528.118 378.031 529.145 379.678C532.306 375.163 536.408 374.236 541.735 373.81L542.397 373.761C548.173 373.28 554.405 368.788 561.09 372.187C562.476 374.03 562.102 373.193 562.246 375.646C559.921 381.281 552.993 378.582 547.573 379.802C543.946 380.618 536.595 383.682 533.111 383.228C529.095 382.704 530.746 384.276 528.527 387.546C526.71 388.14 527.408 388.027 525.3 387.385C523.793 385.586 522.195 382.056 521.69 379.739C519.347 368.917 517.891 357.881 515.352 347.081C514.094 341.728 512.704 336.928 512.864 331.379C514.925 328.856 533.68 322.067 538.183 320.073Z" fill="#232C3C"/>
<path d="M487.462 334.38C489.432 334.44 489.335 334.445 491.141 335.282C491.818 336.201 492.601 337.174 492.106 338.516C488.387 348.611 479.204 358.897 483.116 370.364C484.232 373.637 485.209 376.088 486.086 379.457C498.945 390.249 499.957 379.588 510.132 383.449C513.124 386.573 510.584 389.15 508.306 391.863C506.327 393.65 499.799 394.265 496.889 394.605C492.034 394.987 486.846 392.337 483.44 389.067C468.521 374.742 474.802 347.752 487.462 334.38Z" fill="#232C3C"/>
</svg>
