<svg width="500" height="400" viewBox="0 0 500 400" fill="none" xmlns="http://www.w3.org/2000/svg">
<path d="M333.845 61.8595C334.7 61.4402 336.395 61.9385 337.132 62.531C338.827 63.8905 339.535 65.8562 339.89 67.8712C340.857 73.3967 338.255 76.5685 335.002 80.6222C334.152 81.7362 334.072 82.3495 333.702 83.67C332.652 84.5737 331.122 85.4782 330.255 86.5165C329.075 87.8215 328.097 90.087 326.835 91.2397C323.33 94.4387 319.925 97.7135 316.525 101.021C315.297 102.338 311.84 103.142 310.697 104.131C307.42 106.968 305.237 109.043 301.192 110.802C300.342 111.171 297.202 114.164 296.215 114.938C293.377 117.165 289.692 118.59 287.705 121.608C286.73 123.109 285.44 123.049 283.737 123.202C288.542 128.017 294.677 132.531 298.975 137.6C302.275 142.081 304.882 146.929 307.832 151.615C311.32 157.154 315.65 162.688 317.955 168.892C319.517 173.103 318.225 173.177 321.672 176.579C321.997 177.684 320.455 179.772 321 181.108C322.755 185.414 325.055 187.609 324.93 192.565C324.897 193.807 326.622 197.392 326.757 198.807C326.875 200.031 325.495 201.466 326.492 202.885C327.167 204.341 328.275 206.139 328.112 207.789C327.632 212.478 326.415 215.78 327.692 220.557C328.94 225.222 326.33 230.532 326.215 235.201C326.212 235.327 327.292 237.967 327.445 238.367C326.492 241.713 324.622 244.727 324.272 248.564C324.202 249.331 322.825 252.4 322.525 253.397C321.522 257.245 319.772 261.372 318.612 265.065C316.73 271.065 315.315 274.782 311.132 279.56C309.865 281.007 308.542 285.087 307.1 287.005C305.107 289.652 303.087 291.805 300.74 294.155C298.135 296.685 295.025 302.21 292.207 304.262C286.352 308.53 279.852 313.15 273.627 316.945C273.007 317.322 269.687 319.687 269.42 319.742C265.365 320.552 262.862 321.672 259.385 323.867C257.527 325.01 254.312 325.767 252.43 326.912C249.161 328.902 247.35 327.587 243.971 327.422C242.858 327.385 240.978 328.865 239.078 328.985C230.266 329.545 221.6 329.02 212.808 328.992C212.176 328.525 210.909 327.615 210.171 327.385C207.974 326.7 204.513 325.095 202.381 325.955C200.629 325.652 199.036 323.88 197.872 323.635C191.998 322.41 188.222 322.155 183.513 318.075C182.749 317.412 179.117 316.567 177.962 315.832C174.851 313.857 171.618 311.895 168.548 309.817C167.178 308.547 166.462 307.85 164.941 306.83C163.694 305.995 160.472 304.402 159.499 303.52C157.833 301.97 156.635 300.035 155.014 298.422C153.803 297.217 152.522 296.205 151.243 295.092C149.938 293.917 148.366 292.852 147.175 291.567C141.421 285.36 136.837 278.16 132.396 270.99C131.979 270.317 131.836 268.392 131.75 267.547C128.333 263.387 127.548 260.605 125.577 255.692C124.41 252.78 122.694 250.865 122.523 247.434C122.513 247.232 120.052 243.061 119.721 242.463C118.309 239.914 119.443 240.462 119.591 237.979C119.408 236.337 117.304 232.781 118.185 230.979C119.212 228.878 117.388 228.662 117.062 226.91C116.763 225.304 117.018 222.38 116.546 220.802C116.099 219.073 114.798 217.169 114.327 215.515C113.277 211.83 112.054 208.502 110.367 205.052C110.073 204.452 110.502 204.069 110.825 203.511C110.752 202.224 109.042 199.493 108.778 197.301C108.313 193.439 107.364 189.382 106.639 185.566C106.309 183.832 106.55 183.48 105.889 181.61C107.282 178.172 108.083 172.654 109.019 168.82C110.246 163.799 112.057 159.264 113.704 154.355C114.488 152.016 116.948 149.617 118.225 147.674C120.522 144.18 122.957 141.05 125.443 137.705C126.459 136.339 128.096 134.889 129.181 133.473C130.715 131.471 131.979 129.31 133.656 127.425C135.53 125.318 139.913 123.711 141.374 121.642C143.964 117.975 142.532 112.466 146.059 108.443C147.649 106.63 149.232 105.787 151.465 105.061C156.485 103.429 158.923 103.865 163.531 106.147C163.915 106.358 165.652 107.046 166.024 106.842C167.469 106.05 167.883 105.24 169.681 104.861C171.205 104.541 173.029 103.954 174.356 103.166C175.484 102.497 176.572 101.642 177.756 101.063C178.595 100.689 180.156 100.964 181.355 100.441C185.169 98.7787 188.973 96.961 192.778 95.3032C193.972 94.783 197.056 95.0895 198.375 94.889C199.962 94.6477 201.722 93.3445 203.364 93.104C205.401 92.8055 207.694 93.0865 209.753 92.9687C211.73 92.8557 213.946 92.2195 215.892 92.1035C217.904 91.9837 220.128 91.9137 222.151 91.8875C226.76 91.8272 230.843 90.532 234.663 93.7127C236.926 94.0385 239.519 93.8702 241.828 94.1692C243.008 94.322 244.078 94.6107 245.25 94.7937C245.577 94.845 246.175 94.6007 246.177 94.601C250.49 95.4987 256.267 101.856 261.052 99.4022C262.957 98.3972 264.76 97.1727 266.597 96.0432C273.327 91.9082 279.825 87.4575 286.502 83.2412C290.192 80.8122 294.272 77.3925 298.177 75.3527C304.082 72.267 310.385 69.6015 316.325 66.5355C317.685 65.8335 320.317 65.4987 321.837 64.8825C325.995 63.1947 329.305 62.0447 333.845 61.8595ZM130.702 241.265C131.33 245.899 132.231 245.804 134.059 249.997C134.978 252.255 135.549 254.84 136.551 257.057C139.358 263.267 142.02 269.68 146.383 274.992C147.261 276.062 146.735 277.19 148.272 278.082C150.548 279.4 151.807 281.9 153.527 283.8C156.037 286.537 158.577 289.242 160.972 292.09C161.368 292.56 164.529 294.38 165.529 295.082C167.991 296.867 170.029 299.527 172.404 301.355C176.364 304.402 181.186 306.512 185.436 308.98C189.881 311.56 191.843 312.935 196.836 314.592C205.848 316.25 206.936 320.002 218.151 317.095C219.761 317.742 220.483 318.067 221.971 318.937C226.908 316.38 233.409 318.807 238.586 317.91C243.124 317.122 243.238 314.855 248.141 316.935L248.443 316.74C252.172 314.372 258.567 312.537 262.402 309.432C263.75 308.877 266.417 308.762 267.555 307.96C270.592 305.812 277.137 302.195 279.43 299.427C282.012 296.31 287.227 294.087 289.13 292.002C297.317 283.012 304.867 271.987 309.322 260.645C311.255 255.835 310.737 256.942 311.687 252.14C312.502 248.019 314.762 242.566 315.87 238.352L314.887 235.803C316.537 230.954 317.182 227.278 316.665 222.158C316.65 222.031 317.185 219.703 317.26 219.324C316.74 218.287 316.302 217.485 315.947 216.372C316.66 213.551 316.05 212.131 317.385 209.907C316.68 205.383 315.022 200.338 314.925 195.929C314.822 191.295 312.19 188.514 311.062 184.4C309.795 179.774 309.7 176.389 306.26 172.679C305.792 172.172 306.402 171.248 306.422 170.67C305.807 169.741 304.615 168.159 304.025 167.24C303.965 166.061 303.927 164.77 303.83 163.605C301.95 161.092 299.682 160.392 298.645 157.356C297.995 155.455 294.077 148.95 292.78 147.374C288.24 142.311 283.125 135.928 277.915 131.636C272.925 127.524 266.487 123.848 260.952 120.545C259.175 119.484 256.992 117.184 255.002 117.223C253.03 118.105 250.972 117.94 248.906 118.591C247.533 119.023 244.434 121.936 243.604 121.901C239.347 121.719 240.16 122.151 236.959 124.288C235.014 125.586 230.424 126.725 228.261 128.116C226.427 129.076 224.547 130.258 222.761 131.28C222.08 131.77 219.064 132.782 218.642 133.242C216.094 136.023 213.188 136.229 210.227 137.92C207.738 139.342 204.973 142.482 202.367 144.001C200.542 145.066 199.309 145.239 197.493 146.128C192.379 149.784 187.277 153.292 181.853 156.494C180.319 157.4 178.841 158.826 177.336 159.799C173.776 162.055 172.282 162.305 169.674 165.746C166.705 166.769 165.815 167.409 163.198 169.084C158.132 172.326 153.161 175.432 148.554 179.334C146.15 181.33 143.265 181.962 141.381 184.791C136.844 185.434 134.191 189.114 130.359 191.663C129 192.567 127.271 193.433 126.188 194.2C125.904 196.709 126.006 199.312 125.955 201.863C125.918 203.717 125.398 205.824 125.458 207.63C125.657 212.918 125.871 218.291 126.258 223.563C126.403 225.539 127.87 228.601 128.214 230.756C128.753 234.145 128.215 238.661 130.702 241.265ZM154.581 126.986C153.909 128.68 152.216 132.831 151.789 134.381C149.32 143.331 145.4 162.599 146.138 171.427C149.315 167.816 152.445 165.759 156.467 163.211C158.829 161.715 161.336 158.519 164.136 158.134L164.469 158.086C168.486 152.76 178.198 148.596 184.091 144.732L208.382 128.502C206.67 127.88 206.077 127.57 204.488 126.651C202.212 120.218 193.474 119.618 187.86 118.296C183.499 117.269 181.163 116.076 176.457 116.118C168.341 116.393 160.784 122.336 154.581 126.986Z" fill="#232C3C"/>
<path d="M154.581 126.986C153.909 128.68 152.216 132.831 151.789 134.381C149.32 143.331 145.4 162.599 146.138 171.427C149.315 167.816 152.445 165.759 156.467 163.211C158.829 161.715 161.336 158.519 164.136 158.134L164.469 158.086C168.486 152.76 178.198 148.596 184.091 144.732L208.382 128.502C206.67 127.88 206.077 127.57 204.488 126.651C202.212 120.218 193.474 119.618 187.86 118.296C183.499 117.269 181.163 116.076 176.457 116.118C168.341 116.393 160.784 122.336 154.581 126.986Z" fill="#93B9FF"/>
<path d="M130.702 241.265C131.33 245.899 132.231 245.804 134.059 249.997C134.978 252.255 135.549 254.84 136.551 257.057C139.358 263.267 142.02 269.68 146.383 274.992C147.261 276.062 146.735 277.19 148.272 278.082C150.548 279.4 151.807 281.9 153.527 283.8C156.037 286.537 158.577 289.242 160.972 292.09C161.368 292.56 164.529 294.38 165.529 295.082C167.991 296.867 170.029 299.527 172.404 301.355C176.364 304.402 181.186 306.512 185.436 308.98C189.881 311.56 191.843 312.935 196.836 314.592C205.848 316.25 206.936 320.002 218.151 317.095C219.761 317.742 220.483 318.067 221.971 318.937C226.908 316.38 233.409 318.807 238.586 317.91C243.124 317.122 243.238 314.855 248.141 316.935L248.443 316.74C252.172 314.372 258.567 312.537 262.402 309.432C263.75 308.877 266.417 308.762 267.555 307.96C270.592 305.812 277.137 302.195 279.43 299.427C282.012 296.31 287.227 294.087 289.13 292.002C297.317 283.012 304.867 271.987 309.322 260.645C311.255 255.835 310.737 256.942 311.687 252.14C312.502 248.019 314.762 242.566 315.87 238.352L314.887 235.803C316.537 230.954 317.182 227.278 316.665 222.158C316.65 222.031 317.185 219.703 317.26 219.324C316.74 218.287 316.302 217.485 315.947 216.372C316.66 213.551 316.05 212.131 317.385 209.907C316.68 205.383 315.022 200.338 314.925 195.929C314.822 191.295 312.19 188.514 311.062 184.4C309.795 179.774 309.7 176.389 306.26 172.679C305.792 172.172 306.402 171.248 306.422 170.67C305.807 169.741 304.615 168.159 304.025 167.24C303.965 166.061 303.927 164.77 303.83 163.605C301.95 161.092 299.682 160.392 298.645 157.356C297.995 155.455 294.077 148.95 292.78 147.374C288.24 142.311 283.125 135.928 277.915 131.636C272.925 127.524 266.487 123.848 260.952 120.545C259.175 119.484 256.992 117.184 255.002 117.223C253.03 118.105 250.972 117.94 248.906 118.591C247.533 119.023 244.434 121.936 243.604 121.901C239.347 121.719 240.16 122.151 236.959 124.288C235.014 125.586 230.424 126.725 228.261 128.116C226.427 129.076 224.547 130.258 222.761 131.28C222.08 131.77 219.064 132.782 218.642 133.242C216.094 136.023 213.188 136.229 210.227 137.92C207.738 139.342 204.973 142.482 202.367 144.001C200.542 145.066 199.309 145.239 197.493 146.128C192.379 149.784 187.277 153.292 181.853 156.494C180.319 157.4 178.841 158.826 177.336 159.799C173.776 162.055 172.282 162.305 169.674 165.746C166.705 166.769 165.815 167.409 163.198 169.084C158.132 172.326 153.161 175.432 148.554 179.334C146.15 181.33 143.265 181.962 141.381 184.791C136.844 185.434 134.191 189.114 130.359 191.663C129 192.567 127.271 193.433 126.188 194.2C125.904 196.709 126.006 199.312 125.955 201.863C125.918 203.717 125.398 205.824 125.458 207.63C125.657 212.918 125.871 218.291 126.258 223.563C126.403 225.539 127.87 228.601 128.214 230.756C128.753 234.145 128.215 238.661 130.702 241.265Z" fill="#DDE9FF"/>
<path d="M300.725 210.053C301.095 210.026 301.523 210 301.895 210.011C303.835 210.067 307.958 213.175 307.895 215.166C306.7 217.07 308.745 219.465 309.82 221.537C307.945 226.786 309.948 234.053 308.668 239.269C308.078 241.678 304.703 246.806 303.43 249.552C300.905 255.005 293.673 254.308 289 255.763L288.72 255.853C284.225 254.585 280.623 253.775 276.715 251.233C273.253 249.165 271.973 247.617 269.125 245.099C264.84 241.311 265.033 241.125 264.588 235.752C262.128 233.937 260.623 230.768 264.163 228.892C267.408 227.174 272.03 226.508 275.373 224.747C277.535 223.722 279.623 221.424 281.725 220.428C286.565 218.189 290.84 216.438 295.125 213.186C296.33 212.271 299.198 210.998 300.725 210.053ZM279.638 241.425C284.473 245.369 287.038 245.979 293.223 246.047C300.363 238.784 300.05 236.832 300.318 227.096C300.363 225.506 300.2 223.103 300.593 221.623C300.4 221.185 300.503 221.255 300.18 220.965C297.778 222.129 295.348 222.852 292.915 224.111C289.053 226.109 285.198 228.15 281.338 230.15C280.033 230.826 273.868 232.801 273.433 233.747C273.665 236.481 277.435 240.001 279.638 241.425Z" fill="#232C3C"/>
<path d="M176.999 200.07C182.759 199.559 192.428 202.366 187.74 209.756C187.635 209.922 179.557 209.317 178.57 209.354C178.157 208.974 178.014 208.793 177.662 208.37C176.792 208.418 172.503 211.891 171.647 212.745C164.455 219.923 165.266 236.18 172.876 242.701C174.397 244.004 178.531 247.411 180.759 246.843C182.783 246.327 184.09 245.973 186.301 245.839C186.85 244.014 187.398 243.096 188.43 241.538C189.65 240.895 190.752 240.458 192.025 239.937C194.754 241.856 194.693 242.885 196.853 245.324C197.409 246.924 195.474 250.022 195.048 251.812C194.747 253.08 193.265 253.987 192.047 254.47C185.838 256.935 177.794 259.112 172.059 254.397C169.814 252.55 168.564 250.847 165.852 249.704L165.544 249.576C163.803 247.102 161.417 243.436 160.415 240.79C156.71 231.006 157.054 218.592 163.026 209.746C163.917 208.426 164.694 206.822 165.31 205.333C167.484 203.566 170.072 203.402 172.581 202.169C174.182 201.382 175.305 200.665 176.999 200.07Z" fill="#232C3C"/>
<path d="M264.67 177.041C271.96 176.391 287.188 183.762 290.15 190.262C290.523 191.092 290.778 191.97 290.908 192.87C291.115 194.312 290.97 196.168 290.99 197.708C290.933 198.91 291.75 201.333 291.268 202.353C289.315 206.483 284.873 209.282 280.703 210.787C279 211.4 277.393 212.215 275.56 212.037C273.67 211.853 271.843 211.391 269.968 211.115C268.74 211.898 267.005 213.933 265.748 213.961C262.61 214.033 256.643 213.355 254.228 211.488C253.008 209.919 251.455 208.317 250.995 206.219C250.293 201.997 254.085 200.708 257.293 199.974C261.26 199.066 261.253 204.518 263.173 203.666C266.305 202.276 267.91 201.89 271.398 201.663C273.148 201.55 274.37 201.954 276.115 202.385C280.985 201.237 285.698 198.338 281.265 193.486C277.02 188.838 273.538 187.086 267.798 185.415C265.768 184.825 262.713 185.9 261.015 183.817C259.49 181.42 262.993 178.108 264.67 177.041Z" fill="#232C3C"/>
<path d="M246.956 159.581C248.753 159.715 250.038 161.369 250.995 162.749C251.85 176.533 244.302 181.13 232.12 184.147C230.238 183.453 228.585 183.739 228.007 183.558C225.934 182.909 220.821 180.209 219.588 178.583C216.513 174.787 216.821 174.021 217.072 169.244C217.812 168.953 219.299 168.251 219.952 168.228C223.248 168.109 227.994 173.439 230.326 175.754C230.422 175.711 230.897 175.487 230.991 175.47C233.354 175.051 235.036 173.196 237.108 172.301C237.702 172.045 237.617 172.792 238.864 172.605C242.869 169.35 240.285 163.616 244.312 160.335C244.77 159.961 246.322 159.701 246.956 159.581Z" fill="#232C3C"/>
<path d="M176.365 239.018C175.698 237.305 175.009 235.813 175.286 233.954C175.735 230.94 173.24 228.229 171.885 225.599C168.026 218.107 175.011 218.198 179.715 220.755C181.571 221.763 184.377 223.126 186.379 223.932C189.113 222.065 191.888 220.029 194.795 222.312C195.114 224.444 195.73 225.925 195.155 228.268C195.062 228.648 195.238 228.962 195.399 229.305C193.579 230.352 193.775 230.523 191.585 230.732C188.017 231.072 188.38 232.495 184.173 231.979C183.956 237.506 183.07 244.089 176.365 239.018Z" fill="#232C3C"/>
<path d="M281.732 150.042C287.467 150.058 285.87 152.944 286.117 157.011C286.447 162.436 280.847 166.419 275.947 167.071C274.34 167.285 272.892 167.072 271.245 167.674C270.36 167.998 266.125 164.316 265.347 163.696C264.215 162.511 260.032 158.466 261.102 156.648C264.975 150.158 268.68 156.969 272.245 158.494C276.432 160.286 277.665 151.844 281.732 150.042Z" fill="#232C3C"/>
<path d="M194.794 222.312C197.059 224.34 198.653 227.256 195.399 229.305C195.238 228.962 195.062 228.648 195.155 228.268C195.73 225.925 195.114 224.444 194.794 222.312Z" fill="#232C3C"/>
</svg>
