<svg width="500" height="400" viewBox="0 0 500 400" fill="none" xmlns="http://www.w3.org/2000/svg">
<path d="M184.425 62.3667C187.983 61.9542 191.872 63.6472 195.38 64.0252C200.064 64.53 204.621 64.6427 209.212 65.9752C210.794 66.4342 212.989 68.2995 214.353 69.3712C223.805 67.1707 231.387 69.8015 240.615 71.683C243.495 72.428 247.026 72.038 249.811 72.6005C259.64 74.5862 268.168 79.3387 276.01 85.4792C278.233 87.2177 279.545 90.5445 282.153 92.058C282.768 92.415 283.915 93.4582 284.508 93.9492C287.608 98.2402 290.99 101.771 294.985 105.234C298.84 108.576 305.56 113.955 306.808 119.186C307.618 119.951 308.37 120.427 309.283 121.052C309.38 122.018 309.5 122.844 309.653 123.795C313.125 127.571 315.418 134.107 319.32 139.016L319.665 142.428C325.818 147.23 324.873 158.925 326.833 165.801C327.92 169.627 329.418 169.056 327.39 173.621C327.98 174.418 328.598 174.974 329.305 175.665C329.628 178.358 329.668 180.602 329.785 183.24C330.075 186.115 330.703 188.63 329.735 191.476C328.405 195.379 328.593 199.117 328.348 203.138C327.715 203.836 326.653 204.806 325.948 205.487C332.073 205.294 339.638 203.438 345.823 202.8C347.145 202.664 348.963 203.236 350.525 203.139C352.233 203.033 356.4 202.303 357.838 202.476C362.64 203.055 373.09 205.037 377.45 206.711C381.465 208.253 390.25 213.629 394.1 216.077C398.475 218.859 401 224.143 406.155 227.708C407.51 232.326 410.12 232.182 410.705 237.927C414.528 242.037 414.875 254.917 415.248 260.485C415.245 260.465 412.995 267.177 412.735 268.86C415.033 273.482 411.215 275.225 409.535 278.703C408.528 280.793 408.765 283.197 407.413 285.467C409.538 285.432 420.588 286.608 422.458 287.295C427.393 289.05 434.945 292.575 436.89 297.897C438.355 301.902 439.333 304.567 441.43 308.547C438.935 313.18 440.003 315.435 438.795 317.492C436.91 320.707 432.683 326.64 430.448 329.96C429.92 330.742 427.308 332.773 426.593 333.793C424.98 336.095 423.073 340.362 421.013 342.145C417.98 344.985 412.595 347.32 409.698 350.207C406.163 353.735 407.515 353.905 401.84 354.087C400.703 354.99 398.42 356.872 397.105 357.413C392.798 359.193 387.228 359.688 382.878 361.258C379.913 362.328 377.14 364.65 373.665 365.475C371.105 366.083 370.658 366.08 367.903 366.135C363.695 369.277 362.118 368.998 356.875 369.14C356.733 369.233 356.588 369.323 356.448 369.418C355.713 369.92 355.155 370.325 354.268 370.517C350.49 371.335 346.125 370.785 342.248 370.965C339.708 371.082 337.105 371.603 334.565 371.465C332.33 371.342 320.318 370.075 319.255 370.37C318.548 370.568 318.08 370.53 317.363 370.413C317.053 370.363 315.788 370.53 315.428 370.595C309.705 371.633 304.51 368.115 299.333 366.133C297.818 365.263 294.683 365.467 293.3 364.725C290.57 363.258 287.435 361.573 284.753 360.015C283.125 359.073 281.68 357.61 280.078 356.582C278.33 355.465 276.62 354.33 274.95 353.112C271.888 350.215 269.15 348.165 265.585 346.135C263.91 344.738 262.23 338.382 259.28 339.05C256.108 339.767 251.553 340.535 248.236 341.4C243.751 342.568 239.007 343.812 234.406 344.612C232.503 344.942 229.797 343.53 227.895 343.195C225.813 342.818 222.634 343.175 220.683 342.49C214.408 340.283 208.878 335.013 204.011 330.6C202.627 329.345 200.231 327.782 198.6 326.422C198.423 325.387 198.369 324.232 197.724 323.487C196.114 323.067 193.359 324.45 191.6 324.725C186.567 325.518 181.386 325.268 176.382 326.19C174.823 326.478 173.769 327.625 172.092 327.668C170.104 327.72 163.777 327.538 161.975 327.247C160.564 327.02 158.378 325.618 157 326.01C156.533 326.143 156.132 326.348 155.633 326.335C154.233 326.305 152.689 325.885 151.303 325.65C149.113 325.277 146.882 325.08 144.702 324.665C142.775 324.3 140.908 323.63 138.983 323.247C137.489 322.95 135.27 322.953 133.935 322.315C133.514 322.115 133.339 321.823 133.003 321.545C132.517 321.14 131.835 321.215 131.259 321.32C128.528 321.81 120.492 316.443 117.617 315.413C116.238 314.918 114.637 315.05 113.21 314.655C110.791 313.985 103.809 308.625 102.376 306.573C101.261 304.978 100.717 302.955 99.4775 301.465C97.8458 299.503 95.4893 297.967 93.7295 296.055C91.332 293.447 89.212 290.592 86.8995 287.91C84.7108 285.372 82.3198 283.19 80.396 280.41C78.7973 278.1 77.7665 275.488 76.2488 273.138C74.8058 270.903 73.0763 268.862 71.8475 266.492C70.6845 264.247 70.0118 261.652 69.153 259.277C67.8395 255.645 66.7435 251.978 65.498 248.33C64.826 246.363 63.961 244.436 63.3738 242.444C62.9698 241.074 62.7258 239.661 62.3228 238.29C61.719 236.238 60.7793 234.204 60.5405 232.07C60.3883 230.706 60.9355 229.398 61.345 228.115C60.7803 226.101 59.2528 217.844 59.5968 216.02C60.6718 210.321 60.1988 206.83 59.4948 201.113C59.1213 198.08 62.3413 196.745 60.6665 192.627C62.2903 188.637 62.1033 185.703 63.0878 181.934C63.766 179.338 67.053 175.706 66.3728 171.906C65.922 171.299 65.8303 171.183 65.5258 170.499C66.181 168.846 66.8913 170.239 67.7198 168.122C68.6788 165.672 69.1938 163.015 70.247 160.646C72.85 154.789 76.5748 150.051 79.885 144.716C82.5503 140.012 85.5268 135.565 88.503 131.06C90.6885 127.751 95.0583 126.602 94.2643 122.202L94.2085 121.899C95.1503 121.42 98.4675 119.636 99.0825 118.973C100.649 117.283 101.335 115.762 103.263 114.194C107.287 113.634 108.863 111.375 112.201 109.35C113.607 108.497 115.725 107.541 117.255 106.824C117.153 105.717 115.088 103.697 114.855 102.105C114.635 100.598 114.352 99.6625 114.395 98.0225C114.503 93.9377 117.522 90.1882 120.313 87.4647C121.572 86.2367 122.379 83.9987 123.804 82.8707C127.19 80.1897 130.922 77.699 134.44 75.1752C135.898 74.1302 136.629 74.0662 137.986 72.7682L138.187 72.5732C143.183 72.0992 144.526 70.6265 149.008 68.7017C151.955 67.436 155.508 66.0675 158.551 64.9475C160.322 64.2952 163.913 64.453 165.895 64.2425C167.305 64.0925 169.446 62.7465 170.64 62.6425C175.082 62.2555 179.916 62.4392 184.425 62.3667ZM162.237 76.0105C156.461 79.9595 148.901 81.1167 142.799 84.6092C140.351 86.0105 138.956 87.5607 136.78 89.0377C133.252 91.4322 129.207 95.0352 125.692 97.2002C126.493 99.767 126.552 100.406 126.541 103.081C131.148 105.059 130.016 107.598 133.091 110.372C139.371 116.04 146.379 120.154 153.609 124.398C153.732 124.47 153.856 124.543 153.979 124.615C157.729 126.817 161.045 130.285 165.174 132.622C168.521 134.516 175.244 137.175 177.395 139.454C180.181 139.5 181.22 139.563 183.264 141.67C183.633 142.051 183.989 142.444 184.332 142.847C185.025 152.227 185.681 160.157 188.369 169.307C189.73 173.939 192.321 177.109 192.692 181.779C201.112 188.179 199.266 207.891 215.281 200.951C218.558 201.725 221.638 202.837 224.95 203.415C225.947 203.59 226.523 203.559 227.266 204.232C227.533 205.215 227.386 205.541 228.391 205.969C234.429 208.54 234.315 214.248 237.402 219.303C237.051 226.307 238.143 231.029 234.771 237.409C232.45 241.803 230.907 242.929 226.787 245.744C231.68 251.693 232.374 256.322 234.927 263.092C236.266 266.645 238.263 267.4 238.608 272.005C241.667 275.085 241.841 275.532 242.71 279.8C242.917 280.82 245.504 284.035 245.862 285.302C245.901 287.862 246.992 289.215 248.234 291.342C249.174 292.952 249.893 294.933 250.785 296.543C252.703 300.003 253.52 300.875 253.57 304.983C256.178 306.22 258.705 309.917 260.99 312.332C261.323 313.342 260.513 314.275 261.098 314.915C263.705 317.77 264.388 319.45 265.345 323.098C265.523 323.775 268.458 327.147 268.963 328.047C271.283 332.172 273.88 335.89 277.303 339.18C278.065 339.913 280.073 340.617 280.85 341.492C281.905 342.832 283.023 344.515 283.98 345.922C287.295 346.787 286.778 346.96 289.268 349.02C291.123 350.552 294.745 353.49 296.963 354.365C297.111 354.423 297.26 354.482 297.408 354.54C301.932 356.321 306.593 358.156 311.253 359.492C315.31 360.36 314.87 359.075 320.048 360.94C325.038 358.925 338.755 360.885 344.875 360.108C350.148 359.438 352.348 358.795 357.353 356.913C357.91 356.703 361.162 356.232 362.148 356.089C362.183 356.084 362.216 356.079 362.245 356.075C365.938 352.523 365.61 354.18 370.28 353.215C371.578 352.943 376.398 349.7 377.383 349.633C381.55 349.342 382.9 348.113 386.583 346.63C389.06 345.635 390.658 347.512 393.575 344.807C398.193 340.992 399.58 341.372 404.658 338.735C405.66 338.215 407.833 335.642 408.865 335.087C410.4 334.265 411.233 334.577 412.618 333.267C415.483 330.557 417.423 327.678 419.818 324.57C421.16 322.828 424.14 320.107 425.218 318.455C426.415 316.615 430.123 310.46 430.385 308.5C430.58 307.05 428.028 302.42 427.14 301.055C424 299.49 423.075 299.77 420.84 297.205C414.483 295.507 410.288 295.012 403.47 295.397C398.388 295.685 394.138 299.388 389.78 299.695C388.135 299.81 381.863 295.995 383.648 293.633C385.068 289.923 388.468 288.44 391.275 285.992C393.323 284.195 392.875 282.745 395.883 282.26C397.595 280.753 399.608 271.622 400.17 268.932C400.453 267.585 400.545 264.585 400.863 262.888C401.313 260.313 402.295 257.91 402.398 255.27C402.438 254.24 402.668 250.105 402.05 249.237C400.003 246.362 398.573 240.289 398.298 236.926C396.178 234.555 394.055 232.15 391.985 229.749C390.963 228.562 388.87 227.23 388.045 226.197C385.14 222.559 382.335 220.876 378.3 218.691C376.44 217.684 374.495 216.044 372.41 215.344C368.518 213.765 364.513 214.236 360.465 213.866C358.053 213.645 355.505 212.905 353.043 212.85C343.328 212.377 333.485 214.377 324.113 216.739C323.313 216.94 321.528 217.976 320.715 218.383C316.62 220.407 311.03 216.144 311.475 211.674C311.635 210.046 313.868 208.605 313.968 207.88C314.475 204.132 314.768 200.919 316.06 197.324C316.865 195.086 316.633 189.129 315.953 186.796C316.32 185.64 318.005 180.922 317.138 180.127C314.74 177.928 316.075 174.426 315.243 172.468C313.51 168.395 313.463 164.795 312.725 160.454C312.443 158.78 312.595 156.797 312.103 155.134C311.225 152.523 309.1 150.544 307.738 147.929C308.705 142.5 305.01 141.149 303.165 137.707C300.688 133.088 299.593 129.381 295.328 125.735C294.315 124.337 292.898 120.375 291.553 119.439C289.52 118.024 285.693 113.639 283.785 112.558C278.875 109.776 277.923 105.291 274.698 102.206C270.525 100.917 271.308 100.109 268.495 96.9127C267.278 95.5297 265.025 93.3745 263.543 92.2127L259.25 91.5365C258.293 90.683 255.843 88.3682 254.725 87.9247C248.828 85.5837 241.647 84.4435 235.346 83.5887C232.874 83.2532 230.231 82.2442 227.474 81.9567C223.631 81.5557 220.326 81.838 216.472 81.78C214.606 81.752 211.805 81.319 210.004 81.4367C207.376 81.6085 202.437 82.9467 199.831 82.9775C199.662 82.9795 195.363 80.7655 194.791 80.4985L193.733 78.2057C188.008 77.074 177.11 75.5775 171.381 75.8927C167.894 76.0792 165.059 77.3512 162.237 76.0105ZM196.639 309.465C202.929 310.533 207.99 305.422 214.165 303.897C217.35 301.892 222.87 297.965 226.148 296.885C228.156 294.343 234.655 290.012 236.124 287.24C236.441 286.642 233.342 283.13 233.7 281.997C233.82 278.128 229.188 273.615 228.301 270.453C226.794 265.08 224.916 260.69 222.791 255.64C221.301 250.115 219.643 251.94 215.451 253.533C212.008 254.84 205.007 252.632 203.04 249.283C198.615 241.753 205.134 240.889 210.628 242.57C212.422 241.106 215.012 241.092 216.984 239.996C219.728 238.471 219.474 236.562 222.864 236.243C223.833 235.419 223.938 233.793 224.545 232.708C225.762 230.532 227.088 228.362 227.26 225.804C227.73 218.788 222.463 211.972 215.305 211.266C206.096 210.359 201.819 214.936 194.841 219.607C192.383 219.684 189.559 219.102 189.635 216.033C189.724 212.495 193.767 208.529 196.362 206.406C195.501 204.374 193.374 201.445 191.925 199.592C190.469 197.73 189.201 192.103 188.117 190.854C184.798 187.028 184.901 185.034 183.221 180.279C182.656 178.679 180.291 176.27 179.976 174.341C179.406 172.202 179.674 169.679 179.121 167.633C178.695 166.054 177.284 163.463 177.034 161.865C176.378 157.669 176.388 154.463 175.467 150.237L175.432 150.081C171.824 149.252 171.696 147.741 168.762 145.809C167.178 144.815 164.96 144.503 163.434 143.467C158.717 140.265 154.261 136.554 149.658 133.252C146.709 131.136 144.861 131.805 142.171 128.46C141.442 127.554 135.977 124.8 134.83 123.501C134.117 122.994 132.188 122.445 131.629 122.014C128.046 119.254 130.201 118.18 125.564 117.378C125.081 116.556 124.484 115.339 123.672 114.884L123.472 115.108C121.275 117.545 119.149 117.086 116.849 118.946C114.648 120.726 112.703 123.232 110.549 125.058C104.964 129.793 99.8225 134.454 95.207 140.186C92.3298 143.758 90.1945 148.332 88.097 152.413C87.428 153.693 84.8005 155.251 84.2133 156.622C82.5488 160.508 83.9398 160.457 81.1238 164.104C81.1548 164.767 81.2018 165.306 81.1295 165.971C78.1113 170.406 77.4103 173.677 75.9575 178.766C75.1983 181.426 73.6095 184.2 72.9495 186.926C72.0928 192.791 71.552 197.426 69.917 203.212C71.824 206.689 70.868 209.143 70.71 212.847C70.463 218.637 70.3218 223.353 72.4813 228.877L71.383 232.113C72.8436 234.989 73.2991 237.001 73.9962 240.079C74.0059 240.122 74.0155 240.164 74.0253 240.208C74.5668 242.598 76.4255 244.869 75.5275 247.403C76.4475 250.323 77.6833 253.128 78.8565 255.955C79.372 257.2 79.8575 259.115 80.5093 260.207C84.8958 267.57 89.0683 275.008 94.6823 281.538C96.44 283.583 97.6738 285.91 100.231 287.06C101.134 287.485 102.138 288.065 102.859 288.742C107.513 292.91 112.404 297.21 117.849 300.3C120.438 301.832 123.89 301.692 126.586 302.832C133.286 305.682 139.912 309.185 147.183 310.362C148.463 310.57 149.832 310.618 151.102 310.828C155.942 311.633 160.994 310.733 165.698 312.23C167.367 311.343 167.702 311.18 169.488 310.698C176.902 312.5 179.921 312.723 187.495 311.41C191.912 310.643 192.093 312.143 196.639 309.465ZM205.948 320.503C207.296 321.24 209.344 322.307 210.429 323.32C214.289 326.918 218.293 329.34 222.886 331.93C225.515 332.55 225.398 331.985 227.852 332.015C228.835 332.028 231.371 332.895 232.518 332.835C235.951 332.658 251.828 329.455 254.185 328.242C252.125 323.51 250.858 323.035 247.829 319.05C245.971 316.605 244.247 311.535 242.367 308.902C241.019 307.018 242.275 304.463 239.664 303.918C237.839 305.915 230.782 308.71 228.074 311.135C226.879 312.208 217.772 316.735 215.848 317.285C211.445 318.545 210.433 318.015 205.948 320.503Z" fill="#232C3C"/>
<path d="M162.237 76.0105C156.461 79.9595 148.901 81.1167 142.799 84.6092C140.351 86.0105 138.956 87.5607 136.78 89.0377C133.252 91.4322 129.207 95.0352 125.692 97.2002C126.493 99.767 126.552 100.406 126.541 103.081C131.148 105.059 130.016 107.598 133.091 110.372C139.371 116.04 146.379 120.154 153.609 124.398L153.979 124.615C157.729 126.817 161.045 130.285 165.174 132.622C168.521 134.516 175.244 137.175 177.395 139.454C180.181 139.5 181.22 139.563 183.264 141.67C183.633 142.051 183.989 142.444 184.332 142.847C185.025 152.227 185.681 160.157 188.369 169.307C189.73 173.939 192.321 177.109 192.692 181.779C201.112 188.179 199.266 207.891 215.281 200.951C218.558 201.725 221.638 202.837 224.95 203.415C225.947 203.59 226.523 203.559 227.266 204.232C227.533 205.215 227.386 205.541 228.391 205.969C234.429 208.54 234.315 214.248 237.402 219.303C237.051 226.307 238.143 231.029 234.771 237.409C232.45 241.803 230.907 242.929 226.787 245.744C231.68 251.693 232.374 256.322 234.927 263.092C236.266 266.645 238.263 267.4 238.608 272.005C241.667 275.085 241.841 275.532 242.71 279.8C242.917 280.82 245.504 284.035 245.862 285.302C245.901 287.862 246.992 289.215 248.234 291.342C249.174 292.952 249.893 294.933 250.785 296.543C252.703 300.003 253.52 300.875 253.57 304.983C256.178 306.22 258.705 309.917 260.99 312.332C261.323 313.342 260.513 314.275 261.098 314.915C263.705 317.77 264.388 319.45 265.345 323.098C265.523 323.775 268.458 327.147 268.963 328.047C271.283 332.172 273.88 335.89 277.303 339.18C278.065 339.913 280.073 340.617 280.85 341.492C281.905 342.832 283.023 344.515 283.98 345.922C287.295 346.787 286.778 346.96 289.268 349.02C291.123 350.552 294.745 353.49 296.963 354.365L297.408 354.54C301.932 356.321 306.593 358.156 311.253 359.492C315.31 360.36 314.87 359.075 320.048 360.94C325.038 358.925 338.755 360.885 344.875 360.108C350.148 359.438 352.348 358.795 357.353 356.913C357.91 356.703 361.162 356.232 362.148 356.089L362.245 356.075C365.938 352.523 365.61 354.18 370.28 353.215C371.578 352.943 376.398 349.7 377.383 349.633C381.55 349.342 382.9 348.113 386.583 346.63C389.06 345.635 390.658 347.512 393.575 344.807C398.193 340.992 399.58 341.372 404.658 338.735C405.66 338.215 407.833 335.642 408.865 335.087C410.4 334.265 411.233 334.577 412.618 333.267C415.483 330.557 417.423 327.678 419.818 324.57C421.16 322.828 424.14 320.107 425.218 318.455C426.415 316.615 430.123 310.46 430.385 308.5C430.58 307.05 428.028 302.42 427.14 301.055C424 299.49 423.075 299.77 420.84 297.205C414.483 295.507 410.288 295.012 403.47 295.397C398.388 295.685 394.138 299.388 389.78 299.695C388.135 299.81 381.863 295.995 383.648 293.633C385.068 289.923 388.468 288.44 391.275 285.992C393.323 284.195 392.875 282.745 395.883 282.26C397.595 280.753 399.608 271.622 400.17 268.932C400.453 267.585 400.545 264.585 400.863 262.888C401.313 260.313 402.295 257.91 402.398 255.27C402.438 254.24 402.668 250.105 402.05 249.237C400.003 246.362 398.573 240.289 398.298 236.926C396.178 234.555 394.055 232.15 391.985 229.749C390.963 228.562 388.87 227.23 388.045 226.197C385.14 222.559 382.335 220.876 378.3 218.691C376.44 217.684 374.495 216.044 372.41 215.344C368.518 213.765 364.513 214.236 360.465 213.866C358.053 213.645 355.505 212.905 353.043 212.85C343.328 212.377 333.485 214.377 324.113 216.739C323.313 216.94 321.528 217.976 320.715 218.383C316.62 220.407 311.03 216.144 311.475 211.674C311.635 210.046 313.868 208.605 313.968 207.88C314.475 204.132 314.768 200.919 316.06 197.324C316.865 195.086 316.633 189.129 315.953 186.796C316.32 185.64 318.005 180.922 317.138 180.127C314.74 177.928 316.075 174.426 315.243 172.468C313.51 168.395 313.463 164.795 312.725 160.454C312.443 158.78 312.595 156.797 312.103 155.134C311.225 152.523 309.1 150.544 307.738 147.929C308.705 142.5 305.01 141.149 303.165 137.707C300.688 133.088 299.593 129.381 295.328 125.735C294.315 124.337 292.898 120.375 291.553 119.439C289.52 118.024 285.693 113.639 283.785 112.558C278.875 109.776 277.923 105.291 274.698 102.206C270.525 100.917 271.308 100.109 268.495 96.9127C267.278 95.5297 265.025 93.3745 263.543 92.2127L259.25 91.5365C258.293 90.683 255.843 88.3682 254.725 87.9247C248.828 85.5837 241.647 84.4435 235.346 83.5887C232.874 83.2532 230.231 82.2442 227.474 81.9567C223.631 81.5557 220.326 81.838 216.472 81.78C214.606 81.752 211.805 81.319 210.004 81.4367C207.376 81.6085 202.437 82.9467 199.831 82.9775C199.662 82.9795 195.363 80.7655 194.791 80.4985L193.733 78.2057C188.008 77.074 177.11 75.5775 171.381 75.8927C167.894 76.0792 165.059 77.3512 162.237 76.0105Z" fill="#232C3C"/>
<path d="M196.639 309.465C202.929 310.533 207.99 305.422 214.165 303.897C217.35 301.892 222.87 297.965 226.148 296.885C228.156 294.343 234.655 290.012 236.124 287.24C236.441 286.642 233.342 283.13 233.7 281.997C233.82 278.128 229.188 273.615 228.301 270.453C226.794 265.08 224.916 260.69 222.791 255.64C221.301 250.115 219.643 251.94 215.451 253.533C212.008 254.84 205.007 252.632 203.04 249.283C198.615 241.753 205.134 240.889 210.628 242.57C212.422 241.106 215.012 241.092 216.984 239.996C219.728 238.471 219.474 236.562 222.864 236.243C223.833 235.419 223.938 233.793 224.545 232.708C225.762 230.532 227.088 228.362 227.26 225.804C227.73 218.788 222.463 211.972 215.305 211.266C206.096 210.359 201.819 214.936 194.841 219.607C192.383 219.684 189.559 219.102 189.635 216.033C189.724 212.495 193.767 208.529 196.362 206.406C195.501 204.374 193.374 201.445 191.925 199.592C190.469 197.73 189.201 192.103 188.117 190.854C184.798 187.028 184.901 185.034 183.221 180.279C182.656 178.679 180.291 176.27 179.976 174.341C179.406 172.202 179.674 169.679 179.121 167.633C178.695 166.054 177.284 163.463 177.034 161.865C176.378 157.669 176.388 154.463 175.467 150.237L175.432 150.081C171.824 149.252 171.696 147.741 168.762 145.809C167.178 144.815 164.96 144.503 163.434 143.467C158.717 140.265 154.261 136.554 149.658 133.252C146.709 131.136 144.861 131.805 142.171 128.46C141.442 127.554 135.977 124.8 134.83 123.501C134.117 122.994 132.188 122.445 131.629 122.014C128.046 119.254 130.201 118.18 125.564 117.378C125.081 116.556 124.484 115.339 123.672 114.884L123.472 115.108C121.275 117.545 119.149 117.086 116.849 118.946C114.648 120.726 112.703 123.232 110.549 125.058C104.964 129.793 99.8225 134.454 95.207 140.186C92.3298 143.758 90.1945 148.332 88.097 152.413C87.428 153.693 84.8005 155.251 84.2133 156.622C82.5488 160.508 83.9398 160.457 81.1238 164.104C81.1548 164.767 81.2018 165.306 81.1295 165.971C78.1113 170.406 77.4103 173.677 75.9575 178.766C75.1983 181.426 73.6095 184.2 72.9495 186.926C72.0928 192.791 71.552 197.426 69.917 203.212C71.824 206.689 70.868 209.143 70.71 212.847C70.463 218.637 70.3218 223.353 72.4813 228.877L71.383 232.113C72.8436 234.989 73.2991 237.001 73.9962 240.079L74.0253 240.208C74.5668 242.598 76.4255 244.869 75.5275 247.403C76.4475 250.323 77.6833 253.128 78.8565 255.955C79.372 257.2 79.8575 259.115 80.5093 260.207C84.8958 267.57 89.0683 275.008 94.6823 281.538C96.44 283.583 97.6738 285.91 100.231 287.06C101.134 287.485 102.138 288.065 102.859 288.742C107.513 292.91 112.404 297.21 117.849 300.3C120.438 301.832 123.89 301.692 126.586 302.832C133.286 305.682 139.912 309.185 147.183 310.362C148.463 310.57 149.832 310.618 151.102 310.828C155.942 311.633 160.994 310.733 165.698 312.23C167.367 311.343 167.702 311.18 169.488 310.698C176.902 312.5 179.921 312.723 187.495 311.41C191.912 310.643 192.093 312.143 196.639 309.465Z" fill="#DDE9FF"/>
<path d="M205.948 320.503C207.296 321.24 209.344 322.307 210.429 323.32C214.289 326.918 218.293 329.34 222.886 331.93C225.515 332.55 225.398 331.985 227.852 332.015C228.835 332.028 231.371 332.895 232.518 332.835C235.951 332.658 251.828 329.455 254.185 328.242C252.125 323.51 250.858 323.035 247.829 319.05C245.971 316.605 244.247 311.535 242.367 308.902C241.019 307.018 242.275 304.463 239.664 303.918C237.839 305.915 230.782 308.71 228.074 311.135C226.879 312.208 217.772 316.735 215.848 317.285C211.445 318.545 210.433 318.015 205.948 320.503Z" fill="#232C3C"/>
<path d="M84.1526 203.521C88.6863 203.345 92.9976 207.711 96.7153 209.831C99.2311 211.267 102.335 212.232 104.878 213.763C107.268 215.328 109.667 216.805 112.084 218.325C116.12 220.863 131.266 222.067 122.799 229.249C122.62 230.665 122.495 234.516 121.532 235.396C119.056 237.659 115.762 241.413 113.108 243.265C112.135 243.833 111.163 244.527 110.194 245.128C106.687 247.304 102.623 248.378 98.6713 249.461C97.8191 249.107 95.9103 248.783 94.9508 248.636C88.7938 247.695 88.0681 247.312 83.7453 243.229C82.8911 239.28 80.1441 237.219 79.2323 234.014C77.6336 228.394 79.0891 221.279 78.0281 215.397C77.7501 213.857 80.9253 210.623 79.7493 208.845C79.1243 207.672 83.1461 204.182 84.1526 203.521ZM87.5828 230.681C90.3573 234.493 90.1398 236.156 94.0128 239.216C100.631 239.742 103.158 238.467 108.285 234.466C110.312 233.139 114.556 229.4 113.83 226.65C106.14 224.644 98.6501 218.984 91.2373 216.089C89.8883 215.562 88.4998 215.105 87.1738 214.536L86.8321 215.019L86.8781 215.196C87.2483 216.642 87.1663 217.274 87.1531 218.768C87.1176 222.748 87.5298 226.694 87.5828 230.681Z" fill="#232C3C"/>
<path d="M118.653 170.572C119.905 170.41 121.625 170.335 122.843 170.849C125.358 171.91 127.552 174.823 125.991 177.546C124.746 179.719 120.86 178.609 118.745 179.304C114.877 180.576 110.743 182.486 107.723 185.283C104.601 188.271 104.786 189.368 104.674 193.239C106.77 194.065 108.606 194.792 110.648 195.763C116.552 194.636 119.866 195.379 125.245 197.441C126.174 196.097 127.007 193.706 128.789 193.444C131.588 193.034 136.05 195.355 136.47 198.381C136.696 200.014 135.927 201.357 135.04 202.605C134.458 203.37 133.565 204.514 132.907 205.168C130.673 207.391 124.324 207.864 121.311 207.678C116.854 203.849 117.375 205.259 111.869 205.67C110.547 205.768 107.145 204.511 105.743 203.933C101.862 202.334 97.6756 199.355 96.0059 195.368C96.9634 191.755 95.6709 186.061 97.6946 183.098C102.439 176.151 111.076 172.656 118.653 170.572Z" fill="#232C3C"/>
<path d="M139.332 153.224C148.174 153.016 144.084 161.748 147.753 165.159C148.041 165.427 156.448 168.925 157.422 169.266C159.307 166.513 162.273 165.052 164.249 162.386L166.925 161.417C168.099 161.899 169.284 162.353 170.48 162.778C170.543 166.355 170.85 167.824 168.813 170.878C165.586 174.993 164.148 174.357 160.141 177.145L159.823 177.369C157.696 176.845 157.345 177.067 155.292 177.743C143.168 174.474 135.233 169.907 136.673 155.888C137.631 154.683 138.161 154.241 139.332 153.224Z" fill="#232C3C"/>
<path d="M210.917 221.635C212.114 221.69 213.818 222.717 214.877 223.299C216.857 226.889 215.585 230.607 212.03 232.786C210.913 233.471 209.5 233.792 208.322 234.33C204.158 236.233 199.97 236.902 195.446 237.182C194.03 237.269 193.473 237.808 191.927 237.366C190.139 236.615 187.694 235.477 186.706 233.829C184.363 229.923 188.726 227.62 192.063 227.476C194.62 227.365 196.169 227.654 198.584 228.245C201.306 226.933 203.951 226.04 206.728 224.898C208.389 224.214 209.622 222.873 210.917 221.635Z" fill="#232C3C"/>
<path d="M104.244 143.571C109.348 143.471 108.387 148.725 112.165 151.359C115.443 154.473 119.526 147.126 122.072 147.512C129.743 148.677 125.231 153.738 123.23 156.14C121.215 157.949 118.882 159.751 116.753 161.457C115.844 161.112 113.054 160.792 112.027 160.705C106.37 160.225 105.748 157.651 101.69 154.356C101.279 152.111 101.082 146.717 101.751 144.535C102.464 144.176 103.472 143.848 104.244 143.571Z" fill="#232C3C"/>
</svg>
