<svg width="500" height="400" viewBox="0 0 500 400" fill="none" xmlns="http://www.w3.org/2000/svg">
<path d="M300.902 54.5875C304.27 53.8555 305.83 55.6358 308.752 56.7083C310.997 60.3703 314.492 64.1098 315.99 67.8385C316.732 69.6848 316.562 79.268 317.845 80.7003C320.137 78.484 325.857 77.7725 329.692 75.463C332.27 75.727 334.9 75.448 336.977 75.6758C339.34 75.935 345.122 78.2443 346.952 79.9508C347.392 80.361 349.032 82.4855 349.507 83.089C347.962 86.9853 349.09 88.0715 348.562 92.0325C348.405 93.2163 346.73 94.5648 346.675 95.8768C347.645 97.385 349.795 98.0878 350.76 99.3525C358.197 109.108 358.877 120.739 358.472 132.557C358.805 136.402 358.06 142.151 358.555 145.83C359.537 153.146 359.55 158.685 358.542 166.042C358.155 168.869 357.695 172.279 357.435 175.128C366.972 178.356 373.935 193.108 371.952 203.045C371.292 206.346 367.732 211.151 366.377 214.632C365.365 217.233 362.947 221.88 360.625 223.553C356.345 226.033 352.017 228.794 347.725 231.246C347.305 232.365 346.607 234.319 346.605 235.501C346.675 236.719 348.25 237.131 348.387 238.389C348.477 239.337 348.182 240.96 347.887 241.887C347.137 244.237 347.845 244.484 348.305 246.622L348.19 247.005C348.14 247.168 348.1 247.335 348.047 247.497C347.712 248.501 348.58 254.843 348.567 256.865C348.677 256.965 348.785 257.065 348.892 257.168C349.395 257.653 350.315 258.603 350.53 259.22C352.347 264.433 353.855 268.358 353.647 273.963C353.597 275.32 355.665 280.265 355.872 282.035C356.322 285.89 357.2 289.913 357.512 293.778C357.855 302.08 346.965 306.61 341.157 310.408C339.832 310.97 338.377 311.583 337.037 312.078C330.442 314.515 324.955 319.025 318.345 321.28C315.18 322.363 312 321.688 308.747 322.193C306.547 322.538 305.092 323.878 303.08 324.673C299.497 326.018 294.705 325.983 290.895 326.043C289.82 326.895 288.442 328.278 287.08 328.505C285.127 328.833 283.095 328.01 281.122 328.195C279.225 328.375 277.375 328.828 275.462 328.938C272.942 329.08 270.415 328.918 267.902 329.21C263.385 329.74 258.82 330.79 254.26 330.798C252.237 330.8 235.707 330.355 235.081 330.558C230.534 332.033 231.432 330.708 227.27 330.05C226.399 330.433 226.328 330.498 225.401 330.538C222.786 328.928 216.123 328.793 212.779 328.328C199.078 326.418 188.832 318.11 176.761 312.225C175.247 309.583 171.726 303.803 170.772 301.318C168.979 296.65 167.813 293.45 165.492 289.128C165.01 288.23 164.64 284.798 164.251 284.283C160.346 279.01 158.404 272.213 156.781 265.85C156.135 263.32 157.402 255.355 157.108 252.145C156.988 250.825 157.437 247.838 157.362 246.076C153.458 243.653 149.706 242.846 146.716 239.351C144.096 236.287 141.617 230.83 141.845 226.779C141.831 222.662 146.213 214.157 149.657 212.33C158.144 207.828 156.444 208.987 153.805 200.416C153.315 198.824 153.382 191.567 153.315 189.143C152.138 187.686 151.61 186.717 151.156 184.88C150.702 183.04 151.118 181.581 151.116 179.872C151.11 172.675 152.707 166.934 155.355 160.315C155.943 158.844 157.138 157.116 157.408 156.317C158.644 152.66 160.012 148.898 161.3 145.258C161.53 144.608 163.793 142.526 164.223 141.55C165.06 139.653 165.615 137.575 166.591 135.759C166.834 135.307 167.714 135.283 168.334 135.167C167.704 134.234 166.347 132.734 166.041 131.809C164.612 127.488 162.816 123.53 162.941 118.874C162.96 118.197 162.185 116.091 161.915 115.304C164.944 106.794 167.266 103.96 173.531 97.6408C174.514 96.98 176.039 94.2655 176.828 93.773C179.817 91.9078 183.6 90.1218 186.494 88.028C187.663 87.1818 190.618 86.1905 191.368 85.5013C195.201 81.979 199.142 80.842 203.962 79.2018C205.259 78.7475 207.584 77.4668 209.052 76.8365C213.409 74.9663 215.491 75.5998 219.921 76.1998C221.442 76.0675 223.788 74.5428 225.295 74.5503C231.893 74.5828 236.476 74.3653 242.422 71.1348C242.963 70.841 247.903 71.2055 248.718 70.8555C252.13 69.3903 253.997 68.7425 257.755 69.2625C259.272 69.3798 262.755 68.4323 264.715 68.4788C272.592 68.6665 280.487 68.3745 288.352 68.4728C288.532 62.8885 292.175 59.79 295.777 55.6273C297.625 55.1585 299.037 54.899 300.902 54.5875ZM222.457 141.771C217.818 141.051 211.409 143.008 206.855 142.891C200.926 142.738 194.133 141.689 188.166 141.15C183.843 140.76 180.344 140.656 176.003 140.017C175.137 141.396 174.515 142.157 173.469 143.422C173.924 144.256 174.364 144.843 174.386 145.772C173.785 147.436 172.192 148.917 171.645 150.333C171.631 150.368 171.618 150.402 171.605 150.437C170.753 152.641 169.862 154.946 169.071 157.171C168.632 158.41 168.314 160.322 167.763 161.498C167.262 162.565 164.683 164.516 164.314 165.511C162.687 169.895 164.315 170.277 161.614 174.584C162.791 178.405 162.252 178.985 160.77 182.607C163.37 190.236 162.487 199.89 165.754 206.633C168.722 207.313 176.151 208.334 176.441 213.225C176.502 214.26 173.97 216.693 173.12 217.496L172.806 217.573C171.181 217.964 169.304 218.173 167.634 218.398C158.017 219.694 155.076 218.2 151.485 228.33C152.89 231.445 154.07 234.727 157.613 235.902C162.768 237.611 168.219 237.017 173.541 238.11C179.112 242.893 177.882 248.736 169.619 247.69C169.513 250.018 169.497 250.948 168.924 253.195L170.094 255.978C168.231 265.18 171.68 264.123 171.415 271.558L171.569 271.785C174.572 276.318 173.602 281.375 175.92 286.795C177.971 291.593 178.487 290.468 181.714 294.188C182.759 295.393 183.461 298.495 184.124 299.315C187.024 302.903 192.05 306.805 196.266 308.618C198.713 309.67 203.096 310.58 205.247 311.703C208.53 313.418 209.916 315.2 214.126 315.943C217.481 316.535 221.176 317.283 224.48 317.963C225.359 318.143 228.595 317.015 230.847 317.223C233.281 317.445 236.83 317.365 239.364 317.605C241.726 317.828 243.901 318.243 246.267 318.193C248.434 318.148 251.805 316.77 253.6 316.655C256.995 316.438 260.24 316.79 263.72 316.283C265.447 316.033 268.17 314.545 269.067 314.573C272.067 314.663 272.337 315.25 275.705 315.04C278.125 314.888 284.42 313.65 285.97 314.008C291.07 313.723 292.505 313.828 296.687 311.19C301.025 311.393 304.885 309.87 309.11 309.165C314.377 308.283 318.1 308.488 322.315 304.66C326.182 301.15 332.67 301.073 336.66 297.58C337.377 296.96 338.025 296.255 338.745 295.625C340.85 295.433 345.217 293.975 347.052 292.97C347.18 291.65 346.355 286.988 346.277 285.04C344.32 282.578 344.802 281.088 343.977 278.228C342.095 271.693 340.152 265.178 339.147 258.43C338.562 254.12 337.127 250.453 336.257 246.253C335.847 244.265 336.682 241.572 336.485 239.502C336.37 236.753 335.64 234.269 335.312 231.656C333.662 232.099 330.69 232.984 329.002 232.73C322.287 231.718 315.407 229.705 319.937 221.699L320.265 221.521C323.732 219.648 325.535 220.745 329.202 220.839C330.717 220.879 332.925 219.928 334.18 219.746C341.542 218.678 343.59 219.213 349.677 214.184C351.26 212.876 351.88 213.74 354.19 210.943C356.955 207.594 357.39 205.049 359.94 201.677C359.925 201.505 359.662 200.747 359.59 200.968C361.537 194.976 358.68 189.749 354.005 185.663C349.32 181.568 342.95 178.893 336.505 180.082C331.812 180.62 326.45 182.423 322.77 185.47C320.76 187.136 317.605 191.069 315.157 192.07C309.415 194.422 294.065 201.959 289.12 196.929C289.277 195.387 289.432 193.221 289.717 191.746C290.665 190.913 291.745 190.224 292.145 189.135C291.885 187.184 287.107 185.061 285.457 183.781C282.147 181.214 279.765 178.452 275.63 177.158C274.457 175.53 274.432 175.022 274.077 173.017C272.65 172.435 271.215 171.871 269.772 171.324C267.605 164.908 266.92 165.513 262.017 160.959C261.005 160.019 259.367 156.573 258.247 155.396C257.212 153.738 254.5 151.247 253.722 149.728C251.542 145.461 252.81 145.363 248.653 142.239C248.525 140.777 248.401 139.39 248.209 137.935C247.551 137.081 246.379 135.304 245.622 134.827L244.601 134.745C242.635 135.703 240.279 136.929 238.182 137.392C234.618 138.178 225.279 140.022 222.457 141.771ZM175.368 122.088C176.021 123.317 178.199 128.595 178.693 128.932C183.35 131.04 190.024 130.559 194.963 130.766C199.822 130.97 206.8 132.119 211.439 131.42C215.675 130.781 220.404 129.618 224.598 128.883C229.577 128.011 232.719 124.596 238.325 126.087C240.153 124.154 241.336 123.964 243.638 122.796C244.434 122.393 245.735 120.288 246.549 119.954C252.042 117.701 254.55 122.429 256.262 126.192C257.35 128.561 258.405 130.945 259.43 133.342C261.5 138.245 262.525 142.098 267.23 145.097C268.042 148.495 269.562 151.812 272.045 154.322C273.697 156.247 275.542 157.176 277.25 158.918C278.137 159.822 279.242 161.603 280.107 162.544C282.167 164.781 284.395 167.243 286.455 169.445C287.792 170.719 289.787 171.005 290.792 172.668C292.405 175.332 297.407 176.298 299.535 178.072C302.842 180.83 306.175 182.252 309.582 184.446C312.19 178.07 324.61 170.694 331.747 169.69C334.427 169.314 347 170.815 349.147 169.099C349.99 165.356 347.762 159.734 350.01 154.054C348.767 150.671 348.855 144.224 348.822 140.589C348.777 135.628 348.155 130.616 347.965 125.737C347.775 120.813 347.427 118.824 345.165 114.314C344.825 113.636 344.507 111.791 344.237 110.961C342.955 109.747 338.695 105.255 337.582 103.833C335.795 104.742 334.43 104.929 332.502 105.823C328.58 107.643 320.92 114.179 317.405 108.589C317.16 108.199 316.727 107.104 316.53 106.631C317.112 105.289 318.275 102.688 319.515 101.868C325.452 97.943 332.64 95.243 338.305 90.8823C339.12 90.255 339.857 87.8323 339.355 87.0955C336.78 83.3388 329.127 85.2325 325.95 86.8223C322.575 88.5123 321.015 89.6638 317.752 90.127C318.465 92.4753 318.77 94.3553 317.515 96.6863C316.692 98.1993 315.28 99.3033 313.612 99.735C312.45 100.041 311 99.7218 309.805 99.5255L309.707 99.285C309.247 98.1725 308.07 96.5663 307.877 95.5783C307.065 91.3788 307.982 87.0748 307.96 82.8613C307.945 80.2418 307.427 73.8895 306.842 71.4125C306.567 70.2415 303.892 66.398 303.12 64.9148C302.062 64.8288 301.042 64.7115 299.985 64.7648C298.875 65.6513 297.557 66.8145 297.14 68.2108C297.51 70.3348 299.797 69.5218 300.305 70.8518C299.745 71.4955 298.307 71.5108 297.64 71.88C295.695 72.956 295.495 79.7528 295.545 81.682C295.602 83.914 296.605 85.795 297.542 87.7153C296.777 90.8038 295.75 93.2023 292.057 92.1253C284.245 89.845 287.905 84.3728 286.25 80.2185C285.877 80.096 278.897 81.401 277.615 81.4173C275.445 81.4448 273.065 80.9665 270.935 80.9635C266.055 80.9835 261.157 81.2553 256.277 81.4763C254.457 81.5588 252.055 83.4 250.57 83.5245C244.332 84.048 244.034 84.5298 239.244 87.8773C234.93 86.5605 236.152 88.4383 233.274 88.1613C227.34 87.59 221.43 87.6715 215.518 88.5063C211.567 89.1135 206.612 92.1418 203.022 93.4788C198.212 95.2703 196.184 96.5973 192.142 99.909C190.486 101.266 186.775 101.768 185.074 103.376C180.279 107.457 177.816 111.269 175.476 117.082C176.422 119.634 176.404 119.536 175.368 122.088Z" fill="#232C3C"/>
<path d="M175.368 122.088C176.021 123.317 178.199 128.595 178.693 128.932C183.35 131.04 190.024 130.559 194.963 130.766C199.822 130.97 206.8 132.119 211.439 131.42C215.675 130.781 220.404 129.618 224.598 128.883C229.577 128.011 232.719 124.596 238.325 126.087C240.153 124.154 241.336 123.964 243.638 122.796C244.434 122.393 245.735 120.288 246.549 119.954C252.042 117.701 254.55 122.429 256.262 126.192C257.35 128.561 258.405 130.945 259.43 133.342C261.5 138.245 262.525 142.098 267.23 145.097C268.042 148.495 269.562 151.812 272.045 154.322C273.697 156.247 275.542 157.176 277.25 158.918C278.137 159.822 279.242 161.603 280.107 162.544C282.167 164.781 284.395 167.243 286.455 169.445C287.792 170.719 289.787 171.005 290.792 172.668C292.405 175.332 297.407 176.298 299.535 178.072C302.842 180.83 306.175 182.252 309.582 184.446C312.19 178.07 324.61 170.694 331.747 169.69C334.427 169.314 347 170.815 349.147 169.099C349.99 165.356 347.762 159.734 350.01 154.054C348.767 150.671 348.855 144.224 348.822 140.589C348.777 135.628 348.155 130.616 347.965 125.737C347.775 120.813 347.427 118.824 345.165 114.314C344.825 113.636 344.507 111.791 344.237 110.961C342.955 109.747 338.695 105.255 337.582 103.833C335.795 104.742 334.43 104.929 332.502 105.823C328.58 107.643 320.92 114.179 317.405 108.589C317.16 108.199 316.727 107.104 316.53 106.631C317.112 105.289 318.275 102.688 319.515 101.868C325.452 97.943 332.64 95.243 338.305 90.8823C339.12 90.255 339.857 87.8323 339.355 87.0955C336.78 83.3388 329.127 85.2325 325.95 86.8223C322.575 88.5123 321.015 89.6638 317.752 90.127C318.465 92.4753 318.77 94.3553 317.515 96.6863C316.692 98.1993 315.28 99.3033 313.612 99.735C312.45 100.041 311 99.7218 309.805 99.5255L309.707 99.285C309.247 98.1725 308.07 96.5663 307.877 95.5783C307.065 91.3788 307.982 87.0748 307.96 82.8613C307.945 80.2418 307.427 73.8895 306.842 71.4125C306.567 70.2415 303.892 66.398 303.12 64.9148C302.062 64.8288 301.042 64.7115 299.985 64.7648C298.875 65.6513 297.557 66.8145 297.14 68.2108C297.51 70.3348 299.797 69.5218 300.305 70.8518C299.745 71.4955 298.307 71.5108 297.64 71.88C295.695 72.956 295.495 79.7528 295.545 81.682C295.602 83.914 296.605 85.795 297.542 87.7153C296.777 90.8038 295.75 93.2023 292.057 92.1253C284.245 89.845 287.905 84.3728 286.25 80.2185C285.877 80.096 278.897 81.401 277.615 81.4173C275.445 81.4448 273.065 80.9665 270.935 80.9635C266.055 80.9835 261.157 81.2553 256.277 81.4763C254.457 81.5588 252.055 83.4 250.57 83.5245C244.332 84.048 244.034 84.5298 239.244 87.8773C234.93 86.5605 236.152 88.4383 233.274 88.1613C227.34 87.59 221.43 87.6715 215.518 88.5063C211.567 89.1135 206.612 92.1418 203.022 93.4788C198.212 95.2703 196.184 96.5973 192.142 99.909C190.486 101.266 186.775 101.768 185.074 103.376C180.279 107.457 177.816 111.269 175.476 117.082C176.422 119.634 176.404 119.536 175.368 122.088Z" fill="#232C3C"/>
<path d="M222.457 141.771C217.818 141.051 211.409 143.008 206.855 142.891C200.926 142.738 194.133 141.689 188.166 141.15C183.843 140.76 180.344 140.656 176.003 140.017C175.137 141.396 174.515 142.157 173.469 143.422C173.924 144.256 174.364 144.843 174.386 145.772C173.785 147.436 172.192 148.917 171.645 150.333L171.605 150.437C170.753 152.641 169.862 154.946 169.071 157.171C168.632 158.41 168.314 160.322 167.763 161.498C167.262 162.565 164.683 164.516 164.314 165.511C162.687 169.895 164.315 170.277 161.614 174.584C162.791 178.405 162.252 178.985 160.77 182.607C163.37 190.236 162.487 199.89 165.754 206.633C168.722 207.313 176.151 208.334 176.441 213.225C176.502 214.26 173.97 216.693 173.12 217.496L172.806 217.573C171.181 217.964 169.304 218.173 167.634 218.398C158.017 219.694 155.076 218.2 151.485 228.33C152.89 231.445 154.07 234.727 157.613 235.902C162.768 237.611 168.219 237.017 173.541 238.11C179.112 242.893 177.882 248.736 169.619 247.69C169.513 250.018 169.497 250.948 168.924 253.195L170.094 255.978C168.231 265.18 171.68 264.123 171.415 271.558L171.569 271.785C174.572 276.318 173.602 281.375 175.92 286.795C177.971 291.593 178.487 290.468 181.714 294.188C182.759 295.393 183.461 298.495 184.124 299.315C187.024 302.903 192.05 306.805 196.266 308.618C198.713 309.67 203.096 310.58 205.247 311.703C208.53 313.418 209.916 315.2 214.126 315.943C217.481 316.535 221.176 317.283 224.48 317.963C225.359 318.143 228.595 317.015 230.847 317.223C233.281 317.445 236.83 317.365 239.364 317.605C241.726 317.828 243.901 318.243 246.267 318.193C248.434 318.148 251.805 316.77 253.6 316.655C256.995 316.438 260.24 316.79 263.72 316.283C265.447 316.033 268.17 314.545 269.067 314.573C272.067 314.663 272.337 315.25 275.705 315.04C278.125 314.888 284.42 313.65 285.97 314.008C291.07 313.723 292.505 313.828 296.687 311.19C301.025 311.393 304.885 309.87 309.11 309.165C314.377 308.283 318.1 308.488 322.315 304.66C326.182 301.15 332.67 301.073 336.66 297.58C337.377 296.96 338.025 296.255 338.745 295.625C340.85 295.433 345.217 293.975 347.052 292.97C347.18 291.65 346.355 286.988 346.277 285.04C344.32 282.578 344.802 281.088 343.977 278.228C342.095 271.693 340.152 265.178 339.147 258.43C338.562 254.12 337.127 250.453 336.257 246.253C335.847 244.265 336.682 241.572 336.485 239.502C336.37 236.753 335.64 234.269 335.312 231.656C333.662 232.099 330.69 232.984 329.002 232.73C322.287 231.718 315.407 229.705 319.937 221.699L320.265 221.521C323.732 219.648 325.535 220.745 329.202 220.839C330.717 220.879 332.925 219.928 334.18 219.746C341.542 218.678 343.59 219.213 349.677 214.184C351.26 212.876 351.88 213.74 354.19 210.943C356.955 207.594 357.39 205.049 359.94 201.677C359.925 201.505 359.662 200.747 359.59 200.968C361.537 194.976 358.68 189.749 354.005 185.663C349.32 181.568 342.95 178.893 336.505 180.082C331.812 180.62 326.45 182.423 322.77 185.47C320.76 187.136 317.605 191.069 315.157 192.07C309.415 194.422 294.065 201.959 289.12 196.929C289.277 195.387 289.432 193.221 289.717 191.746C290.665 190.913 291.745 190.224 292.145 189.135C291.885 187.184 287.107 185.061 285.457 183.781C282.147 181.214 279.765 178.452 275.63 177.158C274.457 175.53 274.432 175.022 274.077 173.017C272.65 172.435 271.215 171.871 269.772 171.324C267.605 164.908 266.92 165.513 262.017 160.959C261.005 160.019 259.367 156.573 258.247 155.396C257.212 153.738 254.5 151.247 253.722 149.728C251.542 145.461 252.81 145.363 248.653 142.239C248.525 140.777 248.401 139.39 248.209 137.935C247.551 137.081 246.379 135.304 245.622 134.827L244.601 134.745C242.635 135.703 240.279 136.929 238.182 137.392C234.618 138.178 225.279 140.022 222.457 141.771Z" fill="#DDE9FF"/>
<path d="M175.043 163.545C181.729 163.21 179.903 166.622 184.927 169.644C188.383 171.724 194.924 172.322 198.553 170.755C202.469 169.065 203.425 168.06 207.878 166.877C213.762 168.941 213.811 172.22 209.305 176.018C208.442 176.851 204.061 180.813 202.328 180.179C200.629 179.557 198.81 181.362 197.714 181.321C194.827 181.212 194.814 180.768 192.082 181.777C189.732 180.769 187.31 180.538 184.759 179.829C181.663 178.968 178.21 175.458 175.988 173.165C175.234 172.387 174.481 170.999 173.329 169.809L173.115 169.59C173.085 167.152 172.795 165.136 175.043 163.545Z" fill="#232C3C"/>
<path d="M212.124 257.708C213.172 257.765 214.02 258.293 214.986 258.763C220.024 265.91 213.174 271.63 207.971 276.103C200.121 282.85 196.396 281.918 186.926 280.788L186.553 280.725C184.885 280.448 184.285 280.125 182.709 279.438C180.833 274.953 181.665 274.263 185.267 271.345C186.885 271.41 188.474 271.538 190.059 271.843C190.653 271.935 193.487 272.433 194.044 272.18C195.877 271.343 199.952 269.888 201.46 268.82C205.183 266.185 206.791 261.638 210.09 258.608C210.328 258.388 211.773 257.843 212.124 257.708Z" fill="#232C3C"/>
<path d="M338.625 195.569C342.037 195.124 342.055 197.347 343.147 199.956C341.915 202.902 340.532 204.28 337.93 206.135C336.817 206.927 334.82 208.762 333.702 209.222C329.087 211.118 323.48 212.149 318.562 212.915L315.987 212.508C312.967 209.968 313.517 208.861 314.955 205.588C320.357 202.163 321.542 203.122 327.257 201.121C329.41 200.367 330.922 198.704 332.672 197.477C334.122 196.462 336.865 195.924 338.625 195.569Z" fill="#232C3C"/>
</svg>
